G04 Layer: BottomSolderMaskLayer*
G04 EasyEDA v6.4.7, 2020-11-30T09:48:28+01:00*
G04 ec7fddcfb250444d8e3ff838e6161cd1,b786752bb5b344d598dffec7f8d735c0,10*
G04 Gerber Generator version 0.2*
G04 Scale: 100 percent, Rotated: No, Reflected: No *
G04 Dimensions in millimeters *
G04 leading zeros omitted , absolute positions ,3 integer and 3 decimal *
%FSLAX33Y33*%
%MOMM*%
G90*
D02*

%ADD23C,1.727200*%
%ADD24C,1.778000*%
%ADD26C,2.082800*%
%ADD27C,1.854200*%

%LPD*%
G54D23*
G01X23326Y31358D03*
G01X23326Y28818D03*
G01X23326Y26278D03*
G01X23326Y23738D03*
G01X23326Y21198D03*
G01X23326Y18658D03*
G01X23326Y16118D03*
G01X23326Y13578D03*
G01X23326Y11038D03*
G01X23326Y8498D03*
G01X43646Y8498D03*
G01X43646Y11038D03*
G01X43646Y13578D03*
G01X43646Y16118D03*
G01X43646Y18658D03*
G01X43646Y21198D03*
G01X43646Y23738D03*
G01X43646Y26278D03*
G01X43646Y28818D03*
G01X43646Y31358D03*
G01X23326Y33898D03*
G01X43646Y33898D03*
G54D24*
G01X51845Y3429D03*
G01X49305Y3429D03*
G36*
G01X45876Y2540D02*
G01X45876Y4318D01*
G01X47654Y4318D01*
G01X47654Y2540D01*
G01X45876Y2540D01*
G37*
G01X48416Y11557D03*
G01X48416Y14097D03*
G01X48416Y16637D03*
G01X48416Y19177D03*
G01X48416Y21717D03*
G36*
G01X47527Y23368D02*
G01X47527Y25146D01*
G01X49305Y25146D01*
G01X49305Y23368D01*
G01X47527Y23368D01*
G37*
G01X9935Y42291D03*
G01X9935Y39751D03*
G01X9935Y37211D03*
G01X9935Y34671D03*
G01X9935Y32131D03*
G36*
G01X9046Y28702D02*
G01X9046Y30480D01*
G01X10824Y30480D01*
G01X10824Y28702D01*
G01X9046Y28702D01*
G37*
G01X4601Y42291D03*
G01X4601Y39751D03*
G01X4601Y37211D03*
G01X4601Y34671D03*
G01X4601Y32131D03*
G36*
G01X3712Y28702D02*
G01X3712Y30480D01*
G01X5490Y30480D01*
G01X5490Y28702D01*
G01X3712Y28702D01*
G37*
G54D26*
G01X28604Y19431D03*
G01X38764Y19431D03*
G01X28533Y36703D03*
G01X38693Y36703D03*
G01X28350Y30988D03*
G01X38510Y30988D03*
G36*
G01X49432Y37465D02*
G01X49432Y39243D01*
G01X51210Y39243D01*
G01X51210Y37465D01*
G01X49432Y37465D01*
G37*
G54D24*
G01X50321Y35814D03*
G01X50321Y33274D03*
G01X50321Y30734D03*
G36*
G01X13364Y33782D02*
G01X13364Y35560D01*
G01X15142Y35560D01*
G01X15142Y33782D01*
G01X13364Y33782D01*
G37*
G01X14253Y37211D03*
G01X14253Y39751D03*
G01X14253Y42291D03*
G36*
G01X17936Y33782D02*
G01X17936Y35560D01*
G01X19714Y35560D01*
G01X19714Y33782D01*
G01X17936Y33782D01*
G37*
G01X18825Y37211D03*
G01X18825Y39751D03*
G01X18825Y42291D03*
G54D27*
G01X16285Y4445D03*
G01X16285Y1905D03*
G36*
G01X4982Y22860D02*
G01X4982Y24638D01*
G01X6760Y24638D01*
G01X6760Y22860D01*
G01X4982Y22860D01*
G37*
G54D24*
G01X5871Y21209D03*
G01X5871Y18669D03*
G01X5871Y16129D03*
G01X5871Y13589D03*
G01X5871Y11049D03*
G01X5871Y8509D03*
G01X5871Y5969D03*
M00*
M02*
