G04 Layer: TopLayer*
G04 EasyEDA v6.4.7, 2020-11-30T09:48:28+01:00*
G04 ec7fddcfb250444d8e3ff838e6161cd1,b786752bb5b344d598dffec7f8d735c0,10*
G04 Gerber Generator version 0.2*
G04 Scale: 100 percent, Rotated: No, Reflected: No *
G04 Dimensions in millimeters *
G04 leading zeros omitted , absolute positions ,3 integer and 3 decimal *
%FSLAX33Y33*%
%MOMM*%
G90*
D02*

%ADD11C,0.508000*%
%ADD12C,1.524000*%
%ADD13C,1.574800*%
%ADD14R,1.574800X1.574800*%
%ADD15C,1.879600*%
%ADD16C,1.651000*%

%LPD*%
G54D11*
G01X16285Y1905D02*
G01X10697Y1905D01*
G01X8665Y3937D01*
G01X8665Y11303D01*
G01X6379Y13589D01*
G01X5871Y13589D01*
G01X49305Y3429D02*
G01X47273Y1397D01*
G01X18063Y1397D01*
G01X17555Y1905D01*
G01X16285Y1905D01*
G01X4982Y21209D02*
G01X2442Y18669D01*
G01X2442Y15240D01*
G01X4093Y13589D01*
G01X5871Y13589D01*
G01X49305Y3429D02*
G01X49813Y3429D01*
G01X49813Y15240D01*
G01X48416Y16637D01*
G01X9935Y34671D02*
G01X4601Y34671D01*
G01X23326Y13578D02*
G01X35833Y13578D01*
G01X41812Y19558D01*
G01X41812Y21463D01*
G01X42828Y22479D01*
G01X44319Y22479D01*
G01X46128Y24381D01*
G01X52734Y30988D01*
G01X52734Y35941D01*
G01X50321Y38354D01*
G01X51845Y3429D02*
G01X51845Y7366D01*
G01X51083Y8128D01*
G01X51083Y16509D01*
G01X48416Y19177D01*
G01X4601Y39751D02*
G01X1553Y36703D01*
G01X1553Y22225D01*
G01X2569Y21209D01*
G01X5871Y21209D01*
G01X43646Y13578D02*
G01X47898Y13578D01*
G01X48416Y14097D01*
G01X43646Y11038D02*
G01X47898Y11038D01*
G01X48416Y11557D01*
G01X43646Y8498D02*
G01X43646Y7690D01*
G01X46765Y4572D01*
G01X46765Y3429D01*
G01X43646Y31358D02*
G01X38693Y36311D01*
G01X38693Y36703D01*
G01X43646Y31358D02*
G01X38764Y26476D01*
G01X38764Y19431D01*
G01X50321Y30734D02*
G01X43646Y24059D01*
G01X43646Y23738D01*
G01X50321Y33274D02*
G01X45866Y28818D01*
G01X43646Y28818D01*
G01X18825Y42291D02*
G01X14253Y42291D01*
G01X14253Y42291D02*
G01X9935Y42291D01*
G01X9935Y42291D02*
G01X4601Y42291D01*
G01X18825Y39751D02*
G01X14253Y39751D01*
G01X14253Y39751D02*
G01X9935Y39751D01*
G01X9935Y39751D02*
G01X4601Y39751D01*
G01X18825Y37211D02*
G01X14253Y37211D01*
G01X14253Y37211D02*
G01X9935Y37211D01*
G01X9935Y37211D02*
G01X4601Y37211D01*
G01X18825Y34671D02*
G01X14253Y34671D01*
G01X14253Y34671D02*
G01X9935Y34671D01*
G01X38693Y36703D02*
G01X30946Y44450D01*
G01X20857Y44450D01*
G01X18825Y42417D01*
G01X18825Y42291D01*
G01X9935Y29591D02*
G01X12729Y32385D01*
G01X22127Y32385D01*
G01X22381Y32639D01*
G01X25810Y32639D01*
G01X28533Y35362D01*
G01X28533Y36703D01*
G01X23326Y11038D02*
G01X20984Y13380D01*
G01X20984Y16256D01*
G01X22127Y17399D01*
G01X32541Y17399D01*
G01X37240Y22098D01*
G01X37240Y28321D01*
G01X38510Y29591D01*
G01X38510Y30988D01*
G01X23326Y33898D02*
G01X23326Y34869D01*
G01X18825Y39370D01*
G01X18825Y39751D01*
G01X28604Y19431D02*
G01X28096Y19939D01*
G01X21746Y19939D01*
G01X14253Y27432D01*
G01X6887Y27432D01*
G01X4728Y29591D01*
G01X4601Y29591D01*
G54D12*
G01X23326Y31358D03*
G01X23326Y28818D03*
G01X23326Y26278D03*
G01X23326Y23738D03*
G01X23326Y21198D03*
G01X23326Y18658D03*
G01X23326Y16118D03*
G01X23326Y13578D03*
G01X23326Y11038D03*
G01X23326Y8498D03*
G01X43646Y8498D03*
G01X43646Y11038D03*
G01X43646Y13578D03*
G01X43646Y16118D03*
G01X43646Y18658D03*
G01X43646Y21198D03*
G01X43646Y23738D03*
G01X43646Y26278D03*
G01X43646Y28818D03*
G01X43646Y31358D03*
G01X23326Y33898D03*
G01X43646Y33898D03*
G54D13*
G01X51845Y3429D03*
G01X49305Y3429D03*
G36*
G01X45977Y4216D02*
G01X47552Y4216D01*
G01X47552Y2641D01*
G01X45977Y2641D01*
G01X45977Y4216D01*
G37*
G01X48416Y11557D03*
G01X48416Y14097D03*
G01X48416Y16637D03*
G01X48416Y19177D03*
G01X48416Y21717D03*
G54D14*
G01X48416Y24257D03*
G54D13*
G01X9935Y42291D03*
G01X9935Y39751D03*
G01X9935Y37211D03*
G01X9935Y34671D03*
G01X9935Y32131D03*
G54D14*
G01X9935Y29591D03*
G54D13*
G01X4601Y42291D03*
G01X4601Y39751D03*
G01X4601Y37211D03*
G01X4601Y34671D03*
G01X4601Y32131D03*
G54D14*
G01X4601Y29591D03*
G54D15*
G01X28604Y19431D03*
G01X38764Y19431D03*
G01X28533Y36703D03*
G01X38693Y36703D03*
G01X28350Y30988D03*
G01X38510Y30988D03*
G54D14*
G01X50321Y38354D03*
G54D13*
G01X50321Y35814D03*
G01X50321Y33274D03*
G01X50321Y30734D03*
G54D14*
G01X14253Y34671D03*
G54D13*
G01X14253Y37211D03*
G01X14253Y39751D03*
G01X14253Y42291D03*
G54D14*
G01X18825Y34671D03*
G54D13*
G01X18825Y37211D03*
G01X18825Y39751D03*
G01X18825Y42291D03*
G54D16*
G01X16285Y4445D03*
G01X16285Y1905D03*
G54D14*
G01X5871Y23749D03*
G54D13*
G01X5871Y21209D03*
G01X5871Y18669D03*
G01X5871Y16129D03*
G01X5871Y13589D03*
G01X5871Y11049D03*
G01X5871Y8509D03*
G01X5871Y5969D03*
M00*
M02*
