;Layer: Drill PTH
;EasyEDA v6.4.7, 2020-11-30T09:48:28+01:00
;ec7fddcfb250444d8e3ff838e6161cd1,b786752bb5b344d598dffec7f8d735c0,10
;Gerber Generator version 0.2
M48
METRIC,LZ,000.000
;Holesize 1 = 0.889 METRIC
T01C0.889
;Holesize 2 = 0.900 METRIC
T02C0.900
;Holesize 3 = 0.901 METRIC
T03C0.901
;Holesize 4 = 0.915 METRIC
T04C0.915
%
G05
G90
T01
X+051845Y+003429
X+049305Y+003429
X+046765Y+003429
X+048416Y+011557
X+048416Y+014097
X+048416Y+016637
X+048416Y+019177
X+048416Y+021717
X+048416Y+024257
X+009935Y+042291
X+009935Y+039751
X+009935Y+037211
X+009935Y+034671
X+009935Y+032131
X+009935Y+029591
X+004601Y+042291
X+004601Y+039751
X+004601Y+037211
X+004601Y+034671
X+004601Y+032131
X+004601Y+029591
X+050321Y+038354
X+050321Y+035814
X+050321Y+033274
X+050321Y+030734
X+014253Y+034671
X+014253Y+037211
X+014253Y+039751
X+014253Y+042291
X+018825Y+034671
X+018825Y+037211
X+018825Y+039751
X+018825Y+042291
X+005871Y+023749
X+005871Y+021209
X+005871Y+018669
X+005871Y+016129
X+005871Y+013589
X+005871Y+011049
X+005871Y+008509
X+005871Y+005969
T02
X+028604Y+019431
X+038764Y+019431
X+028533Y+036703
X+038693Y+036703
X+028350Y+030988
X+038510Y+030988
T03
X+016285Y+004445
X+016285Y+001905
T04
X+023326Y+031358
X+023326Y+028818
X+023326Y+026278
X+023326Y+023738
X+023326Y+021198
X+023326Y+018658
X+023326Y+016118
X+023326Y+013578
X+023326Y+011038
X+023326Y+008498
X+043646Y+008498
X+043646Y+011038
X+043646Y+013578
X+043646Y+016118
X+043646Y+018658
X+043646Y+021198
X+043646Y+023738
X+043646Y+026278
X+043646Y+028818
X+043646Y+031358
X+023326Y+033898
X+043646Y+033898
M30
