G04 Layer: TopSilkLayer*
G04 EasyEDA v6.4.7, 2020-11-30T09:48:28+01:00*
G04 ec7fddcfb250444d8e3ff838e6161cd1,b786752bb5b344d598dffec7f8d735c0,10*
G04 Gerber Generator version 0.2*
G04 Scale: 100 percent, Rotated: No, Reflected: No *
G04 Dimensions in millimeters *
G04 leading zeros omitted , absolute positions ,3 integer and 3 decimal *
%FSLAX33Y33*%
%MOMM*%
G90*
D02*

%ADD17C,0.203200*%
%ADD18C,0.202999*%
%ADD19C,0.254000*%
%ADD20C,0.100000*%
%ADD21C,0.076200*%
%ADD22C,0.152400*%

%LPD*%

%LPD*%
G36*
G01X44617Y47138D02*
G01X44495Y47138D01*
G01X44394Y47137D01*
G01X44309Y47132D01*
G01X44250Y47125D01*
G01X44225Y47117D01*
G01X44217Y47090D01*
G01X44205Y47034D01*
G01X44190Y46957D01*
G01X44175Y46867D01*
G01X44158Y46776D01*
G01X44139Y46696D01*
G01X44120Y46636D01*
G01X44104Y46604D01*
G01X44077Y46586D01*
G01X44031Y46563D01*
G01X43972Y46538D01*
G01X43906Y46514D01*
G01X43743Y46459D01*
G01X43545Y46595D01*
G01X43466Y46648D01*
G01X43397Y46691D01*
G01X43346Y46721D01*
G01X43319Y46731D01*
G01X43293Y46717D01*
G01X43247Y46680D01*
G01X43188Y46626D01*
G01X43123Y46564D01*
G01X43061Y46500D01*
G01X43007Y46441D01*
G01X42970Y46395D01*
G01X42956Y46369D01*
G01X42966Y46342D01*
G01X42995Y46293D01*
G01X43036Y46227D01*
G01X43087Y46152D01*
G01X43137Y46076D01*
G01X43179Y46007D01*
G01X43206Y45952D01*
G01X43216Y45920D01*
G01X43209Y45889D01*
G01X43191Y45840D01*
G01X43166Y45780D01*
G01X43135Y45714D01*
G01X43057Y45555D01*
G01X42868Y45519D01*
G01X42787Y45504D01*
G01X42721Y45491D01*
G01X42669Y45480D01*
G01X42628Y45469D01*
G01X42597Y45456D01*
G01X42576Y45440D01*
G01X42561Y45419D01*
G01X42553Y45391D01*
G01X42549Y45357D01*
G01X42548Y45313D01*
G01X42548Y45258D01*
G01X42549Y45191D01*
G01X42548Y45124D01*
G01X42548Y45069D01*
G01X42549Y45025D01*
G01X42553Y44990D01*
G01X42561Y44963D01*
G01X42575Y44942D01*
G01X42597Y44926D01*
G01X42627Y44913D01*
G01X42669Y44902D01*
G01X42721Y44890D01*
G01X42787Y44878D01*
G01X42868Y44862D01*
G01X43057Y44825D01*
G01X43221Y44429D01*
G01X43103Y44261D01*
G01X43045Y44177D01*
G01X43004Y44113D01*
G01X42979Y44062D01*
G01X42972Y44019D01*
G01X42982Y43980D01*
G01X43009Y43937D01*
G01X43055Y43886D01*
G01X43118Y43822D01*
G01X43186Y43755D01*
G01X43247Y43701D01*
G01X43293Y43664D01*
G01X43318Y43650D01*
G01X43344Y43661D01*
G01X43393Y43689D01*
G01X43459Y43730D01*
G01X43533Y43780D01*
G01X43639Y43852D01*
G01X43704Y43886D01*
G01X43751Y43888D01*
G01X43801Y43867D01*
G01X43835Y43851D01*
G01X43867Y43837D01*
G01X43893Y43828D01*
G01X43910Y43824D01*
G01X43918Y43833D01*
G01X43932Y43857D01*
G01X43952Y43895D01*
G01X43976Y43944D01*
G01X44003Y44002D01*
G01X44033Y44068D01*
G01X44065Y44138D01*
G01X44097Y44211D01*
G01X44128Y44285D01*
G01X44158Y44358D01*
G01X44187Y44427D01*
G01X44212Y44490D01*
G01X44233Y44545D01*
G01X44249Y44590D01*
G01X44260Y44623D01*
G01X44264Y44642D01*
G01X44253Y44662D01*
G01X44226Y44697D01*
G01X44185Y44742D01*
G01X44136Y44791D01*
G01X44086Y44844D01*
G01X44045Y44899D01*
G01X44011Y44957D01*
G01X43985Y45016D01*
G01X43967Y45077D01*
G01X43956Y45139D01*
G01X43954Y45202D01*
G01X43959Y45264D01*
G01X43973Y45326D01*
G01X43994Y45388D01*
G01X44023Y45448D01*
G01X44060Y45507D01*
G01X44094Y45548D01*
G01X44130Y45585D01*
G01X44168Y45618D01*
G01X44208Y45646D01*
G01X44249Y45669D01*
G01X44293Y45688D01*
G01X44336Y45703D01*
G01X44382Y45714D01*
G01X44427Y45721D01*
G01X44472Y45723D01*
G01X44518Y45722D01*
G01X44563Y45717D01*
G01X44608Y45708D01*
G01X44652Y45696D01*
G01X44695Y45680D01*
G01X44736Y45661D01*
G01X44776Y45638D01*
G01X44813Y45612D01*
G01X44849Y45583D01*
G01X44882Y45551D01*
G01X44912Y45516D01*
G01X44939Y45478D01*
G01X44962Y45437D01*
G01X44982Y45393D01*
G01X44998Y45347D01*
G01X45010Y45298D01*
G01X45017Y45248D01*
G01X45020Y45194D01*
G01X45017Y45128D01*
G01X45008Y45066D01*
G01X44994Y45009D01*
G01X44973Y44955D01*
G01X44945Y44904D01*
G01X44910Y44854D01*
G01X44867Y44805D01*
G01X44815Y44755D01*
G01X44703Y44653D01*
G01X44872Y44247D01*
G01X44907Y44166D01*
G01X44940Y44089D01*
G01X44972Y44019D01*
G01X45001Y43957D01*
G01X45026Y43906D01*
G01X45047Y43867D01*
G01X45063Y43841D01*
G01X45072Y43831D01*
G01X45091Y43830D01*
G01X45118Y43836D01*
G01X45150Y43848D01*
G01X45184Y43863D01*
G01X45233Y43884D01*
G01X45282Y43880D01*
G01X45354Y43843D01*
G01X45472Y43765D01*
G01X45679Y43625D01*
G01X45858Y43805D01*
G01X45927Y43877D01*
G01X45984Y43939D01*
G01X46023Y43985D01*
G01X46037Y44007D01*
G01X46026Y44031D01*
G01X45997Y44082D01*
G01X45955Y44151D01*
G01X45902Y44231D01*
G01X45768Y44433D01*
G01X45834Y44601D01*
G01X45865Y44677D01*
G01X45891Y44734D01*
G01X45915Y44777D01*
G01X45943Y44807D01*
G01X45976Y44828D01*
G01X46018Y44844D01*
G01X46074Y44856D01*
G01X46147Y44869D01*
G01X46220Y44881D01*
G01X46280Y44891D01*
G01X46329Y44902D01*
G01X46366Y44912D01*
G01X46395Y44924D01*
G01X46416Y44941D01*
G01X46429Y44962D01*
G01X46438Y44990D01*
G01X46442Y45026D01*
G01X46444Y45070D01*
G01X46444Y45259D01*
G01X46445Y45313D01*
G01X46444Y45357D01*
G01X46440Y45392D01*
G01X46431Y45419D01*
G01X46417Y45440D01*
G01X46395Y45455D01*
G01X46365Y45469D01*
G01X46324Y45479D01*
G01X46271Y45490D01*
G01X46205Y45503D01*
G01X46124Y45518D01*
G01X45935Y45554D01*
G01X45856Y45714D01*
G01X45825Y45780D01*
G01X45800Y45841D01*
G01X45783Y45891D01*
G01X45776Y45923D01*
G01X45786Y45957D01*
G01X45814Y46013D01*
G01X45855Y46083D01*
G01X45906Y46160D01*
G01X45957Y46235D01*
G01X45998Y46300D01*
G01X46026Y46348D01*
G01X46037Y46373D01*
G01X46023Y46397D01*
G01X45986Y46441D01*
G01X45932Y46501D01*
G01X45865Y46569D01*
G01X45801Y46632D01*
G01X45751Y46677D01*
G01X45709Y46705D01*
G01X45669Y46715D01*
G01X45627Y46708D01*
G01X45576Y46684D01*
G01X45512Y46644D01*
G01X45427Y46587D01*
G01X45360Y46541D01*
G01X45307Y46508D01*
G01X45262Y46488D01*
G01X45222Y46477D01*
G01X45182Y46478D01*
G01X45136Y46490D01*
G01X45082Y46510D01*
G01X45013Y46540D01*
G01X44854Y46611D01*
G01X44817Y46836D01*
G01X44806Y46910D01*
G01X44796Y46971D01*
G01X44786Y47019D01*
G01X44776Y47058D01*
G01X44763Y47087D01*
G01X44746Y47108D01*
G01X44725Y47123D01*
G01X44697Y47132D01*
G01X44661Y47136D01*
G01X44617Y47138D01*
G37*

%LPC*%
G36*
G01X44666Y47022D02*
G01X44493Y47022D01*
G01X44418Y47019D01*
G01X44361Y47013D01*
G01X44325Y47001D01*
G01X44309Y46985D01*
G01X44302Y46956D01*
G01X44291Y46905D01*
G01X44278Y46837D01*
G01X44264Y46760D01*
G01X44249Y46687D01*
G01X44235Y46628D01*
G01X44220Y46583D01*
G01X44201Y46547D01*
G01X44178Y46518D01*
G01X44148Y46494D01*
G01X44110Y46472D01*
G01X44062Y46451D01*
G01X43989Y46420D01*
G01X43928Y46394D01*
G01X43878Y46374D01*
G01X43835Y46360D01*
G01X43798Y46352D01*
G01X43764Y46350D01*
G01X43733Y46354D01*
G01X43701Y46365D01*
G01X43666Y46381D01*
G01X43627Y46404D01*
G01X43581Y46433D01*
G01X43527Y46469D01*
G01X43311Y46610D01*
G01X43189Y46485D01*
G01X43066Y46360D01*
G01X43200Y46161D01*
G01X43252Y46081D01*
G01X43294Y46010D01*
G01X43323Y45956D01*
G01X43334Y45927D01*
G01X43327Y45890D01*
G01X43309Y45835D01*
G01X43282Y45768D01*
G01X43250Y45695D01*
G01X43215Y45622D01*
G01X43181Y45558D01*
G01X43151Y45508D01*
G01X43127Y45478D01*
G01X43095Y45457D01*
G01X43049Y45438D01*
G01X42993Y45421D01*
G01X42935Y45410D01*
G01X42842Y45396D01*
G01X42774Y45385D01*
G01X42725Y45372D01*
G01X42694Y45354D01*
G01X42676Y45329D01*
G01X42668Y45293D01*
G01X42665Y45243D01*
G01X42665Y44993D01*
G01X42859Y44959D01*
G01X42938Y44944D01*
G01X43010Y44928D01*
G01X43067Y44913D01*
G01X43101Y44900D01*
G01X43125Y44874D01*
G01X43157Y44821D01*
G01X43192Y44751D01*
G01X43228Y44669D01*
G01X43261Y44586D01*
G01X43289Y44507D01*
G01X43307Y44442D01*
G01X43312Y44399D01*
G01X43301Y44366D01*
G01X43274Y44314D01*
G01X43235Y44250D01*
G01X43189Y44182D01*
G01X43070Y44016D01*
G01X43330Y43756D01*
G01X43513Y43879D01*
G01X43620Y43947D01*
G01X43695Y43979D01*
G01X43758Y43981D01*
G01X43830Y43957D01*
G01X43845Y43955D01*
G01X43859Y43962D01*
G01X43876Y43980D01*
G01X43895Y44009D01*
G01X43918Y44052D01*
G01X43945Y44110D01*
G01X43977Y44184D01*
G01X44015Y44276D01*
G01X44154Y44615D01*
G01X44066Y44695D01*
G01X44022Y44739D01*
G01X43984Y44786D01*
G01X43950Y44835D01*
G01X43922Y44886D01*
G01X43898Y44940D01*
G01X43880Y44994D01*
G01X43866Y45050D01*
G01X43857Y45106D01*
G01X43853Y45163D01*
G01X43854Y45220D01*
G01X43860Y45276D01*
G01X43871Y45331D01*
G01X43886Y45386D01*
G01X43907Y45439D01*
G01X43932Y45490D01*
G01X43962Y45539D01*
G01X43996Y45585D01*
G01X44036Y45629D01*
G01X44079Y45669D01*
G01X44128Y45705D01*
G01X44172Y45733D01*
G01X44216Y45757D01*
G01X44261Y45777D01*
G01X44305Y45793D01*
G01X44350Y45806D01*
G01X44393Y45816D01*
G01X44436Y45822D01*
G01X44480Y45824D01*
G01X44522Y45824D01*
G01X44564Y45821D01*
G01X44605Y45814D01*
G01X44645Y45805D01*
G01X44684Y45794D01*
G01X44723Y45779D01*
G01X44760Y45763D01*
G01X44796Y45743D01*
G01X44831Y45722D01*
G01X44864Y45699D01*
G01X44896Y45673D01*
G01X44926Y45646D01*
G01X44955Y45617D01*
G01X44981Y45586D01*
G01X45007Y45554D01*
G01X45030Y45520D01*
G01X45051Y45485D01*
G01X45070Y45449D01*
G01X45087Y45412D01*
G01X45101Y45374D01*
G01X45113Y45334D01*
G01X45122Y45294D01*
G01X45129Y45254D01*
G01X45133Y45213D01*
G01X45135Y45171D01*
G01X45133Y45129D01*
G01X45129Y45087D01*
G01X45121Y45045D01*
G01X45110Y45003D01*
G01X45097Y44961D01*
G01X45079Y44919D01*
G01X45059Y44878D01*
G01X45035Y44837D01*
G01X45007Y44797D01*
G01X44975Y44757D01*
G01X44940Y44719D01*
G01X44834Y44610D01*
G01X44932Y44370D01*
G01X44973Y44269D01*
G01X45013Y44173D01*
G01X45068Y44038D01*
G01X45091Y43987D01*
G01X45113Y43963D01*
G01X45142Y43962D01*
G01X45190Y43977D01*
G01X45242Y43991D01*
G01X45293Y43984D01*
G01X45362Y43950D01*
G01X45469Y43883D01*
G01X45662Y43757D01*
G01X45916Y44007D01*
G01X45783Y44206D01*
G01X45650Y44406D01*
G01X45731Y44617D01*
G01X45766Y44702D01*
G01X45801Y44779D01*
G01X45831Y44839D01*
G01X45853Y44874D01*
G01X45886Y44896D01*
G01X45944Y44918D01*
G01X46021Y44940D01*
G01X46111Y44958D01*
G01X46328Y44995D01*
G01X46328Y45358D01*
G01X46132Y45395D01*
G01X46051Y45411D01*
G01X45977Y45428D01*
G01X45918Y45445D01*
G01X45882Y45458D01*
G01X45856Y45483D01*
G01X45823Y45531D01*
G01X45786Y45595D01*
G01X45749Y45668D01*
G01X45714Y45744D01*
G01X45686Y45816D01*
G01X45666Y45878D01*
G01X45659Y45923D01*
G01X45669Y45960D01*
G01X45696Y46018D01*
G01X45736Y46088D01*
G01X45785Y46162D01*
G01X45911Y46342D01*
G01X45789Y46478D01*
G01X45666Y46613D01*
G01X45503Y46499D01*
G01X45416Y46438D01*
G01X45348Y46393D01*
G01X45294Y46364D01*
G01X45248Y46350D01*
G01X45203Y46349D01*
G01X45153Y46360D01*
G01X45090Y46382D01*
G01X45009Y46415D01*
G01X44929Y46448D01*
G01X44868Y46478D01*
G01X44823Y46508D01*
G01X44789Y46544D01*
G01X44764Y46592D01*
G01X44742Y46656D01*
G01X44722Y46742D01*
G01X44700Y46855D01*
G01X44666Y47022D01*
G37*

%LPD*%
G36*
G01X43276Y43226D02*
G01X43214Y43239D01*
G01X43152Y43223D01*
G01X43086Y43177D01*
G01X43052Y43138D01*
G01X43027Y43090D01*
G01X43011Y43034D01*
G01X43004Y42975D01*
G01X43006Y42916D01*
G01X43018Y42859D01*
G01X43038Y42809D01*
G01X43069Y42768D01*
G01X43136Y42727D01*
G01X43221Y42709D01*
G01X43307Y42716D01*
G01X43376Y42748D01*
G01X43402Y42784D01*
G01X43388Y42809D01*
G01X43339Y42821D01*
G01X43259Y42815D01*
G01X43211Y42811D01*
G01X43177Y42816D01*
G01X43152Y42832D01*
G01X43132Y42861D01*
G01X43117Y42896D01*
G01X43126Y42915D01*
G01X43170Y42922D01*
G01X43260Y42923D01*
G01X43421Y42923D01*
G01X43421Y43023D01*
G01X43417Y43072D01*
G01X43404Y43113D01*
G01X43380Y43150D01*
G01X43344Y43183D01*
G01X43276Y43226D01*
G37*

%LPC*%
G36*
G01X43271Y43107D02*
G01X43227Y43125D01*
G01X43180Y43120D01*
G01X43136Y43092D01*
G01X43106Y43054D01*
G01X43109Y43029D01*
G01X43146Y43014D01*
G01X43218Y43010D01*
G01X43281Y43012D01*
G01X43313Y43019D01*
G01X43318Y43037D01*
G01X43305Y43069D01*
G01X43271Y43107D01*
G37*

%LPD*%
G36*
G01X46394Y43224D02*
G01X46342Y43229D01*
G01X46290Y43223D01*
G01X46240Y43206D01*
G01X46194Y43171D01*
G01X46158Y43122D01*
G01X46135Y43063D01*
G01X46122Y42997D01*
G01X46121Y42929D01*
G01X46134Y42863D01*
G01X46158Y42803D01*
G01X46196Y42752D01*
G01X46239Y42724D01*
G01X46294Y42710D01*
G01X46354Y42708D01*
G01X46412Y42717D01*
G01X46463Y42735D01*
G01X46498Y42760D01*
G01X46512Y42791D01*
G01X46498Y42826D01*
G01X46481Y42843D01*
G01X46465Y42850D01*
G01X46449Y42848D01*
G01X46433Y42837D01*
G01X46383Y42809D01*
G01X46326Y42809D01*
G01X46273Y42833D01*
G01X46235Y42881D01*
G01X46218Y42938D01*
G01X46219Y42993D01*
G01X46235Y43042D01*
G01X46261Y43083D01*
G01X46297Y43113D01*
G01X46338Y43127D01*
G01X46383Y43124D01*
G01X46427Y43099D01*
G01X46447Y43087D01*
G01X46464Y43084D01*
G01X46481Y43091D01*
G01X46498Y43108D01*
G01X46512Y43138D01*
G01X46504Y43167D01*
G01X46479Y43192D01*
G01X46441Y43212D01*
G01X46394Y43224D01*
G37*

%LPD*%
G36*
G01X44476Y43234D02*
G01X44423Y43240D01*
G01X44378Y43228D01*
G01X44328Y43198D01*
G01X44301Y43173D01*
G01X44280Y43142D01*
G01X44268Y43107D01*
G01X44264Y43069D01*
G01X44271Y43009D01*
G01X44297Y42969D01*
G01X44350Y42943D01*
G01X44437Y42924D01*
G01X44480Y42914D01*
G01X44513Y42901D01*
G01X44533Y42884D01*
G01X44540Y42865D01*
G01X44516Y42831D01*
G01X44458Y42813D01*
G01X44390Y42815D01*
G01X44333Y42839D01*
G01X44285Y42859D01*
G01X44252Y42844D01*
G01X44245Y42805D01*
G01X44273Y42756D01*
G01X44305Y42733D01*
G01X44346Y42717D01*
G01X44393Y42708D01*
G01X44442Y42706D01*
G01X44492Y42711D01*
G01X44540Y42723D01*
G01X44582Y42743D01*
G01X44616Y42769D01*
G01X44658Y42836D01*
G01X44662Y42905D01*
G01X44631Y42963D01*
G01X44568Y42996D01*
G01X44534Y43002D01*
G01X44495Y43010D01*
G01X44456Y43019D01*
G01X44422Y43026D01*
G01X44363Y43050D01*
G01X44362Y43078D01*
G01X44409Y43102D01*
G01X44496Y43112D01*
G01X44587Y43121D01*
G01X44629Y43144D01*
G01X44618Y43176D01*
G01X44551Y43210D01*
G01X44476Y43234D01*
G37*

%LPD*%
G36*
G01X42257Y43228D02*
G01X42216Y43238D01*
G01X42176Y43233D01*
G01X42122Y43214D01*
G01X42067Y43180D01*
G01X42028Y43127D01*
G01X42004Y43056D01*
G01X41996Y42967D01*
G01X42002Y42896D01*
G01X42019Y42834D01*
G01X42047Y42783D01*
G01X42082Y42743D01*
G01X42125Y42716D01*
G01X42175Y42702D01*
G01X42230Y42704D01*
G01X42289Y42720D01*
G01X42330Y42744D01*
G01X42365Y42776D01*
G01X42392Y42814D01*
G01X42413Y42858D01*
G01X42426Y42906D01*
G01X42433Y42955D01*
G01X42432Y43005D01*
G01X42423Y43053D01*
G01X42407Y43099D01*
G01X42384Y43139D01*
G01X42353Y43174D01*
G01X42314Y43200D01*
G01X42257Y43228D01*
G37*

%LPC*%
G36*
G01X42251Y43111D02*
G01X42208Y43125D01*
G01X42165Y43124D01*
G01X42132Y43107D01*
G01X42112Y43046D01*
G01X42112Y42952D01*
G01X42130Y42864D01*
G01X42160Y42816D01*
G01X42201Y42811D01*
G01X42239Y42825D01*
G01X42271Y42855D01*
G01X42297Y42896D01*
G01X42312Y42943D01*
G01X42318Y42994D01*
G01X42309Y43042D01*
G01X42285Y43085D01*
G01X42251Y43111D01*
G37*

%LPD*%
G36*
G01X46821Y43228D02*
G01X46780Y43238D01*
G01X46739Y43233D01*
G01X46683Y43213D01*
G01X46633Y43177D01*
G01X46594Y43120D01*
G01X46569Y43044D01*
G01X46561Y42958D01*
G01X46568Y42889D01*
G01X46588Y42829D01*
G01X46619Y42780D01*
G01X46659Y42741D01*
G01X46708Y42715D01*
G01X46762Y42701D01*
G01X46821Y42703D01*
G01X46882Y42721D01*
G01X46945Y42758D01*
G01X46954Y42790D01*
G01X46911Y42813D01*
G01X46820Y42821D01*
G01X46758Y42824D01*
G01X46717Y42832D01*
G01X46693Y42848D01*
G01X46682Y42872D01*
G01X46683Y42899D01*
G01X46701Y42914D01*
G01X46744Y42921D01*
G01X46818Y42923D01*
G01X46876Y42925D01*
G01X46926Y42931D01*
G01X46962Y42939D01*
G01X46980Y42949D01*
G01X46991Y43009D01*
G01X46973Y43082D01*
G01X46932Y43153D01*
G01X46877Y43201D01*
G01X46821Y43228D01*
G37*

%LPC*%
G36*
G01X46830Y43125D02*
G01X46781Y43126D01*
G01X46729Y43120D01*
G01X46696Y43107D01*
G01X46673Y43070D01*
G01X46682Y43039D01*
G01X46719Y43018D01*
G01X46781Y43010D01*
G01X46832Y43012D01*
G01X46862Y43019D01*
G01X46873Y43034D01*
G01X46869Y43057D01*
G01X46862Y43075D01*
G01X46856Y43093D01*
G01X46852Y43106D01*
G01X46851Y43114D01*
G01X46830Y43125D01*
G37*

%LPD*%
G36*
G01X44999Y43226D02*
G01X44960Y43234D01*
G01X44918Y43233D01*
G01X44874Y43222D01*
G01X44807Y43187D01*
G01X44761Y43137D01*
G01X44737Y43068D01*
G01X44729Y42975D01*
G01X44732Y42918D01*
G01X44742Y42867D01*
G01X44757Y42821D01*
G01X44778Y42782D01*
G01X44803Y42750D01*
G01X44832Y42725D01*
G01X44865Y42708D01*
G01X44900Y42698D01*
G01X44937Y42697D01*
G01X44976Y42705D01*
G01X45017Y42722D01*
G01X45057Y42749D01*
G01X45092Y42783D01*
G01X45120Y42821D01*
G01X45139Y42862D01*
G01X45152Y42906D01*
G01X45157Y42950D01*
G01X45156Y42996D01*
G01X45149Y43039D01*
G01X45135Y43081D01*
G01X45117Y43121D01*
G01X45094Y43156D01*
G01X45066Y43186D01*
G01X45034Y43209D01*
G01X44999Y43226D01*
G37*

%LPC*%
G36*
G01X44983Y43111D02*
G01X44940Y43125D01*
G01X44898Y43124D01*
G01X44865Y43107D01*
G01X44844Y43046D01*
G01X44844Y42952D01*
G01X44862Y42864D01*
G01X44893Y42816D01*
G01X44934Y42811D01*
G01X44972Y42825D01*
G01X45004Y42855D01*
G01X45029Y42896D01*
G01X45045Y42943D01*
G01X45050Y42994D01*
G01X45041Y43042D01*
G01X45018Y43085D01*
G01X44983Y43111D01*
G37*

%LPD*%
G36*
G01X46037Y43237D02*
G01X46022Y43237D01*
G01X46003Y43235D01*
G01X45970Y43231D01*
G01X45929Y43227D01*
G01X45884Y43222D01*
G01X45775Y43210D01*
G01X45775Y42948D01*
G01X45777Y42809D01*
G01X45784Y42731D01*
G01X45799Y42699D01*
G01X45826Y42696D01*
G01X45852Y42710D01*
G01X45870Y42744D01*
G01X45882Y42808D01*
G01X45892Y42909D01*
G01X45901Y43023D01*
G01X45915Y43083D01*
G01X45938Y43107D01*
G01X45979Y43112D01*
G01X46039Y43124D01*
G01X46084Y43154D01*
G01X46103Y43189D01*
G01X46085Y43221D01*
G01X46070Y43229D01*
G01X46053Y43234D01*
G01X46037Y43237D01*
G37*

%LPD*%
G36*
G01X43776Y43238D02*
G01X43733Y43238D01*
G01X43688Y43218D01*
G01X43667Y43209D01*
G01X43639Y43205D01*
G01X43608Y43204D01*
G01X43577Y43207D01*
G01X43506Y43221D01*
G01X43514Y42964D01*
G01X43520Y42831D01*
G01X43530Y42751D01*
G01X43547Y42711D01*
G01X43573Y42696D01*
G01X43600Y42697D01*
G01X43615Y42721D01*
G01X43623Y42776D01*
G01X43624Y42874D01*
G01X43627Y42946D01*
G01X43633Y43006D01*
G01X43644Y43055D01*
G01X43660Y43090D01*
G01X43680Y43113D01*
G01X43704Y43124D01*
G01X43733Y43122D01*
G01X43765Y43107D01*
G01X43788Y43083D01*
G01X43804Y43040D01*
G01X43815Y42975D01*
G01X43822Y42882D01*
G01X43828Y42782D01*
G01X43838Y42724D01*
G01X43854Y42699D01*
G01X43880Y42696D01*
G01X43905Y42710D01*
G01X43921Y42743D01*
G01X43931Y42804D01*
G01X43938Y42902D01*
G01X43941Y43009D01*
G01X43933Y43077D01*
G01X43913Y43126D01*
G01X43874Y43170D01*
G01X43822Y43216D01*
G01X43776Y43238D01*
G37*

%LPD*%
G36*
G01X45317Y43206D02*
G01X45296Y43214D01*
G01X45274Y43204D01*
G01X45261Y43170D01*
G01X45254Y43104D01*
G01X45252Y42997D01*
G01X45254Y42877D01*
G01X45263Y42805D01*
G01X45286Y42763D01*
G01X45326Y42731D01*
G01X45366Y42709D01*
G01X45399Y42698D01*
G01X45433Y42701D01*
G01X45470Y42715D01*
G01X45501Y42726D01*
G01X45527Y42731D01*
G01X45546Y42728D01*
G01X45558Y42719D01*
G01X45568Y42708D01*
G01X45582Y42699D01*
G01X45600Y42693D01*
G01X45617Y42691D01*
G01X45638Y42702D01*
G01X45650Y42743D01*
G01X45657Y42823D01*
G01X45659Y42952D01*
G01X45658Y43095D01*
G01X45650Y43173D01*
G01X45633Y43207D01*
G01X45602Y43214D01*
G01X45572Y43207D01*
G01X45553Y43181D01*
G01X45543Y43121D01*
G01X45537Y43018D01*
G01X45530Y42916D01*
G01X45519Y42855D01*
G01X45501Y42824D01*
G01X45472Y42811D01*
G01X45416Y42819D01*
G01X45374Y42865D01*
G01X45348Y42945D01*
G01X45339Y43060D01*
G01X45337Y43133D01*
G01X45330Y43181D01*
G01X45317Y43206D01*
G37*

%LPD*%
G36*
G01X45377Y42397D02*
G01X45326Y42400D01*
G01X45276Y42398D01*
G01X45229Y42390D01*
G01X45191Y42376D01*
G01X45165Y42357D01*
G01X45145Y42329D01*
G01X45153Y42313D01*
G01X45203Y42306D01*
G01X45310Y42302D01*
G01X45356Y42297D01*
G01X45389Y42287D01*
G01X45410Y42271D01*
G01X45421Y42247D01*
G01X45421Y42222D01*
G01X45409Y42207D01*
G01X45381Y42199D01*
G01X45333Y42197D01*
G01X45265Y42189D01*
G01X45208Y42170D01*
G01X45161Y42140D01*
G01X45128Y42102D01*
G01X45110Y42059D01*
G01X45108Y42014D01*
G01X45124Y41968D01*
G01X45160Y41925D01*
G01X45192Y41903D01*
G01X45236Y41890D01*
G01X45295Y41884D01*
G01X45370Y41885D01*
G01X45528Y41892D01*
G01X45528Y42098D01*
G01X45526Y42189D01*
G01X45518Y42263D01*
G01X45505Y42318D01*
G01X45488Y42352D01*
G01X45462Y42372D01*
G01X45423Y42388D01*
G01X45377Y42397D01*
G37*

%LPC*%
G36*
G01X45403Y42095D02*
G01X45348Y42109D01*
G01X45287Y42108D01*
G01X45243Y42090D01*
G01X45224Y42059D01*
G01X45226Y42026D01*
G01X45246Y41998D01*
G01X45283Y41978D01*
G01X45332Y41975D01*
G01X45379Y41992D01*
G01X45413Y42026D01*
G01X45426Y42069D01*
G01X45403Y42095D01*
G37*

%LPD*%
G36*
G01X43316Y42384D02*
G01X43230Y42398D01*
G01X43141Y42395D01*
G01X43073Y42372D01*
G01X43046Y42344D01*
G01X43059Y42320D01*
G01X43105Y42304D01*
G01X43183Y42298D01*
G01X43232Y42296D01*
G01X43267Y42287D01*
G01X43288Y42271D01*
G01X43298Y42247D01*
G01X43299Y42223D01*
G01X43289Y42207D01*
G01X43265Y42199D01*
G01X43226Y42197D01*
G01X43141Y42183D01*
G01X43074Y42147D01*
G01X43030Y42091D01*
G01X43013Y42021D01*
G01X43027Y41954D01*
G01X43070Y41910D01*
G01X43149Y41888D01*
G01X43271Y41883D01*
G01X43421Y41887D01*
G01X43421Y42097D01*
G01X43418Y42198D01*
G01X43410Y42271D01*
G01X43396Y42321D01*
G01X43375Y42354D01*
G01X43316Y42384D01*
G37*

%LPC*%
G36*
G01X43274Y42106D02*
G01X43241Y42109D01*
G01X43170Y42101D01*
G01X43126Y42080D01*
G01X43112Y42048D01*
G01X43129Y42008D01*
G01X43178Y41975D01*
G01X43231Y41971D01*
G01X43276Y41995D01*
G01X43299Y42044D01*
G01X43300Y42076D01*
G01X43293Y42096D01*
G01X43274Y42106D01*
G37*

%LPD*%
G36*
G01X45871Y42394D02*
G01X45803Y42394D01*
G01X45628Y42392D01*
G01X45636Y42142D01*
G01X45642Y42013D01*
G01X45653Y41936D01*
G01X45669Y41896D01*
G01X45695Y41882D01*
G01X45722Y41884D01*
G01X45737Y41907D01*
G01X45744Y41962D01*
G01X45747Y42060D01*
G01X45754Y42184D01*
G01X45778Y42267D01*
G01X45818Y42306D01*
G01X45873Y42304D01*
G01X45907Y42303D01*
G01X45941Y42318D01*
G01X45968Y42344D01*
G01X45979Y42375D01*
G01X45965Y42383D01*
G01X45927Y42390D01*
G01X45871Y42394D01*
G37*

%LPD*%
G36*
G01X42796Y43218D02*
G01X42723Y43226D01*
G01X42628Y43221D01*
G01X42520Y43210D01*
G01X42520Y42276D01*
G01X42521Y42175D01*
G01X42522Y42092D01*
G01X42524Y42026D01*
G01X42527Y41976D01*
G01X42531Y41937D01*
G01X42536Y41911D01*
G01X42543Y41894D01*
G01X42550Y41885D01*
G01X42559Y41882D01*
G01X42570Y41882D01*
G01X42596Y41895D01*
G01X42613Y41928D01*
G01X42623Y41988D01*
G01X42630Y42085D01*
G01X42636Y42174D01*
G01X42646Y42237D01*
G01X42661Y42276D01*
G01X42681Y42295D01*
G01X42741Y42305D01*
G01X42781Y42277D01*
G01X42805Y42206D01*
G01X42816Y42085D01*
G01X42822Y41988D01*
G01X42833Y41928D01*
G01X42850Y41895D01*
G01X42876Y41882D01*
G01X42902Y41884D01*
G01X42918Y41911D01*
G01X42925Y41975D01*
G01X42927Y42088D01*
G01X42924Y42175D01*
G01X42916Y42245D01*
G01X42903Y42302D01*
G01X42882Y42344D01*
G01X42855Y42373D01*
G01X42820Y42391D01*
G01X42777Y42398D01*
G01X42724Y42394D01*
G01X42636Y42381D01*
G01X42636Y42566D01*
G01X42637Y42667D01*
G01X42644Y42719D01*
G01X42661Y42733D01*
G01X42692Y42721D01*
G01X42751Y42707D01*
G01X42816Y42717D01*
G01X42873Y42747D01*
G01X42908Y42792D01*
G01X42918Y42830D01*
G01X42924Y42878D01*
G01X42926Y42933D01*
G01X42925Y42990D01*
G01X42921Y43045D01*
G01X42913Y43095D01*
G01X42903Y43135D01*
G01X42890Y43162D01*
G01X42850Y43197D01*
G01X42796Y43218D01*
G37*

%LPC*%
G36*
G01X42765Y43112D02*
G01X42730Y43122D01*
G01X42681Y43118D01*
G01X42651Y43089D01*
G01X42639Y43028D01*
G01X42641Y42934D01*
G01X42648Y42875D01*
G01X42661Y42841D01*
G01X42685Y42825D01*
G01X42723Y42821D01*
G01X42763Y42825D01*
G01X42785Y42843D01*
G01X42794Y42887D01*
G01X42796Y42967D01*
G01X42793Y43044D01*
G01X42785Y43089D01*
G01X42765Y43112D01*
G37*

%LPD*%
G36*
G01X44431Y42394D02*
G01X44411Y42396D01*
G01X44395Y42395D01*
G01X44384Y42390D01*
G01X44380Y42382D01*
G01X44386Y42354D01*
G01X44402Y42295D01*
G01X44425Y42212D01*
G01X44454Y42116D01*
G01X44486Y42019D01*
G01X44516Y41947D01*
G01X44544Y41901D01*
G01X44570Y41880D01*
G01X44595Y41884D01*
G01X44619Y41913D01*
G01X44644Y41966D01*
G01X44668Y42044D01*
G01X44685Y42104D01*
G01X44703Y42152D01*
G01X44718Y42184D01*
G01X44729Y42197D01*
G01X44741Y42184D01*
G01X44757Y42152D01*
G01X44775Y42103D01*
G01X44793Y42044D01*
G01X44817Y41966D01*
G01X44841Y41914D01*
G01X44865Y41887D01*
G01X44890Y41885D01*
G01X44916Y41909D01*
G01X44945Y41959D01*
G01X44978Y42035D01*
G01X45015Y42139D01*
G01X45065Y42291D01*
G01X45084Y42368D01*
G01X45075Y42395D01*
G01X45041Y42395D01*
G01X45008Y42382D01*
G01X44982Y42352D01*
G01X44960Y42298D01*
G01X44936Y42211D01*
G01X44893Y42037D01*
G01X44834Y42219D01*
G01X44807Y42294D01*
G01X44782Y42347D01*
G01X44758Y42379D01*
G01X44735Y42389D01*
G01X44711Y42377D01*
G01X44686Y42344D01*
G01X44660Y42288D01*
G01X44632Y42211D01*
G01X44574Y42037D01*
G01X44528Y42211D01*
G01X44504Y42288D01*
G01X44481Y42345D01*
G01X44456Y42379D01*
G01X44431Y42394D01*
G37*

%LPD*%
G36*
G01X44282Y42602D02*
G01X44264Y42603D01*
G01X44234Y42599D01*
G01X44216Y42582D01*
G01X44208Y42548D01*
G01X44206Y42490D01*
G01X44206Y42376D01*
G01X44093Y42392D01*
G01X44034Y42397D01*
G01X43993Y42391D01*
G01X43962Y42373D01*
G01X43933Y42339D01*
G01X43911Y42296D01*
G01X43895Y42244D01*
G01X43887Y42187D01*
G01X43885Y42127D01*
G01X43890Y42069D01*
G01X43901Y42015D01*
G01X43919Y41969D01*
G01X43944Y41935D01*
G01X44001Y41897D01*
G01X44066Y41879D01*
G01X44125Y41882D01*
G01X44164Y41909D01*
G01X44174Y41921D01*
G01X44184Y41925D01*
G01X44195Y41919D01*
G01X44206Y41904D01*
G01X44218Y41892D01*
G01X44236Y41884D01*
G01X44256Y41882D01*
G01X44275Y41886D01*
G01X44289Y41894D01*
G01X44299Y41908D01*
G01X44307Y41931D01*
G01X44313Y41965D01*
G01X44317Y42012D01*
G01X44320Y42075D01*
G01X44322Y42154D01*
G01X44322Y42364D01*
G01X44321Y42447D01*
G01X44318Y42509D01*
G01X44313Y42553D01*
G01X44306Y42580D01*
G01X44296Y42595D01*
G01X44282Y42602D01*
G37*

%LPC*%
G36*
G01X44138Y42303D02*
G01X44106Y42312D01*
G01X44077Y42308D01*
G01X44051Y42291D01*
G01X44030Y42263D01*
G01X44015Y42223D01*
G01X44007Y42175D01*
G01X44008Y42118D01*
G01X44015Y42062D01*
G01X44028Y42027D01*
G01X44051Y42007D01*
G01X44086Y41998D01*
G01X44115Y41997D01*
G01X44142Y42002D01*
G01X44165Y42013D01*
G01X44180Y42027D01*
G01X44200Y42085D01*
G01X44204Y42159D01*
G01X44194Y42230D01*
G01X44171Y42278D01*
G01X44138Y42303D01*
G37*

%LPD*%
G36*
G01X46250Y42395D02*
G01X46211Y42400D01*
G01X46173Y42395D01*
G01X46133Y42383D01*
G01X46095Y42365D01*
G01X46066Y42342D01*
G01X46037Y42304D01*
G01X46016Y42260D01*
G01X46004Y42211D01*
G01X46001Y42160D01*
G01X46004Y42108D01*
G01X46015Y42058D01*
G01X46033Y42010D01*
G01X46056Y41967D01*
G01X46085Y41930D01*
G01X46119Y41901D01*
G01X46158Y41883D01*
G01X46201Y41876D01*
G01X46281Y41887D01*
G01X46347Y41913D01*
G01X46386Y41947D01*
G01X46384Y41982D01*
G01X46365Y41997D01*
G01X46343Y42004D01*
G01X46315Y42002D01*
G01X46280Y41991D01*
G01X46227Y41972D01*
G01X46196Y41967D01*
G01X46172Y41979D01*
G01X46141Y42010D01*
G01X46103Y42058D01*
G01X46107Y42088D01*
G01X46156Y42105D01*
G01X46255Y42109D01*
G01X46347Y42111D01*
G01X46394Y42120D01*
G01X46412Y42146D01*
G01X46415Y42197D01*
G01X46410Y42235D01*
G01X46398Y42275D01*
G01X46379Y42312D01*
G01X46357Y42342D01*
G01X46327Y42365D01*
G01X46290Y42383D01*
G01X46250Y42395D01*
G37*

%LPC*%
G36*
G01X46236Y42308D02*
G01X46211Y42313D01*
G01X46187Y42308D01*
G01X46163Y42296D01*
G01X46141Y42277D01*
G01X46124Y42254D01*
G01X46110Y42223D01*
G01X46116Y42205D01*
G01X46148Y42198D01*
G01X46211Y42197D01*
G01X46275Y42198D01*
G01X46307Y42205D01*
G01X46312Y42223D01*
G01X46299Y42254D01*
G01X46282Y42277D01*
G01X46260Y42296D01*
G01X46236Y42308D01*
G37*

%LPD*%
G36*
G01X43759Y42395D02*
G01X43696Y42396D01*
G01X43537Y42394D01*
G01X43537Y42135D01*
G01X43538Y41994D01*
G01X43546Y41916D01*
G01X43563Y41884D01*
G01X43595Y41876D01*
G01X43626Y41882D01*
G01X43644Y41907D01*
G01X43652Y41963D01*
G01X43653Y42062D01*
G01X43662Y42184D01*
G01X43685Y42267D01*
G01X43722Y42306D01*
G01X43769Y42298D01*
G01X43804Y42295D01*
G01X43842Y42314D01*
G01X43869Y42343D01*
G01X43870Y42373D01*
G01X43852Y42382D01*
G01X43813Y42390D01*
G01X43759Y42395D01*
G37*

%LPD*%
G36*
G01X36361Y12312D02*
G01X36314Y12316D01*
G01X36266Y12309D01*
G01X36218Y12288D01*
G01X36173Y12251D01*
G01X36138Y12207D01*
G01X36116Y12159D01*
G01X36108Y12112D01*
G01X36111Y12064D01*
G01X36124Y12018D01*
G01X36147Y11977D01*
G01X36178Y11941D01*
G01X36216Y11912D01*
G01X36260Y11891D01*
G01X36309Y11880D01*
G01X36362Y11882D01*
G01X36418Y11896D01*
G01X36438Y11910D01*
G01X36462Y11932D01*
G01X36485Y11962D01*
G01X36504Y11995D01*
G01X36525Y12050D01*
G01X36531Y12104D01*
G01X36525Y12153D01*
G01X36508Y12199D01*
G01X36481Y12239D01*
G01X36446Y12272D01*
G01X36406Y12297D01*
G01X36361Y12312D01*
G37*

%LPD*%
G36*
G01X32882Y11686D02*
G01X32831Y11688D01*
G01X32778Y11686D01*
G01X32726Y11681D01*
G01X32673Y11673D01*
G01X32621Y11662D01*
G01X32568Y11647D01*
G01X32516Y11629D01*
G01X32471Y11608D01*
G01X32425Y11583D01*
G01X32378Y11553D01*
G01X32331Y11519D01*
G01X32286Y11482D01*
G01X32241Y11442D01*
G01X32199Y11399D01*
G01X32159Y11354D01*
G01X32122Y11309D01*
G01X32089Y11263D01*
G01X32061Y11217D01*
G01X32038Y11172D01*
G01X32020Y11130D01*
G01X32006Y11090D01*
G01X31995Y11045D01*
G01X31988Y10994D01*
G01X31983Y10931D01*
G01X31980Y10852D01*
G01X31978Y10753D01*
G01X31978Y10629D01*
G01X31979Y10518D01*
G01X31981Y10422D01*
G01X31986Y10337D01*
G01X31993Y10263D01*
G01X32003Y10198D01*
G01X32017Y10139D01*
G01X32036Y10085D01*
G01X32058Y10036D01*
G01X32086Y9988D01*
G01X32119Y9941D01*
G01X32159Y9892D01*
G01X32205Y9839D01*
G01X32245Y9798D01*
G01X32287Y9760D01*
G01X32328Y9726D01*
G01X32371Y9696D01*
G01X32415Y9669D01*
G01X32461Y9646D01*
G01X32509Y9627D01*
G01X32559Y9610D01*
G01X32612Y9597D01*
G01X32667Y9587D01*
G01X32725Y9580D01*
G01X32787Y9575D01*
G01X32857Y9573D01*
G01X32922Y9574D01*
G01X32982Y9579D01*
G01X33039Y9587D01*
G01X33093Y9599D01*
G01X33145Y9614D01*
G01X33194Y9635D01*
G01X33241Y9659D01*
G01X33288Y9688D01*
G01X33334Y9721D01*
G01X33380Y9759D01*
G01X33426Y9802D01*
G01X33482Y9861D01*
G01X33525Y9915D01*
G01X33555Y9964D01*
G01X33571Y10010D01*
G01X33574Y10052D01*
G01X33565Y10093D01*
G01X33543Y10132D01*
G01X33509Y10171D01*
G01X33439Y10217D01*
G01X33367Y10228D01*
G01X33294Y10204D01*
G01X33225Y10145D01*
G01X33182Y10101D01*
G01X33136Y10063D01*
G01X33089Y10032D01*
G01X33039Y10006D01*
G01X32988Y9986D01*
G01X32936Y9972D01*
G01X32883Y9963D01*
G01X32831Y9960D01*
G01X32779Y9963D01*
G01X32728Y9971D01*
G01X32679Y9984D01*
G01X32631Y10002D01*
G01X32586Y10025D01*
G01X32544Y10053D01*
G01X32505Y10086D01*
G01X32469Y10124D01*
G01X32438Y10167D01*
G01X32412Y10214D01*
G01X32390Y10266D01*
G01X32374Y10322D01*
G01X32352Y10423D01*
G01X32980Y10423D01*
G01X33096Y10425D01*
G01X33195Y10428D01*
G01X33280Y10433D01*
G01X33350Y10440D01*
G01X33410Y10450D01*
G01X33459Y10462D01*
G01X33501Y10478D01*
G01X33535Y10497D01*
G01X33566Y10520D01*
G01X33593Y10548D01*
G01X33619Y10580D01*
G01X33659Y10638D01*
G01X33681Y10694D01*
G01X33691Y10762D01*
G01X33692Y10861D01*
G01X33690Y10914D01*
G01X33684Y10968D01*
G01X33675Y11020D01*
G01X33663Y11070D01*
G01X33647Y11119D01*
G01X33629Y11166D01*
G01X33607Y11213D01*
G01X33583Y11257D01*
G01X33557Y11299D01*
G01X33528Y11341D01*
G01X33497Y11380D01*
G01X33464Y11417D01*
G01X33428Y11452D01*
G01X33390Y11485D01*
G01X33351Y11515D01*
G01X33310Y11544D01*
G01X33267Y11570D01*
G01X33223Y11594D01*
G01X33178Y11615D01*
G01X33131Y11634D01*
G01X33083Y11650D01*
G01X33034Y11663D01*
G01X32984Y11674D01*
G01X32933Y11681D01*
G01X32882Y11686D01*
G37*

%LPC*%
G36*
G01X32880Y11297D02*
G01X32835Y11302D01*
G01X32786Y11298D01*
G01X32734Y11286D01*
G01X32680Y11267D01*
G01X32625Y11243D01*
G01X32574Y11214D01*
G01X32527Y11182D01*
G01X32488Y11149D01*
G01X32458Y11114D01*
G01X32416Y11037D01*
G01X32382Y10947D01*
G01X32363Y10867D01*
G01X32367Y10823D01*
G01X32379Y10820D01*
G01X32409Y10817D01*
G01X32454Y10814D01*
G01X32512Y10812D01*
G01X32582Y10810D01*
G01X32661Y10809D01*
G01X32748Y10808D01*
G01X32841Y10807D01*
G01X33299Y10807D01*
G01X33299Y10895D01*
G01X33294Y10942D01*
G01X33279Y10992D01*
G01X33255Y11042D01*
G01X33223Y11091D01*
G01X33185Y11137D01*
G01X33141Y11180D01*
G01X33093Y11217D01*
G01X33042Y11246D01*
G01X32991Y11268D01*
G01X32934Y11286D01*
G01X32880Y11297D01*
G37*

%LPD*%
G36*
G01X36392Y11668D02*
G01X36327Y11685D01*
G01X36260Y11676D01*
G01X36194Y11644D01*
G01X36133Y11601D01*
G01X36133Y10471D01*
G01X36134Y10330D01*
G01X36134Y10205D01*
G01X36135Y10097D01*
G01X36136Y10004D01*
G01X36137Y9924D01*
G01X36139Y9857D01*
G01X36141Y9800D01*
G01X36143Y9755D01*
G01X36147Y9718D01*
G01X36151Y9688D01*
G01X36155Y9666D01*
G01X36161Y9648D01*
G01X36168Y9635D01*
G01X36175Y9625D01*
G01X36183Y9616D01*
G01X36247Y9581D01*
G01X36323Y9572D01*
G01X36398Y9589D01*
G01X36459Y9631D01*
G01X36477Y9653D01*
G01X36484Y9667D01*
G01X36491Y9684D01*
G01X36496Y9705D01*
G01X36500Y9733D01*
G01X36504Y9768D01*
G01X36507Y9812D01*
G01X36510Y9865D01*
G01X36511Y9930D01*
G01X36513Y10008D01*
G01X36514Y10099D01*
G01X36514Y10206D01*
G01X36515Y10329D01*
G01X36515Y11567D01*
G01X36452Y11627D01*
G01X36392Y11668D01*
G37*

%LPD*%
G36*
G01X29529Y11689D02*
G01X29468Y11692D01*
G01X29406Y11690D01*
G01X29345Y11685D01*
G01X29285Y11675D01*
G01X29226Y11661D01*
G01X29169Y11642D01*
G01X29114Y11619D01*
G01X29033Y11584D01*
G01X28987Y11571D01*
G01X28958Y11579D01*
G01X28930Y11607D01*
G01X28870Y11647D01*
G01X28793Y11659D01*
G01X28714Y11644D01*
G01X28651Y11602D01*
G01X28643Y11591D01*
G01X28635Y11579D01*
G01X28628Y11565D01*
G01X28622Y11547D01*
G01X28617Y11524D01*
G01X28613Y11496D01*
G01X28610Y11460D01*
G01X28607Y11416D01*
G01X28605Y11362D01*
G01X28603Y11297D01*
G01X28602Y11220D01*
G01X28600Y11130D01*
G01X28600Y11026D01*
G01X28599Y10906D01*
G01X28599Y10324D01*
G01X28600Y10204D01*
G01X28600Y10100D01*
G01X28602Y10010D01*
G01X28603Y9933D01*
G01X28605Y9868D01*
G01X28607Y9814D01*
G01X28610Y9770D01*
G01X28613Y9734D01*
G01X28617Y9705D01*
G01X28622Y9682D01*
G01X28628Y9665D01*
G01X28635Y9650D01*
G01X28643Y9639D01*
G01X28651Y9629D01*
G01X28718Y9582D01*
G01X28796Y9570D01*
G01X28873Y9590D01*
G01X28938Y9643D01*
G01X28950Y9660D01*
G01X28961Y9677D01*
G01X28969Y9698D01*
G01X28976Y9723D01*
G01X28982Y9755D01*
G01X28986Y9795D01*
G01X28989Y9846D01*
G01X28992Y9910D01*
G01X28993Y9989D01*
G01X28994Y10084D01*
G01X28994Y10469D01*
G01X28995Y10584D01*
G01X28996Y10681D01*
G01X28997Y10760D01*
G01X29000Y10825D01*
G01X29003Y10879D01*
G01X29007Y10922D01*
G01X29013Y10957D01*
G01X29021Y10986D01*
G01X29031Y11011D01*
G01X29042Y11036D01*
G01X29055Y11061D01*
G01X29087Y11110D01*
G01X29124Y11154D01*
G01X29164Y11192D01*
G01X29209Y11225D01*
G01X29257Y11252D01*
G01X29307Y11273D01*
G01X29359Y11288D01*
G01X29412Y11297D01*
G01X29466Y11300D01*
G01X29520Y11297D01*
G01X29574Y11288D01*
G01X29627Y11273D01*
G01X29678Y11251D01*
G01X29728Y11223D01*
G01X29774Y11189D01*
G01X29817Y11148D01*
G01X29838Y11124D01*
G01X29857Y11100D01*
G01X29874Y11076D01*
G01X29888Y11052D01*
G01X29901Y11024D01*
G01X29912Y10994D01*
G01X29920Y10959D01*
G01X29928Y10918D01*
G01X29939Y10819D01*
G01X29942Y10758D01*
G01X29945Y10688D01*
G01X29946Y10608D01*
G01X29947Y10516D01*
G01X29948Y10413D01*
G01X29948Y10050D01*
G01X29949Y9955D01*
G01X29951Y9877D01*
G01X29953Y9814D01*
G01X29956Y9763D01*
G01X29960Y9724D01*
G01X29965Y9694D01*
G01X29972Y9671D01*
G01X29981Y9653D01*
G01X29990Y9639D01*
G01X30003Y9626D01*
G01X30071Y9583D01*
G01X30152Y9570D01*
G01X30230Y9586D01*
G01X30287Y9632D01*
G01X30295Y9646D01*
G01X30302Y9664D01*
G01X30308Y9687D01*
G01X30314Y9716D01*
G01X30318Y9751D01*
G01X30322Y9795D01*
G01X30324Y9849D01*
G01X30327Y9913D01*
G01X30328Y9989D01*
G01X30329Y10078D01*
G01X30330Y10180D01*
G01X30330Y10415D01*
G01X30331Y10519D01*
G01X30333Y10612D01*
G01X30335Y10694D01*
G01X30339Y10767D01*
G01X30344Y10831D01*
G01X30350Y10887D01*
G01X30358Y10936D01*
G01X30367Y10978D01*
G01X30378Y11016D01*
G01X30392Y11050D01*
G01X30408Y11079D01*
G01X30426Y11107D01*
G01X30447Y11133D01*
G01X30470Y11158D01*
G01X30496Y11184D01*
G01X30535Y11216D01*
G01X30578Y11243D01*
G01X30622Y11264D01*
G01X30669Y11281D01*
G01X30717Y11292D01*
G01X30767Y11299D01*
G01X30816Y11301D01*
G01X30866Y11297D01*
G01X30915Y11290D01*
G01X30964Y11277D01*
G01X31011Y11259D01*
G01X31056Y11237D01*
G01X31098Y11211D01*
G01X31138Y11179D01*
G01X31174Y11143D01*
G01X31206Y11103D01*
G01X31220Y11083D01*
G01X31232Y11062D01*
G01X31242Y11039D01*
G01X31250Y11012D01*
G01X31257Y10977D01*
G01X31262Y10934D01*
G01X31267Y10879D01*
G01X31271Y10811D01*
G01X31274Y10725D01*
G01X31277Y10622D01*
G01X31280Y10497D01*
G01X31283Y10350D01*
G01X31286Y10210D01*
G01X31289Y10091D01*
G01X31292Y9990D01*
G01X31295Y9907D01*
G01X31298Y9838D01*
G01X31303Y9783D01*
G01X31308Y9739D01*
G01X31313Y9705D01*
G01X31320Y9678D01*
G01X31328Y9658D01*
G01X31338Y9642D01*
G01X31349Y9629D01*
G01X31415Y9582D01*
G01X31494Y9570D01*
G01X31571Y9590D01*
G01X31635Y9643D01*
G01X31647Y9660D01*
G01X31658Y9677D01*
G01X31667Y9697D01*
G01X31674Y9722D01*
G01X31679Y9753D01*
G01X31684Y9793D01*
G01X31687Y9843D01*
G01X31689Y9904D01*
G01X31691Y9981D01*
G01X31691Y10073D01*
G01X31692Y10183D01*
G01X31692Y10435D01*
G01X31691Y10541D01*
G01X31690Y10633D01*
G01X31688Y10712D01*
G01X31686Y10780D01*
G01X31683Y10839D01*
G01X31678Y10890D01*
G01X31672Y10935D01*
G01X31666Y10976D01*
G01X31658Y11015D01*
G01X31648Y11052D01*
G01X31637Y11090D01*
G01X31618Y11146D01*
G01X31594Y11199D01*
G01X31567Y11252D01*
G01X31535Y11303D01*
G01X31500Y11352D01*
G01X31462Y11399D01*
G01X31420Y11443D01*
G01X31376Y11484D01*
G01X31329Y11522D01*
G01X31279Y11557D01*
G01X31228Y11589D01*
G01X31174Y11616D01*
G01X31118Y11639D01*
G01X31059Y11658D01*
G01X30997Y11672D01*
G01X30934Y11682D01*
G01X30870Y11688D01*
G01X30806Y11689D01*
G01X30741Y11686D01*
G01X30677Y11678D01*
G01X30614Y11667D01*
G01X30553Y11652D01*
G01X30493Y11633D01*
G01X30437Y11610D01*
G01X30384Y11583D01*
G01X30334Y11553D01*
G01X30289Y11519D01*
G01X30249Y11482D01*
G01X30158Y11387D01*
G01X30045Y11481D01*
G01X29995Y11519D01*
G01X29942Y11554D01*
G01X29887Y11585D01*
G01X29830Y11612D01*
G01X29772Y11636D01*
G01X29712Y11655D01*
G01X29652Y11670D01*
G01X29591Y11681D01*
G01X29529Y11689D01*
G37*

%LPD*%
G36*
G01X38433Y11676D02*
G01X38351Y11688D01*
G01X38274Y11669D01*
G01X38216Y11619D01*
G01X38173Y11552D01*
G01X38059Y11613D01*
G01X38020Y11630D01*
G01X37973Y11644D01*
G01X37918Y11657D01*
G01X37858Y11667D01*
G01X37795Y11675D01*
G01X37730Y11680D01*
G01X37665Y11682D01*
G01X37601Y11682D01*
G01X37541Y11679D01*
G01X37486Y11673D01*
G01X37439Y11664D01*
G01X37400Y11651D01*
G01X37342Y11626D01*
G01X37286Y11597D01*
G01X37233Y11566D01*
G01X37183Y11532D01*
G01X37136Y11496D01*
G01X37092Y11456D01*
G01X37051Y11415D01*
G01X37012Y11371D01*
G01X36976Y11324D01*
G01X36943Y11275D01*
G01X36913Y11222D01*
G01X36886Y11168D01*
G01X36869Y11128D01*
G01X36855Y11088D01*
G01X36845Y11044D01*
G01X36838Y10993D01*
G01X36833Y10929D01*
G01X36830Y10850D01*
G01X36829Y10751D01*
G01X36828Y10629D01*
G01X36829Y10497D01*
G01X36830Y10394D01*
G01X36833Y10314D01*
G01X36839Y10252D01*
G01X36848Y10202D01*
G01X36862Y10156D01*
G01X36880Y10111D01*
G01X36905Y10059D01*
G01X36939Y9997D01*
G01X36981Y9935D01*
G01X37029Y9875D01*
G01X37083Y9817D01*
G01X37140Y9763D01*
G01X37200Y9714D01*
G01X37263Y9671D01*
G01X37326Y9635D01*
G01X37370Y9617D01*
G01X37423Y9603D01*
G01X37484Y9593D01*
G01X37551Y9585D01*
G01X37621Y9581D01*
G01X37693Y9580D01*
G01X37765Y9583D01*
G01X37835Y9589D01*
G01X37901Y9598D01*
G01X37962Y9610D01*
G01X38015Y9626D01*
G01X38059Y9645D01*
G01X38173Y9705D01*
G01X38216Y9638D01*
G01X38274Y9589D01*
G01X38351Y9569D01*
G01X38433Y9581D01*
G01X38504Y9626D01*
G01X38513Y9636D01*
G01X38521Y9646D01*
G01X38528Y9660D01*
G01X38534Y9676D01*
G01X38540Y9698D01*
G01X38544Y9726D01*
G01X38548Y9761D01*
G01X38551Y9805D01*
G01X38553Y9859D01*
G01X38555Y9925D01*
G01X38556Y10003D01*
G01X38557Y10095D01*
G01X38558Y10202D01*
G01X38558Y11055D01*
G01X38557Y11163D01*
G01X38556Y11255D01*
G01X38555Y11333D01*
G01X38553Y11398D01*
G01X38551Y11452D01*
G01X38548Y11497D01*
G01X38544Y11532D01*
G01X38540Y11560D01*
G01X38534Y11581D01*
G01X38528Y11598D01*
G01X38521Y11611D01*
G01X38513Y11622D01*
G01X38504Y11632D01*
G01X38433Y11676D01*
G37*

%LPC*%
G36*
G01X37726Y11300D02*
G01X37671Y11300D01*
G01X37617Y11294D01*
G01X37564Y11282D01*
G01X37512Y11265D01*
G01X37462Y11243D01*
G01X37416Y11215D01*
G01X37373Y11182D01*
G01X37334Y11145D01*
G01X37300Y11103D01*
G01X37281Y11073D01*
G01X37265Y11044D01*
G01X37254Y11011D01*
G01X37246Y10969D01*
G01X37241Y10914D01*
G01X37239Y10843D01*
G01X37237Y10749D01*
G01X37237Y10629D01*
G01X37238Y10526D01*
G01X37240Y10438D01*
G01X37245Y10362D01*
G01X37252Y10297D01*
G01X37262Y10241D01*
G01X37277Y10194D01*
G01X37295Y10154D01*
G01X37318Y10119D01*
G01X37347Y10089D01*
G01X37381Y10061D01*
G01X37422Y10036D01*
G01X37470Y10010D01*
G01X37518Y9988D01*
G01X37567Y9972D01*
G01X37615Y9961D01*
G01X37665Y9956D01*
G01X37714Y9956D01*
G01X37762Y9961D01*
G01X37810Y9972D01*
G01X37855Y9987D01*
G01X37900Y10006D01*
G01X37942Y10030D01*
G01X37982Y10059D01*
G01X38019Y10092D01*
G01X38054Y10130D01*
G01X38084Y10171D01*
G01X38112Y10216D01*
G01X38135Y10265D01*
G01X38146Y10300D01*
G01X38156Y10345D01*
G01X38164Y10399D01*
G01X38170Y10460D01*
G01X38174Y10525D01*
G01X38176Y10593D01*
G01X38177Y10661D01*
G01X38175Y10729D01*
G01X38172Y10793D01*
G01X38166Y10853D01*
G01X38158Y10906D01*
G01X38148Y10951D01*
G01X38132Y11000D01*
G01X38108Y11049D01*
G01X38079Y11095D01*
G01X38046Y11139D01*
G01X38010Y11179D01*
G01X37970Y11214D01*
G01X37928Y11243D01*
G01X37886Y11264D01*
G01X37834Y11283D01*
G01X37781Y11295D01*
G01X37726Y11300D01*
G37*

%LPD*%
G36*
G01X35597Y12494D02*
G01X35527Y12509D01*
G01X35458Y12496D01*
G01X35398Y12456D01*
G01X35381Y12437D01*
G01X35368Y12415D01*
G01X35358Y12385D01*
G01X35352Y12343D01*
G01X35347Y12286D01*
G01X35345Y12209D01*
G01X35343Y12108D01*
G01X35343Y11557D01*
G01X35227Y11614D01*
G01X35162Y11642D01*
G01X35086Y11662D01*
G01X34995Y11675D01*
G01X34885Y11683D01*
G01X34814Y11686D01*
G01X34756Y11686D01*
G01X34709Y11684D01*
G01X34667Y11678D01*
G01X34626Y11668D01*
G01X34585Y11653D01*
G01X34539Y11633D01*
G01X34485Y11606D01*
G01X34434Y11579D01*
G01X34386Y11549D01*
G01X34339Y11517D01*
G01X34295Y11482D01*
G01X34253Y11445D01*
G01X34214Y11406D01*
G01X34178Y11365D01*
G01X34145Y11322D01*
G01X34115Y11279D01*
G01X34089Y11234D01*
G01X34067Y11189D01*
G01X34049Y11142D01*
G01X34035Y11095D01*
G01X34023Y11037D01*
G01X34012Y10970D01*
G01X34003Y10897D01*
G01X33996Y10819D01*
G01X33990Y10738D01*
G01X33987Y10656D01*
G01X33986Y10576D01*
G01X33987Y10499D01*
G01X33990Y10426D01*
G01X33996Y10361D01*
G01X34004Y10305D01*
G01X34021Y10229D01*
G01X34041Y10157D01*
G01X34066Y10089D01*
G01X34095Y10026D01*
G01X34127Y9966D01*
G01X34165Y9911D01*
G01X34206Y9859D01*
G01X34252Y9811D01*
G01X34303Y9766D01*
G01X34359Y9725D01*
G01X34419Y9687D01*
G01X34484Y9652D01*
G01X34539Y9625D01*
G01X34585Y9604D01*
G01X34626Y9590D01*
G01X34667Y9580D01*
G01X34709Y9574D01*
G01X34756Y9572D01*
G01X34814Y9572D01*
G01X34885Y9575D01*
G01X34995Y9582D01*
G01X35086Y9596D01*
G01X35161Y9615D01*
G01X35227Y9642D01*
G01X35342Y9700D01*
G01X35384Y9636D01*
G01X35441Y9587D01*
G01X35518Y9569D01*
G01X35600Y9582D01*
G01X35670Y9626D01*
G01X35676Y9632D01*
G01X35682Y9639D01*
G01X35688Y9647D01*
G01X35693Y9657D01*
G01X35697Y9669D01*
G01X35701Y9683D01*
G01X35704Y9701D01*
G01X35708Y9722D01*
G01X35710Y9748D01*
G01X35713Y9778D01*
G01X35715Y9814D01*
G01X35717Y9856D01*
G01X35719Y9905D01*
G01X35720Y9961D01*
G01X35721Y10024D01*
G01X35722Y10096D01*
G01X35723Y10177D01*
G01X35724Y10267D01*
G01X35724Y10599D01*
G01X35725Y10733D01*
G01X35725Y12392D01*
G01X35662Y12452D01*
G01X35597Y12494D01*
G37*

%LPC*%
G36*
G01X34927Y11299D02*
G01X34872Y11303D01*
G01X34816Y11300D01*
G01X34762Y11290D01*
G01X34708Y11275D01*
G01X34655Y11252D01*
G01X34604Y11223D01*
G01X34562Y11195D01*
G01X34525Y11166D01*
G01X34494Y11136D01*
G01X34468Y11103D01*
G01X34446Y11068D01*
G01X34429Y11028D01*
G01X34415Y10981D01*
G01X34405Y10929D01*
G01X34397Y10868D01*
G01X34393Y10799D01*
G01X34390Y10719D01*
G01X34389Y10629D01*
G01X34390Y10538D01*
G01X34393Y10459D01*
G01X34397Y10389D01*
G01X34405Y10329D01*
G01X34415Y10276D01*
G01X34429Y10230D01*
G01X34446Y10190D01*
G01X34468Y10154D01*
G01X34494Y10121D01*
G01X34525Y10091D01*
G01X34562Y10063D01*
G01X34604Y10034D01*
G01X34654Y10006D01*
G01X34706Y9983D01*
G01X34757Y9966D01*
G01X34809Y9957D01*
G01X34861Y9953D01*
G01X34912Y9956D01*
G01X34963Y9964D01*
G01X35013Y9979D01*
G01X35062Y10000D01*
G01X35109Y10027D01*
G01X35156Y10061D01*
G01X35200Y10100D01*
G01X35239Y10142D01*
G01X35270Y10185D01*
G01X35295Y10234D01*
G01X35314Y10290D01*
G01X35327Y10355D01*
G01X35337Y10431D01*
G01X35341Y10522D01*
G01X35343Y10629D01*
G01X35341Y10733D01*
G01X35335Y10832D01*
G01X35326Y10916D01*
G01X35316Y10973D01*
G01X35300Y11016D01*
G01X35275Y11061D01*
G01X35244Y11105D01*
G01X35207Y11149D01*
G01X35166Y11188D01*
G01X35123Y11223D01*
G01X35079Y11252D01*
G01X35035Y11273D01*
G01X34981Y11290D01*
G01X34927Y11299D01*
G37*

%LPD*%
G36*
G01X31321Y8351D02*
G01X31240Y8363D01*
G01X31162Y8344D01*
G01X31105Y8295D01*
G01X31062Y8228D01*
G01X30963Y8287D01*
G01X30927Y8304D01*
G01X30882Y8319D01*
G01X30829Y8332D01*
G01X30770Y8342D01*
G01X30707Y8349D01*
G01X30642Y8355D01*
G01X30576Y8357D01*
G01X30512Y8357D01*
G01X30450Y8354D01*
G01X30393Y8347D01*
G01X30342Y8338D01*
G01X30299Y8325D01*
G01X30240Y8301D01*
G01X30185Y8275D01*
G01X30134Y8246D01*
G01X30085Y8215D01*
G01X30040Y8181D01*
G01X29997Y8144D01*
G01X29957Y8104D01*
G01X29920Y8061D01*
G01X29886Y8015D01*
G01X29853Y7964D01*
G01X29823Y7911D01*
G01X29794Y7853D01*
G01X29775Y7809D01*
G01X29760Y7767D01*
G01X29749Y7723D01*
G01X29740Y7671D01*
G01X29735Y7608D01*
G01X29732Y7529D01*
G01X29731Y7427D01*
G01X29730Y7301D01*
G01X29730Y7165D01*
G01X29732Y7061D01*
G01X29735Y6980D01*
G01X29741Y6918D01*
G01X29751Y6867D01*
G01X29766Y6821D01*
G01X29787Y6773D01*
G01X29814Y6717D01*
G01X29848Y6655D01*
G01X29887Y6595D01*
G01X29930Y6540D01*
G01X29979Y6488D01*
G01X30032Y6438D01*
G01X30090Y6393D01*
G01X30153Y6350D01*
G01X30220Y6311D01*
G01X30262Y6293D01*
G01X30312Y6279D01*
G01X30372Y6268D01*
G01X30437Y6261D01*
G01X30507Y6257D01*
G01X30578Y6256D01*
G01X30650Y6258D01*
G01X30720Y6263D01*
G01X30787Y6271D01*
G01X30848Y6283D01*
G01X30902Y6298D01*
G01X30946Y6315D01*
G01X31058Y6372D01*
G01X31114Y6309D01*
G01X31177Y6263D01*
G01X31251Y6246D01*
G01X31327Y6259D01*
G01X31392Y6300D01*
G01X31402Y6310D01*
G01X31410Y6321D01*
G01X31417Y6334D01*
G01X31423Y6351D01*
G01X31428Y6373D01*
G01X31433Y6400D01*
G01X31436Y6436D01*
G01X31439Y6480D01*
G01X31441Y6534D01*
G01X31443Y6599D01*
G01X31444Y6677D01*
G01X31445Y6770D01*
G01X31446Y6877D01*
G01X31446Y7001D01*
G01X31447Y7142D01*
G01X31447Y7464D01*
G01X31446Y7606D01*
G01X31446Y7730D01*
G01X31445Y7837D01*
G01X31444Y7929D01*
G01X31443Y8008D01*
G01X31441Y8073D01*
G01X31439Y8127D01*
G01X31436Y8171D01*
G01X31433Y8206D01*
G01X31428Y8234D01*
G01X31423Y8256D01*
G01X31417Y8272D01*
G01X31410Y8285D01*
G01X31402Y8297D01*
G01X31392Y8306D01*
G01X31321Y8351D01*
G37*

%LPC*%
G36*
G01X30657Y7972D02*
G01X30606Y7975D01*
G01X30553Y7973D01*
G01X30501Y7965D01*
G01X30450Y7952D01*
G01X30399Y7934D01*
G01X30351Y7912D01*
G01X30305Y7884D01*
G01X30263Y7853D01*
G01X30225Y7817D01*
G01X30191Y7777D01*
G01X30171Y7748D01*
G01X30155Y7719D01*
G01X30143Y7687D01*
G01X30134Y7647D01*
G01X30128Y7596D01*
G01X30123Y7530D01*
G01X30119Y7445D01*
G01X30116Y7337D01*
G01X30113Y7225D01*
G01X30113Y7138D01*
G01X30114Y7071D01*
G01X30118Y7019D01*
G01X30126Y6977D01*
G01X30138Y6940D01*
G01X30155Y6905D01*
G01X30177Y6866D01*
G01X30209Y6817D01*
G01X30245Y6775D01*
G01X30286Y6738D01*
G01X30329Y6707D01*
G01X30375Y6682D01*
G01X30424Y6662D01*
G01X30473Y6647D01*
G01X30525Y6639D01*
G01X30577Y6635D01*
G01X30629Y6637D01*
G01X30680Y6644D01*
G01X30731Y6656D01*
G01X30780Y6674D01*
G01X30827Y6697D01*
G01X30871Y6725D01*
G01X30912Y6758D01*
G01X30950Y6797D01*
G01X30984Y6840D01*
G01X31012Y6888D01*
G01X31036Y6941D01*
G01X31046Y6977D01*
G01X31054Y7028D01*
G01X31059Y7090D01*
G01X31063Y7160D01*
G01X31065Y7236D01*
G01X31065Y7314D01*
G01X31063Y7392D01*
G01X31060Y7468D01*
G01X31054Y7537D01*
G01X31047Y7598D01*
G01X31038Y7647D01*
G01X31028Y7682D01*
G01X31007Y7723D01*
G01X30981Y7763D01*
G01X30949Y7802D01*
G01X30914Y7840D01*
G01X30876Y7874D01*
G01X30837Y7904D01*
G01X30797Y7929D01*
G01X30757Y7948D01*
G01X30708Y7962D01*
G01X30657Y7972D01*
G37*

%LPD*%
G36*
G01X32082Y9168D02*
G01X32012Y9184D01*
G01X31943Y9171D01*
G01X31883Y9131D01*
G01X31876Y9124D01*
G01X31870Y9117D01*
G01X31865Y9109D01*
G01X31860Y9099D01*
G01X31856Y9088D01*
G01X31852Y9073D01*
G01X31848Y9056D01*
G01X31845Y9034D01*
G01X31842Y9009D01*
G01X31839Y8978D01*
G01X31837Y8942D01*
G01X31835Y8900D01*
G01X31834Y8851D01*
G01X31832Y8795D01*
G01X31831Y8731D01*
G01X31830Y8659D01*
G01X31830Y8578D01*
G01X31829Y8488D01*
G01X31829Y8387D01*
G01X31828Y8276D01*
G01X31828Y7155D01*
G01X31829Y7044D01*
G01X31829Y6943D01*
G01X31830Y6853D01*
G01X31830Y6772D01*
G01X31831Y6700D01*
G01X31832Y6637D01*
G01X31834Y6580D01*
G01X31835Y6531D01*
G01X31837Y6489D01*
G01X31839Y6453D01*
G01X31842Y6423D01*
G01X31845Y6397D01*
G01X31848Y6375D01*
G01X31852Y6358D01*
G01X31856Y6343D01*
G01X31860Y6332D01*
G01X31865Y6322D01*
G01X31870Y6314D01*
G01X31876Y6307D01*
G01X31883Y6300D01*
G01X31948Y6259D01*
G01X32023Y6246D01*
G01X32099Y6263D01*
G01X32162Y6309D01*
G01X32218Y6373D01*
G01X32330Y6317D01*
G01X32387Y6295D01*
G01X32458Y6276D01*
G01X32537Y6262D01*
G01X32621Y6252D01*
G01X32707Y6248D01*
G01X32790Y6249D01*
G01X32867Y6257D01*
G01X32933Y6269D01*
G01X32995Y6290D01*
G01X33056Y6316D01*
G01X33116Y6348D01*
G01X33174Y6385D01*
G01X33229Y6427D01*
G01X33282Y6474D01*
G01X33331Y6524D01*
G01X33377Y6578D01*
G01X33419Y6634D01*
G01X33455Y6694D01*
G01X33487Y6755D01*
G01X33513Y6817D01*
G01X33525Y6859D01*
G01X33535Y6913D01*
G01X33545Y6976D01*
G01X33552Y7047D01*
G01X33559Y7124D01*
G01X33563Y7203D01*
G01X33566Y7284D01*
G01X33566Y7363D01*
G01X33565Y7440D01*
G01X33562Y7511D01*
G01X33556Y7574D01*
G01X33548Y7628D01*
G01X33536Y7685D01*
G01X33522Y7739D01*
G01X33505Y7792D01*
G01X33485Y7843D01*
G01X33463Y7891D01*
G01X33439Y7938D01*
G01X33412Y7982D01*
G01X33384Y8024D01*
G01X33353Y8064D01*
G01X33320Y8102D01*
G01X33286Y8137D01*
G01X33250Y8169D01*
G01X33212Y8200D01*
G01X33172Y8228D01*
G01X33130Y8253D01*
G01X33088Y8276D01*
G01X33043Y8296D01*
G01X32998Y8313D01*
G01X32951Y8329D01*
G01X32903Y8341D01*
G01X32853Y8351D01*
G01X32803Y8357D01*
G01X32751Y8361D01*
G01X32699Y8363D01*
G01X32646Y8361D01*
G01X32592Y8357D01*
G01X32537Y8349D01*
G01X32483Y8338D01*
G01X32427Y8325D01*
G01X32371Y8308D01*
G01X32314Y8289D01*
G01X32257Y8266D01*
G01X32242Y8262D01*
G01X32231Y8266D01*
G01X32223Y8281D01*
G01X32217Y8311D01*
G01X32213Y8361D01*
G01X32211Y8432D01*
G01X32210Y8529D01*
G01X32209Y8656D01*
G01X32209Y8787D01*
G01X32208Y8887D01*
G01X32206Y8963D01*
G01X32201Y9017D01*
G01X32193Y9056D01*
G01X32182Y9084D01*
G01X32167Y9105D01*
G01X32146Y9126D01*
G01X32082Y9168D01*
G37*

%LPC*%
G36*
G01X32708Y7971D02*
G01X32657Y7971D01*
G01X32608Y7965D01*
G01X32559Y7955D01*
G01X32513Y7940D01*
G01X32468Y7921D01*
G01X32425Y7896D01*
G01X32385Y7868D01*
G01X32349Y7835D01*
G01X32315Y7799D01*
G01X32285Y7758D01*
G01X32260Y7713D01*
G01X32239Y7666D01*
G01X32229Y7630D01*
G01X32222Y7579D01*
G01X32215Y7517D01*
G01X32212Y7447D01*
G01X32210Y7372D01*
G01X32210Y7293D01*
G01X32212Y7215D01*
G01X32215Y7139D01*
G01X32220Y7069D01*
G01X32228Y7008D01*
G01X32236Y6959D01*
G01X32246Y6924D01*
G01X32270Y6875D01*
G01X32300Y6830D01*
G01X32333Y6789D01*
G01X32371Y6752D01*
G01X32413Y6720D01*
G01X32457Y6693D01*
G01X32504Y6672D01*
G01X32554Y6654D01*
G01X32605Y6643D01*
G01X32656Y6636D01*
G01X32709Y6635D01*
G01X32762Y6640D01*
G01X32813Y6650D01*
G01X32864Y6666D01*
G01X32913Y6689D01*
G01X32961Y6718D01*
G01X33000Y6746D01*
G01X33033Y6776D01*
G01X33062Y6806D01*
G01X33087Y6839D01*
G01X33107Y6876D01*
G01X33124Y6917D01*
G01X33137Y6963D01*
G01X33148Y7015D01*
G01X33155Y7074D01*
G01X33160Y7142D01*
G01X33162Y7218D01*
G01X33163Y7305D01*
G01X33163Y7404D01*
G01X33161Y7483D01*
G01X33158Y7546D01*
G01X33153Y7596D01*
G01X33144Y7637D01*
G01X33132Y7673D01*
G01X33116Y7707D01*
G01X33095Y7745D01*
G01X33059Y7799D01*
G01X33015Y7847D01*
G01X32966Y7887D01*
G01X32910Y7919D01*
G01X32860Y7941D01*
G01X32809Y7956D01*
G01X32758Y7966D01*
G01X32708Y7971D01*
G37*

%LPD*%
G36*
G01X28814Y9170D02*
G01X28751Y9183D01*
G01X28687Y9165D01*
G01X28624Y9117D01*
G01X28555Y9048D01*
G01X28564Y7956D01*
G01X28572Y6864D01*
G01X28645Y6723D01*
G01X28675Y6671D01*
G01X28708Y6621D01*
G01X28744Y6574D01*
G01X28782Y6529D01*
G01X28823Y6487D01*
G01X28867Y6448D01*
G01X28912Y6411D01*
G01X28960Y6378D01*
G01X29009Y6348D01*
G01X29060Y6322D01*
G01X29112Y6299D01*
G01X29164Y6280D01*
G01X29217Y6265D01*
G01X29271Y6254D01*
G01X29325Y6247D01*
G01X29379Y6245D01*
G01X29446Y6248D01*
G01X29494Y6259D01*
G01X29531Y6281D01*
G01X29565Y6317D01*
G01X29599Y6373D01*
G01X29614Y6427D01*
G01X29612Y6478D01*
G01X29592Y6524D01*
G01X29556Y6564D01*
G01X29503Y6598D01*
G01X29436Y6624D01*
G01X29354Y6641D01*
G01X29289Y6654D01*
G01X29227Y6679D01*
G01X29168Y6712D01*
G01X29114Y6752D01*
G01X29066Y6800D01*
G01X29025Y6853D01*
G01X28993Y6912D01*
G01X28970Y6973D01*
G01X28963Y7015D01*
G01X28960Y7047D01*
G01X28957Y7086D01*
G01X28955Y7132D01*
G01X28952Y7185D01*
G01X28950Y7245D01*
G01X28948Y7311D01*
G01X28946Y7385D01*
G01X28944Y7465D01*
G01X28943Y7551D01*
G01X28942Y7643D01*
G01X28941Y7742D01*
G01X28940Y7847D01*
G01X28940Y9066D01*
G01X28877Y9126D01*
G01X28814Y9170D01*
G37*

%LPD*%
G36*
G01X35339Y6163D02*
G01X34501Y6163D01*
G01X34381Y6162D01*
G01X34278Y6161D01*
G01X34191Y6160D01*
G01X34117Y6157D01*
G01X34056Y6155D01*
G01X34007Y6151D01*
G01X33966Y6147D01*
G01X33935Y6142D01*
G01X33911Y6136D01*
G01X33892Y6129D01*
G01X33878Y6120D01*
G01X33849Y6094D01*
G01X33831Y6063D01*
G01X33820Y6023D01*
G01X33817Y5971D01*
G01X33818Y5938D01*
G01X33820Y5909D01*
G01X33824Y5883D01*
G01X33833Y5861D01*
G01X33846Y5843D01*
G01X33866Y5827D01*
G01X33892Y5815D01*
G01X33927Y5804D01*
G01X33971Y5796D01*
G01X34025Y5790D01*
G01X34090Y5785D01*
G01X34169Y5782D01*
G01X34260Y5780D01*
G01X34367Y5779D01*
G01X34489Y5778D01*
G01X35318Y5778D01*
G01X35385Y5846D01*
G01X35432Y5905D01*
G01X35449Y5963D01*
G01X35437Y6023D01*
G01X35395Y6090D01*
G01X35339Y6163D01*
G37*

%LPD*%
G54D17*
G01X47400Y4699D02*
G01X45495Y4699D01*
G01X45495Y2159D01*
G01X53115Y2159D01*
G01X53115Y4699D01*
G54D18*
G01X53115Y4699D02*
G01X47400Y4699D01*
G54D17*
G01X49686Y23622D02*
G01X49686Y25527D01*
G01X47146Y25527D01*
G01X47146Y10287D01*
G01X49686Y10287D01*
G54D18*
G01X49686Y10287D02*
G01X49686Y23622D01*
G54D17*
G01X8665Y30226D02*
G01X8665Y28321D01*
G01X11205Y28321D01*
G01X11205Y43561D01*
G01X8665Y43561D01*
G54D18*
G01X8665Y43561D02*
G01X8665Y30226D01*
G54D17*
G01X3331Y30226D02*
G01X3331Y28321D01*
G01X5871Y28321D01*
G01X5871Y43561D01*
G01X3331Y43561D01*
G54D18*
G01X3331Y43561D02*
G01X3331Y30226D01*
G54D19*
G01X30534Y18237D02*
G01X30534Y20624D01*
G01X30534Y20624D02*
G01X36833Y20624D01*
G01X36833Y20624D02*
G01X36833Y18237D01*
G01X36833Y18237D02*
G01X30534Y18237D01*
G01X30463Y35509D02*
G01X30463Y37896D01*
G01X30463Y37896D02*
G01X36763Y37896D01*
G01X36763Y37896D02*
G01X36763Y35509D01*
G01X36763Y35509D02*
G01X30463Y35509D01*
G01X30280Y29794D02*
G01X30280Y32181D01*
G01X30280Y32181D02*
G01X36579Y32181D01*
G01X36579Y32181D02*
G01X36579Y29794D01*
G01X36579Y29794D02*
G01X30280Y29794D01*
G54D17*
G01X51591Y29464D02*
G01X49051Y29464D01*
G01X49051Y39624D01*
G01X51591Y39624D01*
G01X51591Y37719D01*
G54D18*
G01X51591Y29464D02*
G01X51591Y37719D01*
G54D17*
G01X12983Y43561D02*
G01X15523Y43561D01*
G01X15523Y33401D01*
G01X12983Y33401D01*
G01X12983Y35306D01*
G54D18*
G01X12983Y43561D02*
G01X12983Y35306D01*
G54D17*
G01X17555Y43561D02*
G01X20095Y43561D01*
G01X20095Y33401D01*
G01X17555Y33401D01*
G01X17555Y35306D01*
G54D18*
G01X17555Y43561D02*
G01X17555Y35306D01*
G54D19*
G01X15015Y1493D02*
G01X17563Y1488D01*
G54D17*
G01X7141Y4699D02*
G01X4601Y4699D01*
G01X4601Y25019D01*
G01X7141Y25019D01*
G01X7141Y23114D01*
G54D18*
G01X7141Y4699D02*
G01X7141Y23114D01*
G54D20*
G01X51827Y5989D02*
G01X51418Y5989D01*
G01X51378Y5621D01*
G01X51418Y5661D01*
G01X51540Y5702D01*
G01X51665Y5702D01*
G01X51787Y5661D01*
G01X51868Y5577D01*
G01X51909Y5455D01*
G01X51909Y5374D01*
G01X51868Y5252D01*
G01X51787Y5168D01*
G01X51665Y5128D01*
G01X51540Y5128D01*
G01X51418Y5168D01*
G01X51378Y5212D01*
G01X51337Y5293D01*
G01X52180Y5989D02*
G01X52508Y5128D01*
G01X52833Y5989D02*
G01X52508Y5128D01*
G01X48904Y5783D02*
G01X48861Y5864D01*
G01X48779Y5946D01*
G01X48698Y5989D01*
G01X48535Y5989D01*
G01X48452Y5946D01*
G01X48370Y5864D01*
G01X48330Y5783D01*
G01X48289Y5661D01*
G01X48289Y5455D01*
G01X48330Y5334D01*
G01X48370Y5252D01*
G01X48452Y5168D01*
G01X48535Y5128D01*
G01X48698Y5128D01*
G01X48779Y5168D01*
G01X48861Y5252D01*
G01X48904Y5334D01*
G01X48904Y5455D01*
G01X48698Y5455D02*
G01X48904Y5455D01*
G01X49173Y5989D02*
G01X49173Y5128D01*
G01X49173Y5989D02*
G01X49744Y5128D01*
G01X49744Y5989D02*
G01X49744Y5128D01*
G01X50016Y5989D02*
G01X50016Y5128D01*
G01X50016Y5989D02*
G01X50301Y5989D01*
G01X50425Y5946D01*
G01X50506Y5864D01*
G01X50547Y5783D01*
G01X50588Y5661D01*
G01X50588Y5455D01*
G01X50547Y5334D01*
G01X50506Y5252D01*
G01X50425Y5168D01*
G01X50301Y5128D01*
G01X50016Y5128D01*
G01X45569Y5989D02*
G01X45241Y5128D01*
G01X45569Y5989D02*
G01X45896Y5128D01*
G01X45363Y5415D02*
G01X45772Y5415D01*
G01X46166Y5989D02*
G01X46166Y5128D01*
G01X46166Y5989D02*
G01X46453Y5989D01*
G01X46575Y5946D01*
G01X46656Y5864D01*
G01X46696Y5783D01*
G01X46737Y5661D01*
G01X46737Y5455D01*
G01X46696Y5334D01*
G01X46656Y5252D01*
G01X46575Y5168D01*
G01X46453Y5128D01*
G01X46166Y5128D01*
G01X47621Y5783D02*
G01X47580Y5864D01*
G01X47499Y5946D01*
G01X47418Y5989D01*
G01X47253Y5989D01*
G01X47171Y5946D01*
G01X47090Y5864D01*
G01X47050Y5783D01*
G01X47009Y5661D01*
G01X47009Y5455D01*
G01X47050Y5334D01*
G01X47090Y5252D01*
G01X47171Y5168D01*
G01X47253Y5128D01*
G01X47418Y5128D01*
G01X47499Y5168D01*
G01X47580Y5252D01*
G01X47621Y5334D01*
G01X50555Y24457D02*
G01X51416Y24130D01*
G01X50555Y24457D02*
G01X51416Y24785D01*
G01X51129Y24252D02*
G01X51129Y24661D01*
G01X50720Y25054D02*
G01X50679Y25136D01*
G01X50555Y25257D01*
G01X51416Y25257D01*
G01X50555Y25529D02*
G01X51416Y25529D01*
G01X50555Y25529D02*
G01X50555Y25898D01*
G01X50598Y26019D01*
G01X50638Y26060D01*
G01X50720Y26101D01*
G01X50801Y26101D01*
G01X50882Y26060D01*
G01X50923Y26019D01*
G01X50966Y25898D01*
G01X50966Y25529D02*
G01X50966Y25898D01*
G01X51007Y26019D01*
G01X51047Y26060D01*
G01X51129Y26101D01*
G01X51251Y26101D01*
G01X51332Y26060D01*
G01X51375Y26019D01*
G01X51416Y25898D01*
G01X51416Y25529D01*
G01X50555Y21663D02*
G01X51416Y21336D01*
G01X50555Y21663D02*
G01X51416Y21991D01*
G01X51129Y21458D02*
G01X51129Y21867D01*
G01X50720Y22260D02*
G01X50679Y22342D01*
G01X50555Y22463D01*
G01X51416Y22463D01*
G01X50555Y23063D02*
G01X51416Y22735D01*
G01X50555Y23063D02*
G01X51416Y23388D01*
G01X51129Y22857D02*
G01X51129Y23266D01*
G01X50555Y18161D02*
G01X51416Y18488D01*
G01X50555Y18816D02*
G01X51416Y18488D01*
G01X50760Y19700D02*
G01X50679Y19657D01*
G01X50598Y19575D01*
G01X50555Y19494D01*
G01X50555Y19332D01*
G01X50598Y19248D01*
G01X50679Y19167D01*
G01X50760Y19126D01*
G01X50882Y19085D01*
G01X51088Y19085D01*
G01X51210Y19126D01*
G01X51291Y19167D01*
G01X51375Y19248D01*
G01X51416Y19332D01*
G01X51416Y19494D01*
G01X51375Y19575D01*
G01X51291Y19657D01*
G01X51210Y19700D01*
G01X50760Y20581D02*
G01X50679Y20541D01*
G01X50598Y20459D01*
G01X50555Y20378D01*
G01X50555Y20213D01*
G01X50598Y20132D01*
G01X50679Y20050D01*
G01X50760Y20010D01*
G01X50882Y19969D01*
G01X51088Y19969D01*
G01X51210Y20010D01*
G01X51291Y20050D01*
G01X51375Y20132D01*
G01X51416Y20213D01*
G01X51416Y20378D01*
G01X51375Y20459D01*
G01X51291Y20541D01*
G01X51210Y20581D01*
G01X50760Y15854D02*
G01X50679Y15811D01*
G01X50598Y15730D01*
G01X50555Y15649D01*
G01X50555Y15486D01*
G01X50598Y15402D01*
G01X50679Y15321D01*
G01X50760Y15280D01*
G01X50882Y15240D01*
G01X51088Y15240D01*
G01X51210Y15280D01*
G01X51291Y15321D01*
G01X51375Y15402D01*
G01X51416Y15486D01*
G01X51416Y15649D01*
G01X51375Y15730D01*
G01X51291Y15811D01*
G01X51210Y15854D01*
G01X51088Y15854D01*
G01X51088Y15649D02*
G01X51088Y15854D01*
G01X50555Y16124D02*
G01X51416Y16124D01*
G01X50555Y16124D02*
G01X51416Y16695D01*
G01X50555Y16695D02*
G01X51416Y16695D01*
G01X50555Y16967D02*
G01X51416Y16967D01*
G01X50555Y16967D02*
G01X50555Y17251D01*
G01X50598Y17376D01*
G01X50679Y17457D01*
G01X50760Y17498D01*
G01X50882Y17538D01*
G01X51088Y17538D01*
G01X51210Y17498D01*
G01X51291Y17457D01*
G01X51375Y17376D01*
G01X51416Y17251D01*
G01X51416Y16967D01*
G01X50682Y12446D02*
G01X51543Y12446D01*
G01X50682Y12446D02*
G01X50682Y12814D01*
G01X50725Y12936D01*
G01X50765Y12977D01*
G01X50847Y13017D01*
G01X50928Y13017D01*
G01X51009Y12977D01*
G01X51050Y12936D01*
G01X51093Y12814D01*
G01X51093Y12446D02*
G01X51093Y12814D01*
G01X51134Y12936D01*
G01X51174Y12977D01*
G01X51256Y13017D01*
G01X51378Y13017D01*
G01X51459Y12977D01*
G01X51502Y12936D01*
G01X51543Y12814D01*
G01X51543Y12446D01*
G01X50887Y13330D02*
G01X50847Y13330D01*
G01X50765Y13370D01*
G01X50725Y13411D01*
G01X50682Y13492D01*
G01X50682Y13657D01*
G01X50725Y13739D01*
G01X50765Y13779D01*
G01X50847Y13820D01*
G01X50928Y13820D01*
G01X51009Y13779D01*
G01X51134Y13698D01*
G01X51543Y13289D01*
G01X51543Y13860D01*
G01X50682Y14457D02*
G01X51543Y14130D01*
G01X50682Y14457D02*
G01X51543Y14785D01*
G01X51256Y14254D02*
G01X51256Y14663D01*
G01X50682Y9779D02*
G01X51543Y9779D01*
G01X50682Y9779D02*
G01X50682Y10147D01*
G01X50725Y10269D01*
G01X50765Y10310D01*
G01X50847Y10350D01*
G01X50928Y10350D01*
G01X51009Y10310D01*
G01X51050Y10269D01*
G01X51093Y10147D01*
G01X51093Y9779D02*
G01X51093Y10147D01*
G01X51134Y10269D01*
G01X51174Y10310D01*
G01X51256Y10350D01*
G01X51378Y10350D01*
G01X51459Y10310D01*
G01X51502Y10269D01*
G01X51543Y10147D01*
G01X51543Y9779D01*
G01X50847Y10622D02*
G01X50806Y10703D01*
G01X50682Y10825D01*
G01X51543Y10825D01*
G01X50682Y11422D02*
G01X51543Y11097D01*
G01X50682Y11422D02*
G01X51543Y11750D01*
G01X51256Y11219D02*
G01X51256Y11628D01*
G01X53138Y30797D02*
G01X53219Y30878D01*
G01X53262Y31000D01*
G01X53262Y31165D01*
G01X53219Y31287D01*
G01X53138Y31368D01*
G01X53056Y31368D01*
G01X52975Y31328D01*
G01X52935Y31287D01*
G01X52894Y31206D01*
G01X52810Y30959D01*
G01X52769Y30878D01*
G01X52729Y30837D01*
G01X52648Y30797D01*
G01X52526Y30797D01*
G01X52442Y30878D01*
G01X52401Y31000D01*
G01X52401Y31165D01*
G01X52442Y31287D01*
G01X52526Y31368D01*
G01X53056Y29913D02*
G01X53138Y29954D01*
G01X53219Y30035D01*
G01X53262Y30116D01*
G01X53262Y30281D01*
G01X53219Y30362D01*
G01X53138Y30444D01*
G01X53056Y30484D01*
G01X52935Y30525D01*
G01X52729Y30525D01*
G01X52607Y30484D01*
G01X52526Y30444D01*
G01X52442Y30362D01*
G01X52401Y30281D01*
G01X52401Y30116D01*
G01X52442Y30035D01*
G01X52526Y29954D01*
G01X52607Y29913D01*
G01X53262Y29641D02*
G01X52401Y29641D01*
G01X53262Y29070D02*
G01X52688Y29641D01*
G01X52894Y29438D02*
G01X52401Y29070D01*
G01X53262Y34670D02*
G01X52401Y34670D01*
G01X53262Y34670D02*
G01X52401Y34343D01*
G01X53262Y34015D02*
G01X52401Y34343D01*
G01X53262Y34015D02*
G01X52401Y34015D01*
G01X53262Y33499D02*
G01X53219Y33583D01*
G01X53138Y33664D01*
G01X53056Y33705D01*
G01X52935Y33746D01*
G01X52729Y33746D01*
G01X52607Y33705D01*
G01X52526Y33664D01*
G01X52442Y33583D01*
G01X52401Y33499D01*
G01X52401Y33337D01*
G01X52442Y33256D01*
G01X52526Y33174D01*
G01X52607Y33131D01*
G01X52729Y33090D01*
G01X52935Y33090D01*
G01X53056Y33131D01*
G01X53138Y33174D01*
G01X53219Y33256D01*
G01X53262Y33337D01*
G01X53262Y33499D01*
G01X53138Y32250D02*
G01X53219Y32331D01*
G01X53262Y32453D01*
G01X53262Y32618D01*
G01X53219Y32740D01*
G01X53138Y32821D01*
G01X53056Y32821D01*
G01X52975Y32781D01*
G01X52935Y32740D01*
G01X52894Y32659D01*
G01X52810Y32412D01*
G01X52769Y32331D01*
G01X52729Y32290D01*
G01X52648Y32250D01*
G01X52526Y32250D01*
G01X52442Y32331D01*
G01X52401Y32453D01*
G01X52401Y32618D01*
G01X52442Y32740D01*
G01X52526Y32821D01*
G01X53262Y31978D02*
G01X52401Y31978D01*
G01X53262Y37972D02*
G01X52401Y37972D01*
G01X53262Y37972D02*
G01X52401Y37645D01*
G01X53262Y37317D02*
G01X52401Y37645D01*
G01X53262Y37317D02*
G01X52401Y37317D01*
G01X53262Y37048D02*
G01X52401Y37048D01*
G01X53138Y36204D02*
G01X53219Y36288D01*
G01X53262Y36410D01*
G01X53262Y36573D01*
G01X53219Y36697D01*
G01X53138Y36779D01*
G01X53056Y36779D01*
G01X52975Y36738D01*
G01X52935Y36697D01*
G01X52894Y36613D01*
G01X52810Y36370D01*
G01X52769Y36288D01*
G01X52729Y36245D01*
G01X52648Y36204D01*
G01X52526Y36204D01*
G01X52442Y36288D01*
G01X52401Y36410D01*
G01X52401Y36573D01*
G01X52442Y36697D01*
G01X52526Y36779D01*
G01X53262Y35689D02*
G01X53219Y35773D01*
G01X53138Y35854D01*
G01X53056Y35895D01*
G01X52935Y35935D01*
G01X52729Y35935D01*
G01X52607Y35895D01*
G01X52526Y35854D01*
G01X52442Y35773D01*
G01X52401Y35689D01*
G01X52401Y35526D01*
G01X52442Y35445D01*
G01X52526Y35364D01*
G01X52607Y35321D01*
G01X52729Y35280D01*
G01X52935Y35280D01*
G01X53056Y35321D01*
G01X53138Y35364D01*
G01X53219Y35445D01*
G01X53262Y35526D01*
G01X53262Y35689D01*
G01X53138Y39560D02*
G01X53219Y39641D01*
G01X53262Y39763D01*
G01X53262Y39928D01*
G01X53219Y40050D01*
G01X53138Y40131D01*
G01X53056Y40131D01*
G01X52975Y40091D01*
G01X52935Y40050D01*
G01X52894Y39969D01*
G01X52810Y39722D01*
G01X52769Y39641D01*
G01X52729Y39600D01*
G01X52648Y39560D01*
G01X52526Y39560D01*
G01X52442Y39641D01*
G01X52401Y39763D01*
G01X52401Y39928D01*
G01X52442Y40050D01*
G01X52526Y40131D01*
G01X53138Y38717D02*
G01X53219Y38798D01*
G01X53262Y38920D01*
G01X53262Y39085D01*
G01X53219Y39207D01*
G01X53138Y39288D01*
G01X53056Y39288D01*
G01X52975Y39247D01*
G01X52935Y39207D01*
G01X52894Y39125D01*
G01X52810Y38879D01*
G01X52769Y38798D01*
G01X52729Y38757D01*
G01X52648Y38717D01*
G01X52526Y38717D01*
G01X52442Y38798D01*
G01X52401Y38920D01*
G01X52401Y39085D01*
G01X52442Y39207D01*
G01X52526Y39288D01*
G54D21*
G01X16127Y34394D02*
G01X16059Y34325D01*
G01X16023Y34221D01*
G01X16023Y34081D01*
G01X16059Y33977D01*
G01X16127Y33909D01*
G01X16196Y33909D01*
G01X16267Y33944D01*
G01X16300Y33977D01*
G01X16336Y34048D01*
G01X16404Y34254D01*
G01X16440Y34325D01*
G01X16475Y34358D01*
G01X16544Y34394D01*
G01X16648Y34394D01*
G01X16717Y34325D01*
G01X16752Y34221D01*
G01X16752Y34081D01*
G01X16717Y33977D01*
G01X16648Y33909D01*
G01X16023Y34622D02*
G01X16752Y34622D01*
G01X16023Y34622D02*
G01X16023Y34864D01*
G01X16059Y34968D01*
G01X16127Y35039D01*
G01X16196Y35072D01*
G01X16300Y35107D01*
G01X16475Y35107D01*
G01X16577Y35072D01*
G01X16648Y35039D01*
G01X16717Y34968D01*
G01X16752Y34864D01*
G01X16752Y34622D01*
G01X16023Y35613D02*
G01X16752Y35336D01*
G01X16023Y35613D02*
G01X16752Y35890D01*
G01X16508Y35440D02*
G01X16508Y35786D01*
G01X16127Y37061D02*
G01X16059Y36992D01*
G01X16023Y36888D01*
G01X16023Y36748D01*
G01X16059Y36644D01*
G01X16127Y36576D01*
G01X16196Y36576D01*
G01X16267Y36611D01*
G01X16300Y36644D01*
G01X16336Y36715D01*
G01X16404Y36921D01*
G01X16440Y36992D01*
G01X16475Y37025D01*
G01X16544Y37061D01*
G01X16648Y37061D01*
G01X16717Y36992D01*
G01X16752Y36888D01*
G01X16752Y36748D01*
G01X16717Y36644D01*
G01X16648Y36576D01*
G01X16196Y37807D02*
G01X16127Y37774D01*
G01X16059Y37706D01*
G01X16023Y37635D01*
G01X16023Y37498D01*
G01X16059Y37426D01*
G01X16127Y37358D01*
G01X16196Y37325D01*
G01X16300Y37289D01*
G01X16475Y37289D01*
G01X16577Y37325D01*
G01X16648Y37358D01*
G01X16717Y37426D01*
G01X16752Y37498D01*
G01X16752Y37635D01*
G01X16717Y37706D01*
G01X16648Y37774D01*
G01X16577Y37807D01*
G01X16023Y38036D02*
G01X16752Y38036D01*
G01X16752Y38036D02*
G01X16752Y38453D01*
G01X16196Y39382D02*
G01X16127Y39347D01*
G01X16059Y39278D01*
G01X16023Y39207D01*
G01X16023Y39070D01*
G01X16059Y39001D01*
G01X16127Y38930D01*
G01X16196Y38897D01*
G01X16300Y38862D01*
G01X16475Y38862D01*
G01X16577Y38897D01*
G01X16648Y38930D01*
G01X16717Y39001D01*
G01X16752Y39070D01*
G01X16752Y39207D01*
G01X16717Y39278D01*
G01X16648Y39347D01*
G01X16577Y39382D01*
G01X16475Y39382D01*
G01X16475Y39207D02*
G01X16475Y39382D01*
G01X16023Y39611D02*
G01X16752Y39611D01*
G01X16023Y39611D02*
G01X16752Y40093D01*
G01X16023Y40093D02*
G01X16752Y40093D01*
G01X16023Y40322D02*
G01X16752Y40322D01*
G01X16023Y40322D02*
G01X16023Y40566D01*
G01X16059Y40670D01*
G01X16127Y40739D01*
G01X16196Y40774D01*
G01X16300Y40807D01*
G01X16475Y40807D01*
G01X16577Y40774D01*
G01X16648Y40739D01*
G01X16717Y40670D01*
G01X16752Y40566D01*
G01X16752Y40322D01*
G01X16023Y41148D02*
G01X16752Y41424D01*
G01X16023Y41701D02*
G01X16752Y41424D01*
G01X16023Y41930D02*
G01X16752Y41930D01*
G01X16023Y42158D02*
G01X16752Y42158D01*
G01X16023Y42158D02*
G01X16752Y42644D01*
G01X16023Y42644D02*
G01X16752Y42644D01*
G01X11809Y34902D02*
G01X11741Y34833D01*
G01X11705Y34729D01*
G01X11705Y34589D01*
G01X11741Y34485D01*
G01X11809Y34417D01*
G01X11878Y34417D01*
G01X11949Y34452D01*
G01X11982Y34485D01*
G01X12018Y34556D01*
G01X12086Y34762D01*
G01X12122Y34833D01*
G01X12157Y34866D01*
G01X12226Y34902D01*
G01X12330Y34902D01*
G01X12399Y34833D01*
G01X12434Y34729D01*
G01X12434Y34589D01*
G01X12399Y34485D01*
G01X12330Y34417D01*
G01X11705Y35130D02*
G01X12434Y35130D01*
G01X11705Y35130D02*
G01X11705Y35372D01*
G01X11741Y35476D01*
G01X11809Y35547D01*
G01X11878Y35580D01*
G01X11982Y35615D01*
G01X12157Y35615D01*
G01X12259Y35580D01*
G01X12330Y35547D01*
G01X12399Y35476D01*
G01X12434Y35372D01*
G01X12434Y35130D01*
G01X11705Y36121D02*
G01X12434Y35844D01*
G01X11705Y36121D02*
G01X12434Y36398D01*
G01X12190Y35948D02*
G01X12190Y36294D01*
G01X11809Y37569D02*
G01X11741Y37500D01*
G01X11705Y37396D01*
G01X11705Y37256D01*
G01X11741Y37152D01*
G01X11809Y37084D01*
G01X11878Y37084D01*
G01X11949Y37119D01*
G01X11982Y37152D01*
G01X12018Y37223D01*
G01X12086Y37429D01*
G01X12122Y37500D01*
G01X12157Y37533D01*
G01X12226Y37569D01*
G01X12330Y37569D01*
G01X12399Y37500D01*
G01X12434Y37396D01*
G01X12434Y37256D01*
G01X12399Y37152D01*
G01X12330Y37084D01*
G01X11878Y38315D02*
G01X11809Y38282D01*
G01X11741Y38214D01*
G01X11705Y38143D01*
G01X11705Y38006D01*
G01X11741Y37934D01*
G01X11809Y37866D01*
G01X11878Y37833D01*
G01X11982Y37797D01*
G01X12157Y37797D01*
G01X12259Y37833D01*
G01X12330Y37866D01*
G01X12399Y37934D01*
G01X12434Y38006D01*
G01X12434Y38143D01*
G01X12399Y38214D01*
G01X12330Y38282D01*
G01X12259Y38315D01*
G01X11705Y38544D02*
G01X12434Y38544D01*
G01X12434Y38544D02*
G01X12434Y38961D01*
G01X11878Y39890D02*
G01X11809Y39855D01*
G01X11741Y39786D01*
G01X11705Y39715D01*
G01X11705Y39578D01*
G01X11741Y39509D01*
G01X11809Y39438D01*
G01X11878Y39405D01*
G01X11982Y39370D01*
G01X12157Y39370D01*
G01X12259Y39405D01*
G01X12330Y39438D01*
G01X12399Y39509D01*
G01X12434Y39578D01*
G01X12434Y39715D01*
G01X12399Y39786D01*
G01X12330Y39855D01*
G01X12259Y39890D01*
G01X12157Y39890D01*
G01X12157Y39715D02*
G01X12157Y39890D01*
G01X11705Y40119D02*
G01X12434Y40119D01*
G01X11705Y40119D02*
G01X12434Y40601D01*
G01X11705Y40601D02*
G01X12434Y40601D01*
G01X11705Y40830D02*
G01X12434Y40830D01*
G01X11705Y40830D02*
G01X11705Y41074D01*
G01X11741Y41178D01*
G01X11809Y41247D01*
G01X11878Y41282D01*
G01X11982Y41315D01*
G01X12157Y41315D01*
G01X12259Y41282D01*
G01X12330Y41247D01*
G01X12399Y41178D01*
G01X12434Y41074D01*
G01X12434Y40830D01*
G01X11705Y41656D02*
G01X12434Y41932D01*
G01X11705Y42209D02*
G01X12434Y41932D01*
G01X11705Y42438D02*
G01X12434Y42438D01*
G01X11705Y42666D02*
G01X12434Y42666D01*
G01X11705Y42666D02*
G01X12434Y43152D01*
G01X11705Y43152D02*
G01X12434Y43152D01*
G01X7514Y29591D02*
G01X8243Y30076D01*
G01X7514Y30076D02*
G01X8243Y29591D01*
G01X7618Y30789D02*
G01X7550Y30721D01*
G01X7514Y30617D01*
G01X7514Y30477D01*
G01X7550Y30373D01*
G01X7618Y30304D01*
G01X7687Y30304D01*
G01X7758Y30340D01*
G01X7791Y30373D01*
G01X7827Y30441D01*
G01X7895Y30650D01*
G01X7931Y30721D01*
G01X7966Y30754D01*
G01X8035Y30789D01*
G01X8139Y30789D01*
G01X8208Y30721D01*
G01X8243Y30617D01*
G01X8243Y30477D01*
G01X8208Y30373D01*
G01X8139Y30304D01*
G01X7514Y31018D02*
G01X8243Y31018D01*
G01X7514Y31503D02*
G01X8243Y31503D01*
G01X7862Y31018D02*
G01X7862Y31503D01*
G01X7514Y31732D02*
G01X8035Y31732D01*
G01X8139Y31765D01*
G01X8208Y31836D01*
G01X8243Y31940D01*
G01X8243Y32009D01*
G01X8208Y32113D01*
G01X8139Y32181D01*
G01X8035Y32217D01*
G01X7514Y32217D01*
G01X7514Y32687D02*
G01X8243Y32687D01*
G01X7514Y32445D02*
G01X7514Y32931D01*
G01X7618Y34267D02*
G01X7550Y34198D01*
G01X7514Y34094D01*
G01X7514Y33954D01*
G01X7550Y33850D01*
G01X7618Y33782D01*
G01X7687Y33782D01*
G01X7758Y33817D01*
G01X7791Y33850D01*
G01X7827Y33921D01*
G01X7895Y34127D01*
G01X7931Y34198D01*
G01X7966Y34231D01*
G01X8035Y34267D01*
G01X8139Y34267D01*
G01X8208Y34198D01*
G01X8243Y34094D01*
G01X8243Y33954D01*
G01X8208Y33850D01*
G01X8139Y33782D01*
G01X7514Y34495D02*
G01X8243Y34495D01*
G01X7514Y34495D02*
G01X7514Y34737D01*
G01X7550Y34841D01*
G01X7618Y34912D01*
G01X7687Y34945D01*
G01X7791Y34980D01*
G01X7966Y34980D01*
G01X8068Y34945D01*
G01X8139Y34912D01*
G01X8208Y34841D01*
G01X8243Y34737D01*
G01X8243Y34495D01*
G01X7514Y35486D02*
G01X8243Y35209D01*
G01X7514Y35486D02*
G01X8243Y35763D01*
G01X7999Y35313D02*
G01X7999Y35659D01*
G01X7618Y36934D02*
G01X7550Y36865D01*
G01X7514Y36761D01*
G01X7514Y36621D01*
G01X7550Y36517D01*
G01X7618Y36449D01*
G01X7687Y36449D01*
G01X7758Y36484D01*
G01X7791Y36517D01*
G01X7827Y36588D01*
G01X7895Y36794D01*
G01X7931Y36865D01*
G01X7966Y36898D01*
G01X8035Y36934D01*
G01X8139Y36934D01*
G01X8208Y36865D01*
G01X8243Y36761D01*
G01X8243Y36621D01*
G01X8208Y36517D01*
G01X8139Y36449D01*
G01X7687Y37680D02*
G01X7618Y37647D01*
G01X7550Y37579D01*
G01X7514Y37508D01*
G01X7514Y37371D01*
G01X7550Y37299D01*
G01X7618Y37231D01*
G01X7687Y37198D01*
G01X7791Y37162D01*
G01X7966Y37162D01*
G01X8068Y37198D01*
G01X8139Y37231D01*
G01X8208Y37299D01*
G01X8243Y37371D01*
G01X8243Y37508D01*
G01X8208Y37579D01*
G01X8139Y37647D01*
G01X8068Y37680D01*
G01X7514Y37909D02*
G01X8243Y37909D01*
G01X8243Y37909D02*
G01X8243Y38326D01*
G01X7687Y39255D02*
G01X7618Y39220D01*
G01X7550Y39151D01*
G01X7514Y39080D01*
G01X7514Y38943D01*
G01X7550Y38874D01*
G01X7618Y38803D01*
G01X7687Y38770D01*
G01X7791Y38735D01*
G01X7966Y38735D01*
G01X8068Y38770D01*
G01X8139Y38803D01*
G01X8208Y38874D01*
G01X8243Y38943D01*
G01X8243Y39080D01*
G01X8208Y39151D01*
G01X8139Y39220D01*
G01X8068Y39255D01*
G01X7966Y39255D01*
G01X7966Y39080D02*
G01X7966Y39255D01*
G01X7514Y39484D02*
G01X8243Y39484D01*
G01X7514Y39484D02*
G01X8243Y39966D01*
G01X7514Y39966D02*
G01X8243Y39966D01*
G01X7514Y40195D02*
G01X8243Y40195D01*
G01X7514Y40195D02*
G01X7514Y40439D01*
G01X7550Y40543D01*
G01X7618Y40612D01*
G01X7687Y40647D01*
G01X7791Y40680D01*
G01X7966Y40680D01*
G01X8068Y40647D01*
G01X8139Y40612D01*
G01X8208Y40543D01*
G01X8243Y40439D01*
G01X8243Y40195D01*
G01X7514Y41021D02*
G01X8243Y41297D01*
G01X7514Y41574D02*
G01X8243Y41297D01*
G01X7514Y41803D02*
G01X8243Y41803D01*
G01X7514Y42031D02*
G01X8243Y42031D01*
G01X7514Y42031D02*
G01X8243Y42517D01*
G01X7514Y42517D02*
G01X8243Y42517D01*
G01X2053Y29845D02*
G01X2782Y30330D01*
G01X2053Y30330D02*
G01X2782Y29845D01*
G01X2157Y31043D02*
G01X2089Y30975D01*
G01X2053Y30871D01*
G01X2053Y30731D01*
G01X2089Y30627D01*
G01X2157Y30558D01*
G01X2226Y30558D01*
G01X2297Y30594D01*
G01X2330Y30627D01*
G01X2366Y30695D01*
G01X2434Y30904D01*
G01X2470Y30975D01*
G01X2505Y31008D01*
G01X2574Y31043D01*
G01X2678Y31043D01*
G01X2747Y30975D01*
G01X2782Y30871D01*
G01X2782Y30731D01*
G01X2747Y30627D01*
G01X2678Y30558D01*
G01X2053Y31272D02*
G01X2782Y31272D01*
G01X2053Y31757D02*
G01X2782Y31757D01*
G01X2401Y31272D02*
G01X2401Y31757D01*
G01X2053Y31986D02*
G01X2574Y31986D01*
G01X2678Y32019D01*
G01X2747Y32090D01*
G01X2782Y32194D01*
G01X2782Y32263D01*
G01X2747Y32367D01*
G01X2678Y32435D01*
G01X2574Y32471D01*
G01X2053Y32471D01*
G01X2053Y32941D02*
G01X2782Y32941D01*
G01X2053Y32699D02*
G01X2053Y33185D01*
G01X2157Y34521D02*
G01X2089Y34452D01*
G01X2053Y34348D01*
G01X2053Y34208D01*
G01X2089Y34104D01*
G01X2157Y34036D01*
G01X2226Y34036D01*
G01X2297Y34071D01*
G01X2330Y34104D01*
G01X2366Y34175D01*
G01X2434Y34381D01*
G01X2470Y34452D01*
G01X2505Y34485D01*
G01X2574Y34521D01*
G01X2678Y34521D01*
G01X2747Y34452D01*
G01X2782Y34348D01*
G01X2782Y34208D01*
G01X2747Y34104D01*
G01X2678Y34036D01*
G01X2053Y34749D02*
G01X2782Y34749D01*
G01X2053Y34749D02*
G01X2053Y34991D01*
G01X2089Y35095D01*
G01X2157Y35166D01*
G01X2226Y35199D01*
G01X2330Y35234D01*
G01X2505Y35234D01*
G01X2607Y35199D01*
G01X2678Y35166D01*
G01X2747Y35095D01*
G01X2782Y34991D01*
G01X2782Y34749D01*
G01X2053Y35740D02*
G01X2782Y35463D01*
G01X2053Y35740D02*
G01X2782Y36017D01*
G01X2538Y35567D02*
G01X2538Y35913D01*
G01X2157Y37188D02*
G01X2089Y37119D01*
G01X2053Y37015D01*
G01X2053Y36875D01*
G01X2089Y36771D01*
G01X2157Y36703D01*
G01X2226Y36703D01*
G01X2297Y36738D01*
G01X2330Y36771D01*
G01X2366Y36842D01*
G01X2434Y37048D01*
G01X2470Y37119D01*
G01X2505Y37152D01*
G01X2574Y37188D01*
G01X2678Y37188D01*
G01X2747Y37119D01*
G01X2782Y37015D01*
G01X2782Y36875D01*
G01X2747Y36771D01*
G01X2678Y36703D01*
G01X2226Y37934D02*
G01X2157Y37901D01*
G01X2089Y37833D01*
G01X2053Y37762D01*
G01X2053Y37625D01*
G01X2089Y37553D01*
G01X2157Y37485D01*
G01X2226Y37452D01*
G01X2330Y37416D01*
G01X2505Y37416D01*
G01X2607Y37452D01*
G01X2678Y37485D01*
G01X2747Y37553D01*
G01X2782Y37625D01*
G01X2782Y37762D01*
G01X2747Y37833D01*
G01X2678Y37901D01*
G01X2607Y37934D01*
G01X2053Y38163D02*
G01X2782Y38163D01*
G01X2782Y38163D02*
G01X2782Y38580D01*
G01X2226Y39509D02*
G01X2157Y39474D01*
G01X2089Y39405D01*
G01X2053Y39334D01*
G01X2053Y39197D01*
G01X2089Y39128D01*
G01X2157Y39057D01*
G01X2226Y39024D01*
G01X2330Y38989D01*
G01X2505Y38989D01*
G01X2607Y39024D01*
G01X2678Y39057D01*
G01X2747Y39128D01*
G01X2782Y39197D01*
G01X2782Y39334D01*
G01X2747Y39405D01*
G01X2678Y39474D01*
G01X2607Y39509D01*
G01X2505Y39509D01*
G01X2505Y39334D02*
G01X2505Y39509D01*
G01X2053Y39738D02*
G01X2782Y39738D01*
G01X2053Y39738D02*
G01X2782Y40220D01*
G01X2053Y40220D02*
G01X2782Y40220D01*
G01X2053Y40449D02*
G01X2782Y40449D01*
G01X2053Y40449D02*
G01X2053Y40693D01*
G01X2089Y40797D01*
G01X2157Y40866D01*
G01X2226Y40901D01*
G01X2330Y40934D01*
G01X2505Y40934D01*
G01X2607Y40901D01*
G01X2678Y40866D01*
G01X2747Y40797D01*
G01X2782Y40693D01*
G01X2782Y40449D01*
G01X2053Y41275D02*
G01X2782Y41551D01*
G01X2053Y41828D02*
G01X2782Y41551D01*
G01X2053Y42057D02*
G01X2782Y42057D01*
G01X2053Y42285D02*
G01X2782Y42285D01*
G01X2053Y42285D02*
G01X2782Y42771D01*
G01X2053Y42771D02*
G01X2782Y42771D01*
G54D20*
G01X2676Y5026D02*
G01X3537Y4699D01*
G01X2676Y5026D02*
G01X3537Y5354D01*
G01X3250Y4821D02*
G01X3250Y5230D01*
G01X2676Y5623D02*
G01X3537Y5623D01*
G01X2676Y5623D02*
G01X2676Y5910D01*
G01X2719Y6032D01*
G01X2800Y6113D01*
G01X2881Y6154D01*
G01X3003Y6195D01*
G01X3209Y6195D01*
G01X3331Y6154D01*
G01X3412Y6113D01*
G01X3496Y6032D01*
G01X3537Y5910D01*
G01X3537Y5623D01*
G01X2676Y6467D02*
G01X3537Y6467D01*
G01X2676Y6467D02*
G01X2676Y6751D01*
G01X2719Y6875D01*
G01X2800Y6957D01*
G01X2881Y6997D01*
G01X3003Y7038D01*
G01X3209Y7038D01*
G01X3331Y6997D01*
G01X3412Y6957D01*
G01X3496Y6875D01*
G01X3537Y6751D01*
G01X3537Y6467D01*
G01X2676Y7747D02*
G01X3537Y7747D01*
G01X2676Y7747D02*
G01X2676Y8115D01*
G01X2719Y8237D01*
G01X2759Y8278D01*
G01X2841Y8318D01*
G01X2922Y8318D01*
G01X3003Y8278D01*
G01X3044Y8237D01*
G01X3087Y8115D01*
G01X3087Y7747D01*
G01X3087Y8034D02*
G01X3537Y8318D01*
G01X2800Y9161D02*
G01X2719Y9080D01*
G01X2676Y8958D01*
G01X2676Y8793D01*
G01X2719Y8671D01*
G01X2800Y8590D01*
G01X2881Y8590D01*
G01X2963Y8631D01*
G01X3003Y8671D01*
G01X3044Y8753D01*
G01X3128Y8999D01*
G01X3168Y9080D01*
G01X3209Y9121D01*
G01X3290Y9161D01*
G01X3412Y9161D01*
G01X3496Y9080D01*
G01X3537Y8958D01*
G01X3537Y8793D01*
G01X3496Y8671D01*
G01X3412Y8590D01*
G01X2676Y9718D02*
G01X3537Y9718D01*
G01X2676Y9431D02*
G01X2676Y10005D01*
G01X2676Y10541D02*
G01X3537Y10541D01*
G01X2676Y10810D02*
G01X3537Y10810D01*
G01X2676Y10810D02*
G01X3537Y11384D01*
G01X2676Y11384D02*
G01X3537Y11384D01*
G01X2676Y11940D02*
G01X3537Y11940D01*
G01X2676Y11653D02*
G01X2676Y12225D01*
G01X2676Y12573D02*
G01X3537Y12776D01*
G01X2676Y12982D02*
G01X3537Y12776D01*
G01X2676Y12982D02*
G01X3537Y13187D01*
G01X2676Y13391D02*
G01X3537Y13187D01*
G01X2676Y13987D02*
G01X3537Y13660D01*
G01X2676Y13987D02*
G01X3537Y14315D01*
G01X3250Y13784D02*
G01X3250Y14193D01*
G01X2676Y14584D02*
G01X3537Y14584D01*
G01X2676Y15158D02*
G01X3250Y14584D01*
G01X3044Y14790D02*
G01X3537Y15158D01*
G01X2800Y16319D02*
G01X2719Y16238D01*
G01X2676Y16116D01*
G01X2676Y15951D01*
G01X2719Y15829D01*
G01X2800Y15748D01*
G01X2881Y15748D01*
G01X2963Y15788D01*
G01X3003Y15829D01*
G01X3044Y15910D01*
G01X3128Y16157D01*
G01X3168Y16238D01*
G01X3209Y16279D01*
G01X3290Y16319D01*
G01X3412Y16319D01*
G01X3496Y16238D01*
G01X3537Y16116D01*
G01X3537Y15951D01*
G01X3496Y15829D01*
G01X3412Y15748D01*
G01X2676Y16591D02*
G01X3537Y16591D01*
G01X2676Y16591D02*
G01X2676Y16875D01*
G01X2719Y17000D01*
G01X2800Y17081D01*
G01X2881Y17122D01*
G01X3003Y17162D01*
G01X3209Y17162D01*
G01X3331Y17122D01*
G01X3412Y17081D01*
G01X3496Y17000D01*
G01X3537Y16875D01*
G01X3537Y16591D01*
G01X2676Y17759D02*
G01X3537Y17432D01*
G01X2676Y17759D02*
G01X3537Y18087D01*
G01X3250Y17556D02*
G01X3250Y17965D01*
G01X2800Y19113D02*
G01X2719Y19032D01*
G01X2676Y18910D01*
G01X2676Y18745D01*
G01X2719Y18623D01*
G01X2800Y18542D01*
G01X2881Y18542D01*
G01X2963Y18582D01*
G01X3003Y18623D01*
G01X3044Y18704D01*
G01X3128Y18951D01*
G01X3168Y19032D01*
G01X3209Y19073D01*
G01X3290Y19113D01*
G01X3412Y19113D01*
G01X3496Y19032D01*
G01X3537Y18910D01*
G01X3537Y18745D01*
G01X3496Y18623D01*
G01X3412Y18542D01*
G01X2881Y19997D02*
G01X2800Y19956D01*
G01X2719Y19875D01*
G01X2676Y19794D01*
G01X2676Y19629D01*
G01X2719Y19548D01*
G01X2800Y19466D01*
G01X2881Y19426D01*
G01X3003Y19385D01*
G01X3209Y19385D01*
G01X3331Y19426D01*
G01X3412Y19466D01*
G01X3496Y19548D01*
G01X3537Y19629D01*
G01X3537Y19794D01*
G01X3496Y19875D01*
G01X3412Y19956D01*
G01X3331Y19997D01*
G01X2676Y20269D02*
G01X3537Y20269D01*
G01X3537Y20269D02*
G01X3537Y20759D01*
G01X2881Y21569D02*
G01X2800Y21526D01*
G01X2719Y21445D01*
G01X2676Y21364D01*
G01X2676Y21201D01*
G01X2719Y21117D01*
G01X2800Y21036D01*
G01X2881Y20995D01*
G01X3003Y20955D01*
G01X3209Y20955D01*
G01X3331Y20995D01*
G01X3412Y21036D01*
G01X3496Y21117D01*
G01X3537Y21201D01*
G01X3537Y21364D01*
G01X3496Y21445D01*
G01X3412Y21526D01*
G01X3331Y21569D01*
G01X3209Y21569D01*
G01X3209Y21364D02*
G01X3209Y21569D01*
G01X2676Y21839D02*
G01X3537Y21839D01*
G01X2676Y21839D02*
G01X3537Y22410D01*
G01X2676Y22410D02*
G01X3537Y22410D01*
G01X2676Y22682D02*
G01X3537Y22682D01*
G01X2676Y22682D02*
G01X2676Y22966D01*
G01X2719Y23091D01*
G01X2800Y23172D01*
G01X2881Y23213D01*
G01X3003Y23253D01*
G01X3209Y23253D01*
G01X3331Y23213D01*
G01X3412Y23172D01*
G01X3496Y23091D01*
G01X3537Y22966D01*
G01X3537Y22682D01*
G01X2676Y23749D02*
G01X3537Y24076D01*
G01X2676Y24404D02*
G01X3537Y24076D01*
G01X2881Y25288D02*
G01X2800Y25245D01*
G01X2719Y25163D01*
G01X2676Y25082D01*
G01X2676Y24920D01*
G01X2719Y24836D01*
G01X2800Y24755D01*
G01X2881Y24714D01*
G01X3003Y24673D01*
G01X3209Y24673D01*
G01X3331Y24714D01*
G01X3412Y24755D01*
G01X3496Y24836D01*
G01X3537Y24920D01*
G01X3537Y25082D01*
G01X3496Y25163D01*
G01X3412Y25245D01*
G01X3331Y25288D01*
G01X2881Y26169D02*
G01X2800Y26129D01*
G01X2719Y26047D01*
G01X2676Y25966D01*
G01X2676Y25801D01*
G01X2719Y25720D01*
G01X2800Y25638D01*
G01X2881Y25598D01*
G01X3003Y25557D01*
G01X3209Y25557D01*
G01X3331Y25598D01*
G01X3412Y25638D01*
G01X3496Y25720D01*
G01X3537Y25801D01*
G01X3537Y25966D01*
G01X3496Y26047D01*
G01X3412Y26129D01*
G01X3331Y26169D01*
G54D17*
G01X40854Y40800D02*
G01X40809Y40891D01*
G01X40715Y40982D01*
G01X40623Y41031D01*
G01X40438Y41031D01*
G01X40346Y40982D01*
G01X40252Y40891D01*
G01X40207Y40800D01*
G01X40161Y40660D01*
G01X40161Y40429D01*
G01X40207Y40292D01*
G01X40252Y40198D01*
G01X40346Y40106D01*
G01X40438Y40060D01*
G01X40623Y40060D01*
G01X40715Y40106D01*
G01X40809Y40198D01*
G01X40854Y40292D01*
G01X41850Y40800D02*
G01X41804Y40891D01*
G01X41713Y40982D01*
G01X41621Y41031D01*
G01X41436Y41031D01*
G01X41342Y40982D01*
G01X41251Y40891D01*
G01X41205Y40800D01*
G01X41159Y40660D01*
G01X41159Y40429D01*
G01X41205Y40292D01*
G01X41251Y40198D01*
G01X41342Y40106D01*
G01X41436Y40060D01*
G01X41621Y40060D01*
G01X41713Y40106D01*
G01X41804Y40198D01*
G01X41850Y40292D01*
G01X42155Y40474D02*
G01X42988Y40474D01*
G01X43293Y41031D02*
G01X43293Y40060D01*
G01X43293Y41031D02*
G01X43707Y41031D01*
G01X43846Y40982D01*
G01X43892Y40937D01*
G01X43938Y40845D01*
G01X43938Y40754D01*
G01X43892Y40660D01*
G01X43846Y40614D01*
G01X43707Y40568D01*
G01X43293Y40568D02*
G01X43707Y40568D01*
G01X43846Y40523D01*
G01X43892Y40474D01*
G01X43938Y40383D01*
G01X43938Y40246D01*
G01X43892Y40152D01*
G01X43846Y40106D01*
G01X43707Y40060D01*
G01X43293Y40060D01*
G01X44243Y41031D02*
G01X44613Y40568D01*
G01X44613Y40060D01*
G01X44982Y41031D02*
G01X44613Y40568D01*
G01X45287Y40474D02*
G01X46117Y40474D01*
G01X47070Y40891D02*
G01X46978Y40982D01*
G01X46839Y41031D01*
G01X46653Y41031D01*
G01X46516Y40982D01*
G01X46422Y40891D01*
G01X46422Y40800D01*
G01X46470Y40706D01*
G01X46516Y40660D01*
G01X46607Y40614D01*
G01X46884Y40523D01*
G01X46978Y40474D01*
G01X47024Y40429D01*
G01X47070Y40337D01*
G01X47070Y40198D01*
G01X46978Y40106D01*
G01X46839Y40060D01*
G01X46653Y40060D01*
G01X46516Y40106D01*
G01X46422Y40198D01*
G01X47743Y41031D02*
G01X47374Y40060D01*
G01X47743Y41031D02*
G01X48114Y40060D01*
G01X47514Y40383D02*
G01X47974Y40383D01*

%LPD*%
G36*
G01X30618Y2494D02*
G01X30590Y2499D01*
G01X30560Y2494D01*
G01X30537Y2480D01*
G01X30522Y2458D01*
G01X30517Y2430D01*
G01X30522Y2399D01*
G01X30537Y2376D01*
G01X30560Y2362D01*
G01X30590Y2357D01*
G01X30618Y2362D01*
G01X30641Y2376D01*
G01X30656Y2399D01*
G01X30661Y2430D01*
G01X30656Y2458D01*
G01X30641Y2480D01*
G01X30618Y2494D01*
G37*

%LPD*%
G36*
G01X36625Y2463D02*
G01X36567Y2468D01*
G01X36485Y2459D01*
G01X36415Y2431D01*
G01X36352Y2389D01*
G01X36295Y2334D01*
G01X36356Y2275D01*
G01X36398Y2318D01*
G01X36446Y2353D01*
G01X36497Y2376D01*
G01X36554Y2385D01*
G01X36632Y2370D01*
G01X36686Y2330D01*
G01X36719Y2270D01*
G01X36730Y2194D01*
G01X36726Y2153D01*
G01X36718Y2111D01*
G01X36705Y2068D01*
G01X36685Y2022D01*
G01X36659Y1976D01*
G01X36627Y1926D01*
G01X36589Y1876D01*
G01X36545Y1822D01*
G01X36495Y1766D01*
G01X36437Y1708D01*
G01X36373Y1648D01*
G01X36303Y1584D01*
G01X36303Y1524D01*
G01X36877Y1524D01*
G01X36877Y1612D01*
G01X36574Y1612D01*
G01X36535Y1610D01*
G01X36495Y1608D01*
G01X36458Y1605D01*
G01X36513Y1658D01*
G01X36564Y1709D01*
G01X36611Y1761D01*
G01X36655Y1812D01*
G01X36694Y1861D01*
G01X36729Y1911D01*
G01X36759Y1959D01*
G01X36784Y2008D01*
G01X36804Y2056D01*
G01X36819Y2104D01*
G01X36828Y2151D01*
G01X36831Y2199D01*
G01X36826Y2258D01*
G01X36812Y2310D01*
G01X36790Y2356D01*
G01X36760Y2395D01*
G01X36722Y2426D01*
G01X36677Y2449D01*
G01X36625Y2463D01*
G37*

%LPD*%
G36*
G01X35231Y2463D02*
G01X35172Y2468D01*
G01X35091Y2459D01*
G01X35021Y2431D01*
G01X34959Y2389D01*
G01X34901Y2334D01*
G01X34962Y2275D01*
G01X35004Y2318D01*
G01X35052Y2353D01*
G01X35104Y2376D01*
G01X35160Y2385D01*
G01X35238Y2370D01*
G01X35293Y2330D01*
G01X35326Y2270D01*
G01X35338Y2194D01*
G01X35335Y2153D01*
G01X35326Y2111D01*
G01X35312Y2068D01*
G01X35292Y2022D01*
G01X35266Y1976D01*
G01X35234Y1926D01*
G01X35196Y1876D01*
G01X35152Y1822D01*
G01X35100Y1766D01*
G01X35043Y1708D01*
G01X34979Y1648D01*
G01X34908Y1584D01*
G01X34908Y1524D01*
G01X35482Y1524D01*
G01X35482Y1612D01*
G01X35180Y1612D01*
G01X35102Y1608D01*
G01X35063Y1605D01*
G01X35118Y1658D01*
G01X35169Y1709D01*
G01X35217Y1761D01*
G01X35260Y1812D01*
G01X35299Y1861D01*
G01X35335Y1911D01*
G01X35365Y1959D01*
G01X35390Y2008D01*
G01X35410Y2056D01*
G01X35424Y2104D01*
G01X35434Y2151D01*
G01X35437Y2199D01*
G01X35432Y2258D01*
G01X35418Y2310D01*
G01X35397Y2356D01*
G01X35367Y2395D01*
G01X35328Y2426D01*
G01X35283Y2449D01*
G01X35231Y2463D01*
G37*

%LPD*%
G36*
G01X33835Y2227D02*
G01X33816Y2227D01*
G01X33759Y2217D01*
G01X33707Y2188D01*
G01X33660Y2142D01*
G01X33621Y2082D01*
G01X33618Y2082D01*
G01X33608Y2209D01*
G01X33524Y2209D01*
G01X33524Y1524D01*
G01X33626Y1524D01*
G01X33626Y1971D01*
G01X33664Y2046D01*
G01X33709Y2097D01*
G01X33757Y2124D01*
G01X33803Y2133D01*
G01X33821Y2133D01*
G01X33836Y2131D01*
G01X33851Y2128D01*
G01X33867Y2123D01*
G01X33887Y2212D01*
G01X33870Y2219D01*
G01X33853Y2224D01*
G01X33835Y2227D01*
G37*

%LPD*%
G36*
G01X31959Y2218D02*
G01X31888Y2227D01*
G01X31829Y2218D01*
G01X31773Y2192D01*
G01X31721Y2154D01*
G01X31675Y2108D01*
G01X31670Y2108D01*
G01X31660Y2209D01*
G01X31576Y2209D01*
G01X31576Y1524D01*
G01X31680Y1524D01*
G01X31680Y2024D01*
G01X31727Y2074D01*
G01X31772Y2108D01*
G01X31816Y2129D01*
G01X31858Y2136D01*
G01X31918Y2124D01*
G01X31960Y2090D01*
G01X31984Y2030D01*
G01X31992Y1945D01*
G01X31992Y1524D01*
G01X32097Y1524D01*
G01X32097Y2024D01*
G01X32144Y2074D01*
G01X32190Y2108D01*
G01X32233Y2129D01*
G01X32274Y2136D01*
G01X32335Y2124D01*
G01X32377Y2090D01*
G01X32401Y2030D01*
G01X32409Y1945D01*
G01X32409Y1524D01*
G01X32513Y1524D01*
G01X32513Y1960D01*
G01X32510Y2022D01*
G01X32500Y2076D01*
G01X32484Y2122D01*
G01X32461Y2160D01*
G01X32432Y2189D01*
G01X32396Y2210D01*
G01X32354Y2223D01*
G01X32305Y2227D01*
G01X32245Y2217D01*
G01X32187Y2189D01*
G01X32132Y2147D01*
G01X32076Y2092D01*
G01X32051Y2149D01*
G01X32013Y2191D01*
G01X31959Y2218D01*
G37*

%LPD*%
G36*
G01X30641Y2209D02*
G01X30537Y2209D01*
G01X30537Y1524D01*
G01X30641Y1524D01*
G01X30641Y2209D01*
G37*

%LPD*%
G36*
G01X29892Y2209D02*
G01X29783Y2209D01*
G01X30034Y1524D01*
G01X30153Y1524D01*
G01X30400Y2209D01*
G01X30298Y2209D01*
G01X30164Y1811D01*
G01X30148Y1759D01*
G01X30132Y1708D01*
G01X30114Y1658D01*
G01X30098Y1610D01*
G01X30092Y1610D01*
G01X30075Y1658D01*
G01X30058Y1708D01*
G01X30042Y1759D01*
G01X30026Y1811D01*
G01X29892Y2209D01*
G37*

%LPD*%
G36*
G01X28335Y2453D02*
G01X28226Y2453D01*
G01X28226Y1524D01*
G01X28325Y1524D01*
G01X28325Y2034D01*
G01X28323Y2106D01*
G01X28320Y2177D01*
G01X28316Y2247D01*
G01X28312Y2316D01*
G01X28320Y2316D01*
G01X28419Y2125D01*
G01X28769Y1524D01*
G01X28878Y1524D01*
G01X28878Y2453D01*
G01X28779Y2453D01*
G01X28779Y1950D01*
G01X28780Y1878D01*
G01X28783Y1804D01*
G01X28788Y1732D01*
G01X28792Y1661D01*
G01X28787Y1661D01*
G01X28685Y1851D01*
G01X28335Y2453D01*
G37*

%LPD*%
G36*
G01X37333Y2465D02*
G01X37291Y2468D01*
G01X37248Y2465D01*
G01X37209Y2455D01*
G01X37172Y2439D01*
G01X37138Y2416D01*
G01X37108Y2387D01*
G01X37082Y2351D01*
G01X37058Y2308D01*
G01X37039Y2258D01*
G01X37024Y2202D01*
G01X37013Y2138D01*
G01X37006Y2068D01*
G01X37004Y1991D01*
G01X37006Y1914D01*
G01X37013Y1843D01*
G01X37024Y1779D01*
G01X37039Y1722D01*
G01X37058Y1671D01*
G01X37082Y1627D01*
G01X37108Y1590D01*
G01X37138Y1560D01*
G01X37172Y1536D01*
G01X37209Y1519D01*
G01X37248Y1509D01*
G01X37291Y1506D01*
G01X37333Y1509D01*
G01X37373Y1519D01*
G01X37409Y1536D01*
G01X37442Y1560D01*
G01X37471Y1590D01*
G01X37498Y1627D01*
G01X37520Y1671D01*
G01X37538Y1722D01*
G01X37553Y1779D01*
G01X37564Y1843D01*
G01X37570Y1914D01*
G01X37573Y1991D01*
G01X37570Y2068D01*
G01X37564Y2138D01*
G01X37553Y2202D01*
G01X37538Y2258D01*
G01X37520Y2308D01*
G01X37498Y2351D01*
G01X37471Y2387D01*
G01X37442Y2416D01*
G01X37409Y2439D01*
G01X37373Y2455D01*
G01X37333Y2465D01*
G37*

%LPC*%
G36*
G01X37330Y2379D02*
G01X37291Y2385D01*
G01X37251Y2379D01*
G01X37215Y2361D01*
G01X37183Y2332D01*
G01X37156Y2290D01*
G01X37134Y2235D01*
G01X37119Y2167D01*
G01X37108Y2086D01*
G01X37105Y1991D01*
G01X37108Y1895D01*
G01X37119Y1813D01*
G01X37134Y1743D01*
G01X37156Y1687D01*
G01X37183Y1644D01*
G01X37215Y1613D01*
G01X37251Y1596D01*
G01X37291Y1590D01*
G01X37330Y1596D01*
G01X37366Y1614D01*
G01X37397Y1644D01*
G01X37423Y1688D01*
G01X37444Y1743D01*
G01X37461Y1813D01*
G01X37470Y1895D01*
G01X37474Y1991D01*
G01X37470Y2086D01*
G01X37461Y2167D01*
G01X37444Y2235D01*
G01X37423Y2290D01*
G01X37397Y2332D01*
G01X37366Y2361D01*
G01X37330Y2379D01*
G37*

%LPD*%
G36*
G01X35939Y2465D02*
G01X35896Y2468D01*
G01X35854Y2465D01*
G01X35814Y2455D01*
G01X35778Y2439D01*
G01X35744Y2416D01*
G01X35715Y2387D01*
G01X35688Y2351D01*
G01X35665Y2308D01*
G01X35646Y2258D01*
G01X35632Y2202D01*
G01X35621Y2138D01*
G01X35614Y2068D01*
G01X35612Y1991D01*
G01X35614Y1914D01*
G01X35621Y1843D01*
G01X35632Y1779D01*
G01X35646Y1722D01*
G01X35665Y1671D01*
G01X35688Y1627D01*
G01X35715Y1590D01*
G01X35744Y1560D01*
G01X35778Y1536D01*
G01X35814Y1519D01*
G01X35854Y1509D01*
G01X35896Y1506D01*
G01X35939Y1509D01*
G01X35978Y1519D01*
G01X36014Y1536D01*
G01X36047Y1560D01*
G01X36077Y1590D01*
G01X36103Y1627D01*
G01X36125Y1671D01*
G01X36144Y1722D01*
G01X36159Y1779D01*
G01X36169Y1843D01*
G01X36176Y1914D01*
G01X36178Y1991D01*
G01X36176Y2068D01*
G01X36169Y2138D01*
G01X36159Y2202D01*
G01X36144Y2258D01*
G01X36125Y2308D01*
G01X36103Y2351D01*
G01X36077Y2387D01*
G01X36047Y2416D01*
G01X36014Y2439D01*
G01X35978Y2455D01*
G01X35939Y2465D01*
G37*

%LPC*%
G36*
G01X35935Y2379D02*
G01X35896Y2385D01*
G01X35856Y2379D01*
G01X35820Y2361D01*
G01X35788Y2332D01*
G01X35762Y2290D01*
G01X35740Y2235D01*
G01X35724Y2167D01*
G01X35714Y2086D01*
G01X35711Y1991D01*
G01X35714Y1895D01*
G01X35724Y1813D01*
G01X35740Y1743D01*
G01X35762Y1687D01*
G01X35788Y1644D01*
G01X35820Y1613D01*
G01X35856Y1596D01*
G01X35896Y1590D01*
G01X35935Y1596D01*
G01X35971Y1614D01*
G01X36002Y1644D01*
G01X36028Y1688D01*
G01X36050Y1743D01*
G01X36066Y1813D01*
G01X36076Y1895D01*
G01X36079Y1991D01*
G01X36076Y2086D01*
G01X36066Y2167D01*
G01X36050Y2235D01*
G01X36028Y2290D01*
G01X36002Y2332D01*
G01X35971Y2361D01*
G01X35935Y2379D01*
G37*

%LPD*%
G36*
G01X34304Y2221D02*
G01X34243Y2227D01*
G01X34184Y2220D01*
G01X34129Y2202D01*
G01X34077Y2171D01*
G01X34031Y2130D01*
G01X33993Y2078D01*
G01X33963Y2016D01*
G01X33945Y1945D01*
G01X33938Y1866D01*
G01X33945Y1786D01*
G01X33963Y1715D01*
G01X33993Y1653D01*
G01X34033Y1601D01*
G01X34081Y1560D01*
G01X34136Y1530D01*
G01X34197Y1512D01*
G01X34263Y1506D01*
G01X34329Y1511D01*
G01X34388Y1527D01*
G01X34440Y1549D01*
G01X34487Y1577D01*
G01X34449Y1645D01*
G01X34409Y1622D01*
G01X34368Y1604D01*
G01X34324Y1593D01*
G01X34276Y1590D01*
G01X34227Y1594D01*
G01X34182Y1608D01*
G01X34143Y1630D01*
G01X34109Y1659D01*
G01X34081Y1696D01*
G01X34060Y1739D01*
G01X34046Y1789D01*
G01X34040Y1844D01*
G01X34510Y1844D01*
G01X34511Y1856D01*
G01X34513Y1871D01*
G01X34515Y1907D01*
G01X34510Y1977D01*
G01X34496Y2040D01*
G01X34474Y2094D01*
G01X34444Y2140D01*
G01X34404Y2177D01*
G01X34358Y2205D01*
G01X34304Y2221D01*
G37*

%LPC*%
G36*
G01X34320Y2129D02*
G01X34245Y2143D01*
G01X34172Y2128D01*
G01X34109Y2084D01*
G01X34063Y2014D01*
G01X34040Y1920D01*
G01X34423Y1920D01*
G01X34411Y2017D01*
G01X34376Y2087D01*
G01X34320Y2129D01*
G37*

%LPD*%
G36*
G01X32846Y2534D02*
G01X32744Y2534D01*
G01X32744Y1524D01*
G01X32826Y1524D01*
G01X32836Y1595D01*
G01X32838Y1595D01*
G01X32886Y1558D01*
G01X32936Y1530D01*
G01X32987Y1512D01*
G01X33036Y1506D01*
G01X33095Y1512D01*
G01X33151Y1531D01*
G01X33201Y1562D01*
G01X33246Y1603D01*
G01X33283Y1657D01*
G01X33312Y1720D01*
G01X33329Y1794D01*
G01X33336Y1877D01*
G01X33331Y1952D01*
G01X33318Y2020D01*
G01X33296Y2080D01*
G01X33266Y2131D01*
G01X33228Y2172D01*
G01X33181Y2202D01*
G01X33125Y2220D01*
G01X33062Y2227D01*
G01X33003Y2219D01*
G01X32946Y2198D01*
G01X32892Y2166D01*
G01X32841Y2128D01*
G01X32846Y2252D01*
G01X32846Y2534D01*
G37*

%LPC*%
G36*
G01X33086Y2136D02*
G01X33039Y2141D01*
G01X32993Y2134D01*
G01X32945Y2115D01*
G01X32896Y2083D01*
G01X32846Y2039D01*
G01X32846Y1668D01*
G01X32894Y1634D01*
G01X32940Y1611D01*
G01X32983Y1599D01*
G01X33021Y1595D01*
G01X33064Y1600D01*
G01X33104Y1614D01*
G01X33139Y1638D01*
G01X33170Y1670D01*
G01X33195Y1710D01*
G01X33214Y1759D01*
G01X33225Y1814D01*
G01X33229Y1877D01*
G01X33227Y1932D01*
G01X33219Y1983D01*
G01X33205Y2028D01*
G01X33185Y2067D01*
G01X33159Y2098D01*
G01X33126Y2121D01*
G01X33086Y2136D01*
G37*

%LPD*%
G36*
G01X31192Y2221D02*
G01X31131Y2227D01*
G01X31073Y2220D01*
G01X31017Y2202D01*
G01X30966Y2171D01*
G01X30920Y2130D01*
G01X30881Y2078D01*
G01X30852Y2016D01*
G01X30833Y1945D01*
G01X30827Y1866D01*
G01X30833Y1786D01*
G01X30852Y1715D01*
G01X30882Y1653D01*
G01X30922Y1601D01*
G01X30969Y1560D01*
G01X31025Y1530D01*
G01X31086Y1512D01*
G01X31152Y1506D01*
G01X31218Y1511D01*
G01X31277Y1527D01*
G01X31328Y1549D01*
G01X31375Y1577D01*
G01X31337Y1645D01*
G01X31298Y1622D01*
G01X31256Y1604D01*
G01X31212Y1593D01*
G01X31164Y1590D01*
G01X31115Y1594D01*
G01X31070Y1608D01*
G01X31031Y1630D01*
G01X30998Y1659D01*
G01X30970Y1696D01*
G01X30949Y1739D01*
G01X30935Y1789D01*
G01X30928Y1844D01*
G01X31398Y1844D01*
G01X31400Y1856D01*
G01X31402Y1871D01*
G01X31403Y1889D01*
G01X31403Y1907D01*
G01X31399Y1977D01*
G01X31385Y2040D01*
G01X31362Y2094D01*
G01X31332Y2140D01*
G01X31293Y2177D01*
G01X31247Y2205D01*
G01X31192Y2221D01*
G37*

%LPC*%
G36*
G01X31209Y2129D02*
G01X31134Y2143D01*
G01X31061Y2128D01*
G01X30998Y2084D01*
G01X30951Y2014D01*
G01X30928Y1920D01*
G01X31312Y1920D01*
G01X31299Y2017D01*
G01X31264Y2087D01*
G01X31209Y2129D01*
G37*

%LPD*%
G36*
G01X29453Y2221D02*
G01X29391Y2227D01*
G01X29329Y2221D01*
G01X29272Y2203D01*
G01X29218Y2173D01*
G01X29171Y2133D01*
G01X29132Y2081D01*
G01X29102Y2019D01*
G01X29083Y1948D01*
G01X29076Y1866D01*
G01X29083Y1785D01*
G01X29102Y1713D01*
G01X29132Y1652D01*
G01X29171Y1600D01*
G01X29218Y1560D01*
G01X29272Y1530D01*
G01X29329Y1512D01*
G01X29391Y1506D01*
G01X29453Y1512D01*
G01X29511Y1530D01*
G01X29565Y1560D01*
G01X29611Y1600D01*
G01X29651Y1652D01*
G01X29680Y1713D01*
G01X29700Y1785D01*
G01X29706Y1866D01*
G01X29700Y1948D01*
G01X29680Y2019D01*
G01X29651Y2081D01*
G01X29611Y2133D01*
G01X29565Y2173D01*
G01X29511Y2203D01*
G01X29453Y2221D01*
G37*

%LPC*%
G36*
G01X29435Y2136D02*
G01X29391Y2141D01*
G01X29347Y2136D01*
G01X29306Y2121D01*
G01X29271Y2097D01*
G01X29241Y2065D01*
G01X29216Y2024D01*
G01X29198Y1978D01*
G01X29187Y1925D01*
G01X29183Y1866D01*
G01X29187Y1807D01*
G01X29198Y1754D01*
G01X29216Y1708D01*
G01X29241Y1669D01*
G01X29271Y1637D01*
G01X29306Y1614D01*
G01X29347Y1600D01*
G01X29391Y1595D01*
G01X29435Y1600D01*
G01X29475Y1614D01*
G01X29511Y1637D01*
G01X29541Y1669D01*
G01X29566Y1708D01*
G01X29584Y1754D01*
G01X29596Y1807D01*
G01X29600Y1866D01*
G01X29596Y1925D01*
G01X29584Y1978D01*
G01X29566Y2024D01*
G01X29541Y2065D01*
G01X29511Y2097D01*
G01X29475Y2121D01*
G01X29435Y2136D01*
G37*

%LPD*%

%LPD*%
G36*
G01X28666Y5320D02*
G01X28632Y5326D01*
G01X28596Y5320D01*
G01X28568Y5303D01*
G01X28550Y5277D01*
G01X28543Y5242D01*
G01X28550Y5207D01*
G01X28568Y5180D01*
G01X28596Y5162D01*
G01X28632Y5156D01*
G01X28666Y5162D01*
G01X28694Y5180D01*
G01X28714Y5207D01*
G01X28721Y5242D01*
G01X28714Y5277D01*
G01X28694Y5303D01*
G01X28666Y5320D01*
G37*

%LPD*%
G36*
G01X39248Y5366D02*
G01X39229Y5369D01*
G01X39211Y5367D01*
G01X39193Y5357D01*
G01X39174Y5339D01*
G01X39155Y5311D01*
G01X39123Y5261D01*
G01X39092Y5213D01*
G01X39062Y5165D01*
G01X39033Y5118D01*
G01X39061Y5095D01*
G01X39104Y5132D01*
G01X39146Y5169D01*
G01X39187Y5206D01*
G01X39229Y5242D01*
G01X39255Y5266D01*
G01X39271Y5286D01*
G01X39278Y5303D01*
G01X39280Y5318D01*
G01X39275Y5341D01*
G01X39264Y5357D01*
G01X39248Y5366D01*
G37*

%LPD*%
G36*
G01X39150Y4980D02*
G01X39132Y4993D01*
G01X38919Y4919D01*
G01X38919Y4876D01*
G01X39028Y4866D01*
G01X39032Y4782D01*
G01X39033Y4737D01*
G01X39033Y4555D01*
G01X39032Y4495D01*
G01X39030Y4433D01*
G01X39028Y4376D01*
G01X38924Y4361D01*
G01X38924Y4318D01*
G01X39244Y4318D01*
G01X39244Y4361D01*
G01X39150Y4376D01*
G01X39148Y4433D01*
G01X39147Y4495D01*
G01X39146Y4555D01*
G01X39145Y4610D01*
G01X39145Y4798D01*
G01X39150Y4980D01*
G37*

%LPD*%
G36*
G01X38135Y4992D02*
G01X38104Y4996D01*
G01X38045Y4983D01*
G01X37990Y4948D01*
G01X37941Y4891D01*
G01X37900Y4813D01*
G01X37885Y4980D01*
G01X37865Y4993D01*
G01X37672Y4917D01*
G01X37672Y4876D01*
G01X37781Y4866D01*
G01X37783Y4823D01*
G01X37785Y4781D01*
G01X37786Y4735D01*
G01X37786Y4555D01*
G01X37785Y4495D01*
G01X37783Y4433D01*
G01X37781Y4376D01*
G01X37682Y4361D01*
G01X37682Y4318D01*
G01X38020Y4318D01*
G01X38020Y4361D01*
G01X37903Y4378D01*
G01X37902Y4434D01*
G01X37902Y4495D01*
G01X37901Y4555D01*
G01X37900Y4610D01*
G01X37900Y4719D01*
G01X37922Y4777D01*
G01X37949Y4827D01*
G01X37981Y4868D01*
G01X38020Y4902D01*
G01X38038Y4886D01*
G01X38057Y4871D01*
G01X38078Y4859D01*
G01X38100Y4851D01*
G01X38124Y4848D01*
G01X38160Y4855D01*
G01X38184Y4875D01*
G01X38198Y4905D01*
G01X38203Y4945D01*
G01X38187Y4966D01*
G01X38164Y4981D01*
G01X38135Y4992D01*
G37*

%LPD*%
G36*
G01X35369Y4992D02*
G01X35327Y4996D01*
G01X35262Y4987D01*
G01X35196Y4961D01*
G01X35133Y4919D01*
G01X35076Y4866D01*
G01X35066Y4980D01*
G01X35045Y4993D01*
G01X34850Y4917D01*
G01X34850Y4876D01*
G01X34962Y4866D01*
G01X34963Y4823D01*
G01X34964Y4781D01*
G01X34964Y4495D01*
G01X34963Y4433D01*
G01X34962Y4376D01*
G01X34860Y4361D01*
G01X34860Y4318D01*
G01X35180Y4318D01*
G01X35180Y4361D01*
G01X35084Y4376D01*
G01X35082Y4433D01*
G01X35082Y4495D01*
G01X35081Y4555D01*
G01X35081Y4815D01*
G01X35133Y4858D01*
G01X35182Y4886D01*
G01X35228Y4902D01*
G01X35274Y4907D01*
G01X35326Y4899D01*
G01X35363Y4871D01*
G01X35384Y4819D01*
G01X35391Y4739D01*
G01X35391Y4610D01*
G01X35390Y4555D01*
G01X35390Y4495D01*
G01X35389Y4433D01*
G01X35388Y4376D01*
G01X35284Y4361D01*
G01X35284Y4318D01*
G01X35604Y4318D01*
G01X35604Y4361D01*
G01X35508Y4376D01*
G01X35506Y4433D01*
G01X35506Y4495D01*
G01X35505Y4555D01*
G01X35505Y4744D01*
G01X35502Y4806D01*
G01X35494Y4859D01*
G01X35480Y4902D01*
G01X35460Y4937D01*
G01X35435Y4963D01*
G01X35405Y4981D01*
G01X35369Y4992D01*
G37*

%LPD*%
G36*
G01X31658Y4992D02*
G01X31627Y4996D01*
G01X31568Y4983D01*
G01X31513Y4948D01*
G01X31464Y4891D01*
G01X31423Y4813D01*
G01X31408Y4980D01*
G01X31390Y4993D01*
G01X31195Y4917D01*
G01X31195Y4876D01*
G01X31304Y4866D01*
G01X31306Y4823D01*
G01X31308Y4781D01*
G01X31309Y4735D01*
G01X31309Y4555D01*
G01X31308Y4495D01*
G01X31307Y4433D01*
G01X31307Y4376D01*
G01X31205Y4361D01*
G01X31205Y4318D01*
G01X31543Y4318D01*
G01X31543Y4361D01*
G01X31426Y4378D01*
G01X31425Y4434D01*
G01X31424Y4495D01*
G01X31424Y4555D01*
G01X31423Y4610D01*
G01X31423Y4719D01*
G01X31446Y4777D01*
G01X31473Y4827D01*
G01X31506Y4868D01*
G01X31545Y4902D01*
G01X31561Y4886D01*
G01X31581Y4871D01*
G01X31602Y4859D01*
G01X31624Y4851D01*
G01X31647Y4848D01*
G01X31683Y4855D01*
G01X31707Y4875D01*
G01X31721Y4905D01*
G01X31726Y4945D01*
G01X31710Y4966D01*
G01X31687Y4981D01*
G01X31658Y4992D01*
G37*

%LPD*%
G36*
G01X30078Y4992D02*
G01X30037Y4996D01*
G01X29971Y4987D01*
G01X29905Y4961D01*
G01X29842Y4919D01*
G01X29785Y4866D01*
G01X29775Y4980D01*
G01X29755Y4993D01*
G01X29559Y4917D01*
G01X29559Y4876D01*
G01X29671Y4866D01*
G01X29672Y4823D01*
G01X29673Y4781D01*
G01X29673Y4495D01*
G01X29672Y4433D01*
G01X29671Y4376D01*
G01X29569Y4361D01*
G01X29569Y4318D01*
G01X29889Y4318D01*
G01X29889Y4361D01*
G01X29793Y4376D01*
G01X29791Y4433D01*
G01X29791Y4495D01*
G01X29790Y4555D01*
G01X29790Y4815D01*
G01X29842Y4858D01*
G01X29891Y4886D01*
G01X29938Y4902D01*
G01X29983Y4907D01*
G01X30036Y4899D01*
G01X30072Y4871D01*
G01X30093Y4819D01*
G01X30100Y4739D01*
G01X30100Y4555D01*
G01X30099Y4495D01*
G01X30098Y4433D01*
G01X30098Y4376D01*
G01X29993Y4361D01*
G01X29993Y4318D01*
G01X30313Y4318D01*
G01X30313Y4361D01*
G01X30217Y4376D01*
G01X30215Y4433D01*
G01X30215Y4495D01*
G01X30214Y4555D01*
G01X30214Y4744D01*
G01X30211Y4806D01*
G01X30203Y4859D01*
G01X30189Y4902D01*
G01X30169Y4937D01*
G01X30144Y4963D01*
G01X30114Y4981D01*
G01X30078Y4992D01*
G37*

%LPD*%
G36*
G01X27568Y5336D02*
G01X27550Y5346D01*
G01X27334Y5288D01*
G01X27334Y5247D01*
G01X27446Y5234D01*
G01X27446Y4376D01*
G01X27334Y4361D01*
G01X27334Y4318D01*
G01X27677Y4318D01*
G01X27677Y4361D01*
G01X27563Y4376D01*
G01X27563Y5138D01*
G01X27568Y5336D01*
G37*

%LPD*%
G36*
G01X26874Y5255D02*
G01X26793Y5255D01*
G01X26498Y4384D01*
G01X26384Y4366D01*
G01X26384Y4318D01*
G01X26694Y4318D01*
G01X26694Y4366D01*
G01X26557Y4384D01*
G01X26638Y4627D01*
G01X26961Y4627D01*
G01X27042Y4384D01*
G01X26905Y4366D01*
G01X26905Y4318D01*
G01X27283Y4318D01*
G01X27283Y4366D01*
G01X27174Y4378D01*
G01X26874Y5255D01*
G37*

%LPC*%
G36*
G01X26943Y4681D02*
G01X26798Y5113D01*
G01X26656Y4681D01*
G01X26943Y4681D01*
G37*

%LPD*%
G36*
G01X39696Y4993D02*
G01X39645Y4996D01*
G01X39545Y4983D01*
G01X39465Y4949D01*
G01X39408Y4895D01*
G01X39376Y4823D01*
G01X39381Y4801D01*
G01X39393Y4784D01*
G01X39412Y4773D01*
G01X39437Y4770D01*
G01X39462Y4774D01*
G01X39481Y4786D01*
G01X39497Y4807D01*
G01X39508Y4836D01*
G01X39534Y4930D01*
G01X39556Y4936D01*
G01X39576Y4940D01*
G01X39595Y4942D01*
G01X39612Y4942D01*
G01X39673Y4935D01*
G01X39715Y4907D01*
G01X39739Y4854D01*
G01X39747Y4770D01*
G01X39747Y4726D01*
G01X39704Y4716D01*
G01X39662Y4705D01*
G01X39623Y4692D01*
G01X39587Y4681D01*
G01X39474Y4633D01*
G01X39403Y4583D01*
G01X39366Y4529D01*
G01X39356Y4470D01*
G01X39371Y4396D01*
G01X39411Y4343D01*
G01X39470Y4310D01*
G01X39541Y4300D01*
G01X39599Y4306D01*
G01X39648Y4327D01*
G01X39697Y4362D01*
G01X39750Y4411D01*
G01X39764Y4367D01*
G01X39790Y4332D01*
G01X39827Y4310D01*
G01X39874Y4302D01*
G01X39909Y4306D01*
G01X39940Y4318D01*
G01X39967Y4340D01*
G01X39993Y4373D01*
G01X39968Y4399D01*
G01X39955Y4385D01*
G01X39942Y4374D01*
G01X39928Y4368D01*
G01X39912Y4366D01*
G01X39890Y4370D01*
G01X39875Y4386D01*
G01X39864Y4413D01*
G01X39861Y4455D01*
G01X39861Y4757D01*
G01X39858Y4817D01*
G01X39848Y4867D01*
G01X39831Y4908D01*
G01X39807Y4941D01*
G01X39778Y4966D01*
G01X39740Y4982D01*
G01X39696Y4993D01*
G37*

%LPC*%
G36*
G01X39747Y4462D02*
G01X39747Y4683D01*
G01X39709Y4673D01*
G01X39675Y4662D01*
G01X39643Y4651D01*
G01X39617Y4643D01*
G01X39544Y4605D01*
G01X39501Y4566D01*
G01X39480Y4528D01*
G01X39475Y4490D01*
G01X39484Y4441D01*
G01X39507Y4407D01*
G01X39543Y4387D01*
G01X39587Y4381D01*
G01X39623Y4385D01*
G01X39657Y4399D01*
G01X39696Y4424D01*
G01X39747Y4462D01*
G37*

%LPD*%
G36*
G01X38665Y4982D02*
G01X38579Y4996D01*
G01X38517Y4990D01*
G01X38457Y4972D01*
G01X38402Y4943D01*
G01X38353Y4903D01*
G01X38312Y4853D01*
G01X38281Y4793D01*
G01X38261Y4724D01*
G01X38254Y4645D01*
G01X38259Y4569D01*
G01X38276Y4501D01*
G01X38304Y4442D01*
G01X38340Y4392D01*
G01X38386Y4353D01*
G01X38440Y4324D01*
G01X38501Y4306D01*
G01X38568Y4300D01*
G01X38657Y4311D01*
G01X38730Y4345D01*
G01X38786Y4398D01*
G01X38825Y4470D01*
G01X38797Y4483D01*
G01X38758Y4438D01*
G01X38713Y4406D01*
G01X38660Y4386D01*
G01X38601Y4378D01*
G01X38554Y4383D01*
G01X38510Y4397D01*
G01X38471Y4420D01*
G01X38438Y4452D01*
G01X38410Y4491D01*
G01X38390Y4539D01*
G01X38377Y4595D01*
G01X38373Y4658D01*
G01X38377Y4722D01*
G01X38388Y4778D01*
G01X38407Y4827D01*
G01X38432Y4868D01*
G01X38463Y4900D01*
G01X38499Y4923D01*
G01X38541Y4937D01*
G01X38586Y4942D01*
G01X38603Y4942D01*
G01X38621Y4940D01*
G01X38642Y4936D01*
G01X38662Y4930D01*
G01X38688Y4833D01*
G01X38696Y4806D01*
G01X38711Y4785D01*
G01X38733Y4772D01*
G01X38762Y4767D01*
G01X38784Y4770D01*
G01X38802Y4780D01*
G01X38814Y4796D01*
G01X38822Y4818D01*
G01X38794Y4888D01*
G01X38740Y4945D01*
G01X38665Y4982D01*
G37*

%LPD*%
G36*
G01X37324Y4993D02*
G01X37273Y4996D01*
G01X37173Y4983D01*
G01X37093Y4949D01*
G01X37035Y4895D01*
G01X37004Y4823D01*
G01X37009Y4801D01*
G01X37021Y4784D01*
G01X37039Y4773D01*
G01X37065Y4770D01*
G01X37089Y4774D01*
G01X37109Y4786D01*
G01X37124Y4807D01*
G01X37136Y4836D01*
G01X37161Y4930D01*
G01X37183Y4936D01*
G01X37203Y4940D01*
G01X37222Y4942D01*
G01X37240Y4942D01*
G01X37300Y4935D01*
G01X37343Y4907D01*
G01X37367Y4854D01*
G01X37375Y4770D01*
G01X37375Y4726D01*
G01X37332Y4716D01*
G01X37290Y4705D01*
G01X37250Y4692D01*
G01X37215Y4681D01*
G01X37101Y4633D01*
G01X37031Y4583D01*
G01X36994Y4529D01*
G01X36984Y4470D01*
G01X36998Y4396D01*
G01X37038Y4343D01*
G01X37097Y4310D01*
G01X37169Y4300D01*
G01X37226Y4306D01*
G01X37276Y4327D01*
G01X37324Y4362D01*
G01X37377Y4411D01*
G01X37391Y4367D01*
G01X37417Y4332D01*
G01X37455Y4310D01*
G01X37502Y4302D01*
G01X37536Y4306D01*
G01X37567Y4318D01*
G01X37595Y4340D01*
G01X37621Y4373D01*
G01X37596Y4399D01*
G01X37582Y4385D01*
G01X37570Y4374D01*
G01X37556Y4368D01*
G01X37540Y4366D01*
G01X37518Y4370D01*
G01X37502Y4386D01*
G01X37492Y4413D01*
G01X37489Y4455D01*
G01X37489Y4757D01*
G01X37485Y4817D01*
G01X37476Y4867D01*
G01X37459Y4908D01*
G01X37435Y4941D01*
G01X37405Y4966D01*
G01X37368Y4982D01*
G01X37324Y4993D01*
G37*

%LPC*%
G36*
G01X37375Y4462D02*
G01X37375Y4683D01*
G01X37337Y4673D01*
G01X37302Y4662D01*
G01X37271Y4651D01*
G01X37245Y4643D01*
G01X37171Y4605D01*
G01X37128Y4566D01*
G01X37108Y4528D01*
G01X37103Y4490D01*
G01X37112Y4441D01*
G01X37135Y4407D01*
G01X37170Y4387D01*
G01X37215Y4381D01*
G01X37250Y4385D01*
G01X37284Y4399D01*
G01X37323Y4424D01*
G01X37375Y4462D01*
G37*

%LPD*%
G36*
G01X34503Y4993D02*
G01X34451Y4996D01*
G01X34353Y4983D01*
G01X34273Y4949D01*
G01X34215Y4895D01*
G01X34182Y4823D01*
G01X34188Y4801D01*
G01X34201Y4784D01*
G01X34220Y4773D01*
G01X34245Y4770D01*
G01X34270Y4774D01*
G01X34289Y4786D01*
G01X34304Y4807D01*
G01X34314Y4836D01*
G01X34342Y4930D01*
G01X34362Y4936D01*
G01X34382Y4940D01*
G01X34401Y4942D01*
G01X34421Y4942D01*
G01X34481Y4935D01*
G01X34522Y4907D01*
G01X34545Y4854D01*
G01X34553Y4770D01*
G01X34553Y4726D01*
G01X34511Y4716D01*
G01X34469Y4705D01*
G01X34429Y4692D01*
G01X34393Y4681D01*
G01X34281Y4633D01*
G01X34211Y4583D01*
G01X34174Y4529D01*
G01X34164Y4470D01*
G01X34178Y4396D01*
G01X34217Y4343D01*
G01X34275Y4310D01*
G01X34347Y4300D01*
G01X34404Y4306D01*
G01X34454Y4327D01*
G01X34502Y4362D01*
G01X34555Y4411D01*
G01X34571Y4367D01*
G01X34596Y4332D01*
G01X34633Y4310D01*
G01X34680Y4302D01*
G01X34714Y4306D01*
G01X34746Y4318D01*
G01X34774Y4340D01*
G01X34799Y4373D01*
G01X34774Y4399D01*
G01X34760Y4385D01*
G01X34748Y4374D01*
G01X34734Y4368D01*
G01X34718Y4366D01*
G01X34697Y4370D01*
G01X34681Y4386D01*
G01X34671Y4413D01*
G01X34667Y4455D01*
G01X34667Y4757D01*
G01X34664Y4817D01*
G01X34654Y4867D01*
G01X34638Y4908D01*
G01X34614Y4941D01*
G01X34584Y4966D01*
G01X34547Y4982D01*
G01X34503Y4993D01*
G37*

%LPC*%
G36*
G01X34553Y4462D02*
G01X34553Y4683D01*
G01X34517Y4673D01*
G01X34483Y4662D01*
G01X34452Y4651D01*
G01X34426Y4643D01*
G01X34352Y4605D01*
G01X34307Y4566D01*
G01X34287Y4528D01*
G01X34281Y4490D01*
G01X34290Y4441D01*
G01X34313Y4407D01*
G01X34350Y4387D01*
G01X34395Y4381D01*
G01X34429Y4385D01*
G01X34463Y4399D01*
G01X34503Y4424D01*
G01X34553Y4462D01*
G37*

%LPD*%
G36*
G01X33537Y4973D02*
G01X33524Y4988D01*
G01X33318Y4965D01*
G01X33318Y4925D01*
G01X33420Y4907D01*
G01X33415Y4551D01*
G01X33418Y4487D01*
G01X33428Y4434D01*
G01X33443Y4390D01*
G01X33464Y4356D01*
G01X33489Y4330D01*
G01X33521Y4313D01*
G01X33557Y4303D01*
G01X33598Y4300D01*
G01X33663Y4308D01*
G01X33727Y4333D01*
G01X33788Y4375D01*
G01X33844Y4432D01*
G01X33857Y4305D01*
G01X34050Y4318D01*
G01X34050Y4358D01*
G01X33956Y4373D01*
G01X33956Y4775D01*
G01X33958Y4973D01*
G01X33946Y4988D01*
G01X33745Y4965D01*
G01X33745Y4925D01*
G01X33844Y4904D01*
G01X33842Y4480D01*
G01X33795Y4441D01*
G01X33747Y4412D01*
G01X33697Y4395D01*
G01X33646Y4389D01*
G01X33596Y4397D01*
G01X33560Y4426D01*
G01X33539Y4479D01*
G01X33532Y4559D01*
G01X33532Y4775D01*
G01X33537Y4973D01*
G37*

%LPD*%
G36*
G01X32160Y4990D02*
G01X32099Y4996D01*
G01X32039Y4990D01*
G01X31981Y4973D01*
G01X31927Y4946D01*
G01X31880Y4907D01*
G01X31839Y4858D01*
G01X31809Y4798D01*
G01X31789Y4726D01*
G01X31782Y4645D01*
G01X31789Y4565D01*
G01X31809Y4495D01*
G01X31839Y4435D01*
G01X31880Y4387D01*
G01X31927Y4349D01*
G01X31981Y4322D01*
G01X32039Y4305D01*
G01X32099Y4300D01*
G01X32160Y4305D01*
G01X32217Y4322D01*
G01X32272Y4349D01*
G01X32320Y4387D01*
G01X32361Y4435D01*
G01X32392Y4495D01*
G01X32412Y4565D01*
G01X32419Y4645D01*
G01X32412Y4726D01*
G01X32392Y4798D01*
G01X32361Y4858D01*
G01X32320Y4907D01*
G01X32272Y4946D01*
G01X32217Y4973D01*
G01X32160Y4990D01*
G37*

%LPC*%
G36*
G01X32142Y4937D02*
G01X32099Y4942D01*
G01X32056Y4937D01*
G01X32018Y4923D01*
G01X31985Y4899D01*
G01X31958Y4866D01*
G01X31937Y4824D01*
G01X31921Y4773D01*
G01X31912Y4713D01*
G01X31909Y4645D01*
G01X31912Y4577D01*
G01X31921Y4518D01*
G01X31937Y4468D01*
G01X31958Y4427D01*
G01X31985Y4395D01*
G01X32018Y4371D01*
G01X32056Y4358D01*
G01X32099Y4353D01*
G01X32142Y4358D01*
G01X32181Y4371D01*
G01X32214Y4395D01*
G01X32241Y4427D01*
G01X32263Y4468D01*
G01X32279Y4518D01*
G01X32289Y4577D01*
G01X32292Y4645D01*
G01X32289Y4713D01*
G01X32279Y4773D01*
G01X32263Y4824D01*
G01X32241Y4866D01*
G01X32214Y4899D01*
G01X32181Y4923D01*
G01X32142Y4937D01*
G37*

%LPD*%
G36*
G01X31015Y5336D02*
G01X30997Y5346D01*
G01X30781Y5288D01*
G01X30781Y5247D01*
G01X30898Y5234D01*
G01X30898Y4907D01*
G01X30854Y4949D01*
G01X30809Y4977D01*
G01X30763Y4992D01*
G01X30715Y4996D01*
G01X30653Y4989D01*
G01X30596Y4970D01*
G01X30546Y4940D01*
G01X30502Y4899D01*
G01X30467Y4848D01*
G01X30440Y4788D01*
G01X30423Y4719D01*
G01X30418Y4643D01*
G01X30423Y4569D01*
G01X30438Y4502D01*
G01X30463Y4443D01*
G01X30497Y4394D01*
G01X30539Y4354D01*
G01X30588Y4325D01*
G01X30644Y4306D01*
G01X30705Y4300D01*
G01X30764Y4306D01*
G01X30815Y4326D01*
G01X30860Y4357D01*
G01X30900Y4399D01*
G01X30908Y4305D01*
G01X31124Y4318D01*
G01X31124Y4361D01*
G01X31009Y4373D01*
G01X31009Y5138D01*
G01X31015Y5336D01*
G37*

%LPC*%
G36*
G01X30774Y4921D02*
G01X30738Y4925D01*
G01X30699Y4920D01*
G01X30661Y4909D01*
G01X30628Y4888D01*
G01X30598Y4859D01*
G01X30574Y4820D01*
G01X30555Y4772D01*
G01X30544Y4714D01*
G01X30540Y4645D01*
G01X30544Y4578D01*
G01X30554Y4521D01*
G01X30572Y4473D01*
G01X30596Y4435D01*
G01X30625Y4407D01*
G01X30658Y4387D01*
G01X30696Y4375D01*
G01X30738Y4371D01*
G01X30780Y4374D01*
G01X30819Y4387D01*
G01X30857Y4411D01*
G01X30895Y4450D01*
G01X30895Y4853D01*
G01X30851Y4887D01*
G01X30812Y4909D01*
G01X30774Y4921D01*
G37*

%LPD*%
G36*
G01X29212Y4993D02*
G01X29160Y4996D01*
G01X29062Y4983D01*
G01X28982Y4949D01*
G01X28924Y4895D01*
G01X28891Y4823D01*
G01X28898Y4801D01*
G01X28910Y4784D01*
G01X28929Y4773D01*
G01X28955Y4770D01*
G01X28979Y4774D01*
G01X28998Y4786D01*
G01X29013Y4807D01*
G01X29023Y4836D01*
G01X29051Y4930D01*
G01X29071Y4936D01*
G01X29091Y4940D01*
G01X29111Y4942D01*
G01X29130Y4942D01*
G01X29190Y4935D01*
G01X29231Y4907D01*
G01X29254Y4854D01*
G01X29262Y4770D01*
G01X29262Y4726D01*
G01X29220Y4716D01*
G01X29178Y4705D01*
G01X29138Y4692D01*
G01X29102Y4681D01*
G01X28990Y4633D01*
G01X28920Y4583D01*
G01X28883Y4529D01*
G01X28873Y4470D01*
G01X28888Y4396D01*
G01X28927Y4343D01*
G01X28985Y4310D01*
G01X29056Y4300D01*
G01X29114Y4306D01*
G01X29163Y4327D01*
G01X29212Y4362D01*
G01X29264Y4411D01*
G01X29280Y4367D01*
G01X29306Y4332D01*
G01X29342Y4310D01*
G01X29389Y4302D01*
G01X29423Y4306D01*
G01X29455Y4318D01*
G01X29483Y4340D01*
G01X29508Y4373D01*
G01X29483Y4399D01*
G01X29470Y4385D01*
G01X29457Y4374D01*
G01X29443Y4368D01*
G01X29427Y4366D01*
G01X29406Y4370D01*
G01X29390Y4386D01*
G01X29380Y4413D01*
G01X29376Y4455D01*
G01X29376Y4757D01*
G01X29373Y4817D01*
G01X29363Y4867D01*
G01X29347Y4908D01*
G01X29323Y4941D01*
G01X29293Y4966D01*
G01X29256Y4982D01*
G01X29212Y4993D01*
G37*

%LPC*%
G36*
G01X29262Y4462D02*
G01X29262Y4683D01*
G01X29226Y4673D01*
G01X29192Y4662D01*
G01X29161Y4651D01*
G01X29135Y4643D01*
G01X29061Y4605D01*
G01X29017Y4566D01*
G01X28996Y4528D01*
G01X28990Y4490D01*
G01X28999Y4441D01*
G01X29023Y4407D01*
G01X29059Y4387D01*
G01X29104Y4381D01*
G01X29138Y4385D01*
G01X29172Y4399D01*
G01X29212Y4424D01*
G01X29262Y4462D01*
G37*

%LPD*%
G36*
G01X28150Y4991D02*
G01X28096Y4996D01*
G01X28033Y4989D01*
G01X27973Y4970D01*
G01X27919Y4940D01*
G01X27872Y4899D01*
G01X27832Y4848D01*
G01X27802Y4788D01*
G01X27783Y4719D01*
G01X27776Y4643D01*
G01X27782Y4566D01*
G01X27799Y4498D01*
G01X27826Y4439D01*
G01X27863Y4390D01*
G01X27909Y4352D01*
G01X27962Y4323D01*
G01X28023Y4306D01*
G01X28091Y4300D01*
G01X28176Y4311D01*
G01X28248Y4342D01*
G01X28307Y4392D01*
G01X28353Y4457D01*
G01X28325Y4478D01*
G01X28287Y4436D01*
G01X28243Y4405D01*
G01X28192Y4386D01*
G01X28129Y4378D01*
G01X28081Y4383D01*
G01X28037Y4396D01*
G01X27997Y4417D01*
G01X27964Y4447D01*
G01X27937Y4486D01*
G01X27916Y4533D01*
G01X27903Y4588D01*
G01X27898Y4653D01*
G01X28345Y4653D01*
G01X28350Y4668D01*
G01X28353Y4686D01*
G01X28355Y4707D01*
G01X28355Y4729D01*
G01X28350Y4788D01*
G01X28336Y4840D01*
G01X28312Y4886D01*
G01X28282Y4924D01*
G01X28244Y4955D01*
G01X28200Y4977D01*
G01X28150Y4991D01*
G37*

%LPC*%
G36*
G01X28151Y4929D02*
G01X28088Y4942D01*
G01X28024Y4929D01*
G01X27967Y4886D01*
G01X27923Y4813D01*
G01X27900Y4706D01*
G01X28167Y4704D01*
G01X28205Y4709D01*
G01X28228Y4724D01*
G01X28240Y4749D01*
G01X28243Y4780D01*
G01X28232Y4842D01*
G01X28200Y4894D01*
G01X28151Y4929D01*
G37*

%LPD*%
G36*
G01X36595Y5266D02*
G01X36514Y5270D01*
G01X36446Y5266D01*
G01X36382Y5254D01*
G01X36322Y5234D01*
G01X36266Y5207D01*
G01X36216Y5173D01*
G01X36171Y5133D01*
G01X36133Y5087D01*
G01X36100Y5036D01*
G01X36074Y4979D01*
G01X36054Y4918D01*
G01X36043Y4853D01*
G01X36039Y4785D01*
G01X36043Y4715D01*
G01X36054Y4650D01*
G01X36073Y4589D01*
G01X36099Y4532D01*
G01X36131Y4481D01*
G01X36169Y4434D01*
G01X36213Y4394D01*
G01X36263Y4360D01*
G01X36317Y4333D01*
G01X36377Y4313D01*
G01X36440Y4301D01*
G01X36509Y4297D01*
G01X36590Y4303D01*
G01X36667Y4319D01*
G01X36739Y4344D01*
G01X36811Y4378D01*
G01X36811Y4509D01*
G01X36812Y4575D01*
G01X36814Y4641D01*
G01X36816Y4706D01*
G01X36900Y4711D01*
G01X36900Y4759D01*
G01X36536Y4759D01*
G01X36536Y4711D01*
G01X36684Y4701D01*
G01X36685Y4636D01*
G01X36686Y4570D01*
G01X36686Y4386D01*
G01X36649Y4374D01*
G01X36611Y4365D01*
G01X36572Y4360D01*
G01X36531Y4358D01*
G01X36480Y4361D01*
G01X36431Y4371D01*
G01X36387Y4387D01*
G01X36346Y4409D01*
G01X36310Y4437D01*
G01X36277Y4470D01*
G01X36249Y4510D01*
G01X36226Y4555D01*
G01X36208Y4605D01*
G01X36195Y4660D01*
G01X36186Y4720D01*
G01X36183Y4785D01*
G01X36186Y4850D01*
G01X36195Y4910D01*
G01X36209Y4965D01*
G01X36228Y5014D01*
G01X36252Y5059D01*
G01X36280Y5098D01*
G01X36313Y5131D01*
G01X36350Y5159D01*
G01X36389Y5181D01*
G01X36432Y5196D01*
G01X36478Y5206D01*
G01X36526Y5209D01*
G01X36569Y5207D01*
G01X36609Y5199D01*
G01X36647Y5187D01*
G01X36684Y5168D01*
G01X36719Y4996D01*
G01X36793Y4996D01*
G01X36790Y5201D01*
G01X36732Y5231D01*
G01X36667Y5253D01*
G01X36595Y5266D01*
G37*

%LPD*%
G36*
G01X33278Y5247D02*
G01X32874Y5247D01*
G01X32874Y5199D01*
G01X33016Y5186D01*
G01X33018Y5040D01*
G01X33020Y4912D01*
G01X33021Y4803D01*
G01X33023Y4709D01*
G01X33024Y4629D01*
G01X33025Y4562D01*
G01X33026Y4506D01*
G01X33027Y4461D01*
G01X33028Y4423D01*
G01X33028Y4393D01*
G01X33029Y4367D01*
G01X33029Y4345D01*
G01X33025Y4278D01*
G01X33013Y4225D01*
G01X32993Y4182D01*
G01X32965Y4150D01*
G01X32930Y4183D01*
G01X32903Y4203D01*
G01X32878Y4216D01*
G01X32854Y4224D01*
G01X32831Y4226D01*
G01X32800Y4222D01*
G01X32775Y4210D01*
G01X32757Y4188D01*
G01X32747Y4157D01*
G01X32765Y4127D01*
G01X32792Y4108D01*
G01X32827Y4097D01*
G01X32866Y4094D01*
G01X32910Y4098D01*
G01X32953Y4108D01*
G01X32993Y4125D01*
G01X33030Y4148D01*
G01X33064Y4179D01*
G01X33092Y4216D01*
G01X33114Y4260D01*
G01X33128Y4310D01*
G01X33137Y4363D01*
G01X33143Y4426D01*
G01X33145Y4504D01*
G01X33146Y4605D01*
G01X33146Y5004D01*
G01X33147Y5096D01*
G01X33148Y5186D01*
G01X33278Y5199D01*
G01X33278Y5247D01*
G37*

%LPD*%
G36*
G01X28690Y4980D02*
G01X28673Y4993D01*
G01X28462Y4919D01*
G01X28462Y4876D01*
G01X28571Y4866D01*
G01X28574Y4823D01*
G01X28576Y4781D01*
G01X28576Y4383D01*
G01X28575Y4317D01*
G01X28573Y4259D01*
G01X28571Y4208D01*
G01X28566Y4164D01*
G01X28561Y4127D01*
G01X28554Y4096D01*
G01X28546Y4071D01*
G01X28534Y4049D01*
G01X28527Y4040D01*
G01X28520Y4033D01*
G01X28487Y4061D01*
G01X28462Y4079D01*
G01X28438Y4092D01*
G01X28414Y4099D01*
G01X28388Y4102D01*
G01X28360Y4098D01*
G01X28336Y4087D01*
G01X28318Y4070D01*
G01X28307Y4046D01*
G01X28315Y4020D01*
G01X28338Y3996D01*
G01X28377Y3979D01*
G01X28431Y3972D01*
G01X28486Y3977D01*
G01X28531Y3991D01*
G01X28571Y4016D01*
G01X28607Y4051D01*
G01X28629Y4081D01*
G01X28648Y4115D01*
G01X28661Y4153D01*
G01X28672Y4197D01*
G01X28679Y4248D01*
G01X28683Y4308D01*
G01X28685Y4378D01*
G01X28685Y4798D01*
G01X28690Y4980D01*
G37*

%LPD*%

%LPD*%
G36*
G01X37970Y3969D02*
G01X37951Y3972D01*
G01X37932Y3970D01*
G01X37914Y3960D01*
G01X37895Y3942D01*
G01X37875Y3914D01*
G01X37844Y3864D01*
G01X37784Y3768D01*
G01X37756Y3721D01*
G01X37784Y3698D01*
G01X37825Y3735D01*
G01X37867Y3772D01*
G01X37910Y3809D01*
G01X37954Y3845D01*
G01X37977Y3869D01*
G01X37992Y3889D01*
G01X38000Y3906D01*
G01X38002Y3921D01*
G01X37997Y3944D01*
G01X37986Y3960D01*
G01X37970Y3969D01*
G37*

%LPD*%
G36*
G01X41073Y3578D02*
G01X40557Y3578D01*
G01X40547Y3378D01*
G01X40608Y3373D01*
G01X40649Y3528D01*
G01X40941Y3528D01*
G01X40540Y2966D01*
G01X40540Y2921D01*
G01X41081Y2921D01*
G01X41093Y3144D01*
G01X41032Y3144D01*
G01X40987Y2971D01*
G01X40674Y2971D01*
G01X41073Y3538D01*
G01X41073Y3578D01*
G37*

%LPD*%
G36*
G01X38719Y3595D02*
G01X38678Y3599D01*
G01X38612Y3590D01*
G01X38546Y3564D01*
G01X38483Y3522D01*
G01X38426Y3469D01*
G01X38416Y3583D01*
G01X38396Y3596D01*
G01X38200Y3520D01*
G01X38200Y3479D01*
G01X38312Y3469D01*
G01X38313Y3426D01*
G01X38314Y3384D01*
G01X38314Y3098D01*
G01X38313Y3036D01*
G01X38312Y2979D01*
G01X38210Y2964D01*
G01X38210Y2921D01*
G01X38530Y2921D01*
G01X38530Y2964D01*
G01X38434Y2979D01*
G01X38432Y3036D01*
G01X38432Y3098D01*
G01X38431Y3158D01*
G01X38431Y3418D01*
G01X38483Y3461D01*
G01X38532Y3489D01*
G01X38579Y3505D01*
G01X38624Y3510D01*
G01X38677Y3502D01*
G01X38713Y3474D01*
G01X38735Y3422D01*
G01X38741Y3342D01*
G01X38741Y3158D01*
G01X38740Y3098D01*
G01X38739Y3036D01*
G01X38739Y2979D01*
G01X38635Y2964D01*
G01X38635Y2921D01*
G01X38955Y2921D01*
G01X38955Y2964D01*
G01X38858Y2979D01*
G01X38856Y3036D01*
G01X38856Y3098D01*
G01X38855Y3158D01*
G01X38855Y3347D01*
G01X38852Y3409D01*
G01X38844Y3462D01*
G01X38830Y3505D01*
G01X38810Y3540D01*
G01X38785Y3566D01*
G01X38755Y3584D01*
G01X38719Y3595D01*
G37*

%LPD*%
G36*
G01X37172Y3595D02*
G01X37131Y3599D01*
G01X37065Y3590D01*
G01X36999Y3564D01*
G01X36937Y3522D01*
G01X36879Y3469D01*
G01X36869Y3583D01*
G01X36849Y3596D01*
G01X36656Y3520D01*
G01X36656Y3479D01*
G01X36765Y3469D01*
G01X36767Y3426D01*
G01X36769Y3384D01*
G01X36770Y3338D01*
G01X36770Y3158D01*
G01X36769Y3098D01*
G01X36767Y3036D01*
G01X36765Y2979D01*
G01X36663Y2964D01*
G01X36663Y2921D01*
G01X36984Y2921D01*
G01X36984Y2964D01*
G01X36887Y2979D01*
G01X36886Y3036D01*
G01X36886Y3098D01*
G01X36885Y3158D01*
G01X36884Y3213D01*
G01X36884Y3418D01*
G01X36936Y3461D01*
G01X36985Y3489D01*
G01X37032Y3505D01*
G01X37077Y3510D01*
G01X37131Y3502D01*
G01X37167Y3474D01*
G01X37188Y3422D01*
G01X37194Y3342D01*
G01X37194Y3098D01*
G01X37193Y3036D01*
G01X37192Y2979D01*
G01X37090Y2964D01*
G01X37090Y2921D01*
G01X37408Y2921D01*
G01X37408Y2964D01*
G01X37311Y2979D01*
G01X37311Y3036D01*
G01X37310Y3098D01*
G01X37309Y3158D01*
G01X37309Y3347D01*
G01X37306Y3409D01*
G01X37297Y3462D01*
G01X37283Y3505D01*
G01X37263Y3540D01*
G01X37239Y3566D01*
G01X37208Y3584D01*
G01X37172Y3595D01*
G37*

%LPD*%
G36*
G01X36530Y3595D02*
G01X36498Y3599D01*
G01X36441Y3586D01*
G01X36386Y3551D01*
G01X36335Y3494D01*
G01X36295Y3416D01*
G01X36282Y3583D01*
G01X36262Y3596D01*
G01X36067Y3520D01*
G01X36067Y3479D01*
G01X36178Y3469D01*
G01X36180Y3426D01*
G01X36180Y3384D01*
G01X36181Y3338D01*
G01X36181Y3158D01*
G01X36180Y3098D01*
G01X36180Y3036D01*
G01X36178Y2979D01*
G01X36077Y2964D01*
G01X36077Y2921D01*
G01X36415Y2921D01*
G01X36415Y2964D01*
G01X36300Y2981D01*
G01X36299Y3037D01*
G01X36298Y3158D01*
G01X36298Y3322D01*
G01X36319Y3380D01*
G01X36346Y3430D01*
G01X36378Y3471D01*
G01X36417Y3505D01*
G01X36435Y3489D01*
G01X36455Y3474D01*
G01X36475Y3462D01*
G01X36497Y3454D01*
G01X36521Y3451D01*
G01X36556Y3458D01*
G01X36581Y3478D01*
G01X36595Y3508D01*
G01X36600Y3548D01*
G01X36583Y3569D01*
G01X36559Y3584D01*
G01X36530Y3595D01*
G37*

%LPD*%
G36*
G01X35322Y3850D02*
G01X34631Y3850D01*
G01X34631Y3802D01*
G01X34761Y3789D01*
G01X34763Y3697D01*
G01X34763Y3605D01*
G01X34764Y3513D01*
G01X34764Y3258D01*
G01X34763Y3165D01*
G01X34763Y3073D01*
G01X34761Y2981D01*
G01X34631Y2969D01*
G01X34631Y2921D01*
G01X35025Y2921D01*
G01X35025Y2969D01*
G01X34891Y2984D01*
G01X34891Y3368D01*
G01X35109Y3368D01*
G01X35127Y3220D01*
G01X35185Y3220D01*
G01X35185Y3558D01*
G01X35127Y3558D01*
G01X35109Y3421D01*
G01X34891Y3421D01*
G01X34891Y3792D01*
G01X35223Y3792D01*
G01X35261Y3606D01*
G01X35330Y3606D01*
G01X35322Y3850D01*
G37*

%LPD*%
G36*
G01X31149Y3939D02*
G01X31131Y3949D01*
G01X30915Y3891D01*
G01X30915Y3850D01*
G01X31030Y3837D01*
G01X31030Y3213D01*
G01X31029Y3155D01*
G01X31029Y3096D01*
G01X31028Y3037D01*
G01X31027Y2979D01*
G01X30915Y2964D01*
G01X30915Y2921D01*
G01X31258Y2921D01*
G01X31258Y2964D01*
G01X31147Y2979D01*
G01X31145Y3037D01*
G01X31144Y3155D01*
G01X31144Y3741D01*
G01X31149Y3939D01*
G37*

%LPD*%
G36*
G01X27663Y3595D02*
G01X27631Y3599D01*
G01X27573Y3586D01*
G01X27517Y3551D01*
G01X27468Y3494D01*
G01X27428Y3416D01*
G01X27415Y3583D01*
G01X27395Y3596D01*
G01X27199Y3520D01*
G01X27199Y3479D01*
G01X27309Y3469D01*
G01X27312Y3426D01*
G01X27313Y3384D01*
G01X27314Y3338D01*
G01X27314Y3158D01*
G01X27313Y3098D01*
G01X27313Y3036D01*
G01X27311Y2979D01*
G01X27210Y2964D01*
G01X27210Y2921D01*
G01X27547Y2921D01*
G01X27547Y2964D01*
G01X27431Y2981D01*
G01X27431Y3322D01*
G01X27452Y3380D01*
G01X27479Y3430D01*
G01X27511Y3471D01*
G01X27550Y3505D01*
G01X27568Y3489D01*
G01X27587Y3474D01*
G01X27608Y3462D01*
G01X27629Y3454D01*
G01X27652Y3451D01*
G01X27689Y3458D01*
G01X27714Y3478D01*
G01X27728Y3508D01*
G01X27733Y3548D01*
G01X27716Y3569D01*
G01X27692Y3584D01*
G01X27663Y3595D01*
G37*

%LPD*%
G36*
G01X26083Y3595D02*
G01X26041Y3599D01*
G01X25976Y3590D01*
G01X25911Y3564D01*
G01X25848Y3522D01*
G01X25790Y3469D01*
G01X25780Y3583D01*
G01X25762Y3596D01*
G01X25566Y3520D01*
G01X25566Y3479D01*
G01X25675Y3469D01*
G01X25677Y3426D01*
G01X25679Y3384D01*
G01X25680Y3338D01*
G01X25681Y3284D01*
G01X25681Y3213D01*
G01X25680Y3158D01*
G01X25679Y3098D01*
G01X25678Y3036D01*
G01X25678Y2979D01*
G01X25574Y2964D01*
G01X25574Y2921D01*
G01X25894Y2921D01*
G01X25894Y2964D01*
G01X25797Y2979D01*
G01X25796Y3036D01*
G01X25795Y3098D01*
G01X25795Y3418D01*
G01X25848Y3461D01*
G01X25896Y3489D01*
G01X25944Y3505D01*
G01X25990Y3510D01*
G01X26043Y3502D01*
G01X26078Y3474D01*
G01X26098Y3422D01*
G01X26105Y3342D01*
G01X26105Y3213D01*
G01X26104Y3158D01*
G01X26104Y3098D01*
G01X26103Y3036D01*
G01X26102Y2979D01*
G01X26001Y2964D01*
G01X26001Y2921D01*
G01X26321Y2921D01*
G01X26321Y2964D01*
G01X26222Y2979D01*
G01X26220Y3036D01*
G01X26219Y3098D01*
G01X26219Y3347D01*
G01X26216Y3409D01*
G01X26208Y3462D01*
G01X26194Y3505D01*
G01X26175Y3540D01*
G01X26150Y3566D01*
G01X26119Y3584D01*
G01X26083Y3595D01*
G37*

%LPD*%
G36*
G01X25096Y3858D02*
G01X25015Y3858D01*
G01X24720Y2987D01*
G01X24606Y2969D01*
G01X24606Y2921D01*
G01X24916Y2921D01*
G01X24916Y2969D01*
G01X24779Y2987D01*
G01X24860Y3230D01*
G01X25183Y3230D01*
G01X25264Y2987D01*
G01X25127Y2969D01*
G01X25127Y2921D01*
G01X25505Y2921D01*
G01X25505Y2969D01*
G01X25396Y2981D01*
G01X25096Y3858D01*
G37*

%LPC*%
G36*
G01X25165Y3284D02*
G01X25020Y3716D01*
G01X24878Y3284D01*
G01X25165Y3284D01*
G37*

%LPD*%
G36*
G01X40223Y3594D02*
G01X40169Y3599D01*
G01X40106Y3592D01*
G01X40047Y3573D01*
G01X39993Y3543D01*
G01X39946Y3502D01*
G01X39907Y3451D01*
G01X39877Y3391D01*
G01X39858Y3322D01*
G01X39851Y3246D01*
G01X39857Y3169D01*
G01X39874Y3101D01*
G01X39901Y3042D01*
G01X39938Y2993D01*
G01X39983Y2955D01*
G01X40037Y2926D01*
G01X40097Y2909D01*
G01X40164Y2903D01*
G01X40250Y2914D01*
G01X40323Y2945D01*
G01X40383Y2995D01*
G01X40428Y3060D01*
G01X40400Y3081D01*
G01X40361Y3039D01*
G01X40318Y3008D01*
G01X40266Y2989D01*
G01X40204Y2981D01*
G01X40155Y2986D01*
G01X40111Y2999D01*
G01X40072Y3020D01*
G01X40038Y3050D01*
G01X40011Y3089D01*
G01X39991Y3136D01*
G01X39978Y3191D01*
G01X39973Y3256D01*
G01X40420Y3256D01*
G01X40424Y3271D01*
G01X40427Y3289D01*
G01X40429Y3310D01*
G01X40430Y3332D01*
G01X40425Y3391D01*
G01X40410Y3443D01*
G01X40387Y3489D01*
G01X40356Y3527D01*
G01X40318Y3558D01*
G01X40273Y3580D01*
G01X40223Y3594D01*
G37*

%LPC*%
G36*
G01X40225Y3532D02*
G01X40164Y3545D01*
G01X40100Y3532D01*
G01X40042Y3489D01*
G01X39997Y3416D01*
G01X39973Y3309D01*
G01X40242Y3307D01*
G01X40279Y3312D01*
G01X40302Y3327D01*
G01X40313Y3352D01*
G01X40316Y3383D01*
G01X40305Y3445D01*
G01X40273Y3497D01*
G01X40225Y3532D01*
G37*

%LPD*%
G36*
G01X39656Y3939D02*
G01X39638Y3949D01*
G01X39422Y3891D01*
G01X39422Y3850D01*
G01X39539Y3837D01*
G01X39539Y3510D01*
G01X39495Y3552D01*
G01X39450Y3580D01*
G01X39404Y3595D01*
G01X39356Y3599D01*
G01X39294Y3592D01*
G01X39237Y3573D01*
G01X39187Y3543D01*
G01X39144Y3502D01*
G01X39108Y3451D01*
G01X39081Y3391D01*
G01X39064Y3322D01*
G01X39059Y3246D01*
G01X39064Y3172D01*
G01X39080Y3105D01*
G01X39104Y3046D01*
G01X39138Y2997D01*
G01X39180Y2957D01*
G01X39229Y2928D01*
G01X39285Y2909D01*
G01X39346Y2903D01*
G01X39405Y2909D01*
G01X39456Y2929D01*
G01X39501Y2960D01*
G01X39541Y3002D01*
G01X39549Y2908D01*
G01X39765Y2921D01*
G01X39765Y2964D01*
G01X39651Y2976D01*
G01X39651Y3741D01*
G01X39656Y3939D01*
G37*

%LPC*%
G36*
G01X39415Y3524D02*
G01X39379Y3528D01*
G01X39340Y3523D01*
G01X39303Y3512D01*
G01X39269Y3491D01*
G01X39240Y3462D01*
G01X39215Y3423D01*
G01X39196Y3375D01*
G01X39185Y3317D01*
G01X39181Y3248D01*
G01X39185Y3181D01*
G01X39195Y3124D01*
G01X39213Y3076D01*
G01X39237Y3038D01*
G01X39266Y3010D01*
G01X39299Y2990D01*
G01X39338Y2978D01*
G01X39379Y2974D01*
G01X39421Y2977D01*
G01X39461Y2990D01*
G01X39498Y3014D01*
G01X39536Y3053D01*
G01X39536Y3456D01*
G01X39493Y3490D01*
G01X39453Y3512D01*
G01X39415Y3524D01*
G37*

%LPD*%
G36*
G01X37853Y3596D02*
G01X37801Y3599D01*
G01X37703Y3586D01*
G01X37623Y3552D01*
G01X37565Y3498D01*
G01X37532Y3426D01*
G01X37539Y3404D01*
G01X37551Y3387D01*
G01X37570Y3376D01*
G01X37596Y3373D01*
G01X37620Y3377D01*
G01X37639Y3389D01*
G01X37654Y3410D01*
G01X37664Y3439D01*
G01X37692Y3533D01*
G01X37712Y3539D01*
G01X37732Y3543D01*
G01X37752Y3545D01*
G01X37771Y3545D01*
G01X37831Y3538D01*
G01X37872Y3510D01*
G01X37895Y3457D01*
G01X37903Y3373D01*
G01X37903Y3329D01*
G01X37861Y3319D01*
G01X37819Y3308D01*
G01X37780Y3295D01*
G01X37743Y3284D01*
G01X37631Y3236D01*
G01X37561Y3186D01*
G01X37525Y3132D01*
G01X37514Y3073D01*
G01X37529Y2999D01*
G01X37568Y2946D01*
G01X37627Y2913D01*
G01X37700Y2903D01*
G01X37756Y2909D01*
G01X37804Y2930D01*
G01X37853Y2965D01*
G01X37906Y3014D01*
G01X37921Y2970D01*
G01X37948Y2935D01*
G01X37984Y2913D01*
G01X38030Y2905D01*
G01X38066Y2909D01*
G01X38097Y2921D01*
G01X38125Y2943D01*
G01X38149Y2976D01*
G01X38124Y3002D01*
G01X38111Y2988D01*
G01X38098Y2977D01*
G01X38085Y2971D01*
G01X38071Y2969D01*
G01X38048Y2973D01*
G01X38032Y2989D01*
G01X38021Y3016D01*
G01X38017Y3058D01*
G01X38017Y3360D01*
G01X38014Y3420D01*
G01X38004Y3470D01*
G01X37988Y3511D01*
G01X37964Y3544D01*
G01X37934Y3569D01*
G01X37897Y3585D01*
G01X37853Y3596D01*
G37*

%LPC*%
G36*
G01X37903Y3065D02*
G01X37903Y3286D01*
G01X37867Y3276D01*
G01X37833Y3265D01*
G01X37802Y3254D01*
G01X37776Y3246D01*
G01X37702Y3208D01*
G01X37658Y3169D01*
G01X37637Y3131D01*
G01X37631Y3093D01*
G01X37640Y3044D01*
G01X37664Y3010D01*
G01X37700Y2990D01*
G01X37746Y2984D01*
G01X37780Y2988D01*
G01X37814Y3002D01*
G01X37853Y3027D01*
G01X37903Y3065D01*
G37*

%LPD*%
G36*
G01X35750Y3594D02*
G01X35696Y3599D01*
G01X35632Y3592D01*
G01X35573Y3573D01*
G01X35518Y3543D01*
G01X35471Y3502D01*
G01X35432Y3451D01*
G01X35402Y3391D01*
G01X35382Y3322D01*
G01X35376Y3246D01*
G01X35381Y3169D01*
G01X35399Y3101D01*
G01X35426Y3042D01*
G01X35463Y2993D01*
G01X35508Y2955D01*
G01X35562Y2926D01*
G01X35623Y2909D01*
G01X35691Y2903D01*
G01X35776Y2914D01*
G01X35848Y2945D01*
G01X35907Y2995D01*
G01X35952Y3060D01*
G01X35924Y3081D01*
G01X35886Y3039D01*
G01X35843Y3008D01*
G01X35791Y2989D01*
G01X35729Y2981D01*
G01X35680Y2986D01*
G01X35636Y2999D01*
G01X35597Y3020D01*
G01X35564Y3050D01*
G01X35536Y3089D01*
G01X35516Y3136D01*
G01X35503Y3191D01*
G01X35498Y3256D01*
G01X35945Y3256D01*
G01X35949Y3271D01*
G01X35953Y3289D01*
G01X35954Y3310D01*
G01X35955Y3332D01*
G01X35950Y3391D01*
G01X35935Y3443D01*
G01X35912Y3489D01*
G01X35882Y3527D01*
G01X35844Y3558D01*
G01X35799Y3580D01*
G01X35750Y3594D01*
G37*

%LPC*%
G36*
G01X35751Y3532D02*
G01X35688Y3545D01*
G01X35625Y3532D01*
G01X35567Y3489D01*
G01X35523Y3416D01*
G01X35500Y3309D01*
G01X35767Y3307D01*
G01X35804Y3312D01*
G01X35828Y3327D01*
G01X35839Y3352D01*
G01X35843Y3383D01*
G01X35832Y3445D01*
G01X35800Y3497D01*
G01X35751Y3532D01*
G37*

%LPD*%
G36*
G01X33922Y3593D02*
G01X33862Y3599D01*
G01X33801Y3593D01*
G01X33743Y3576D01*
G01X33689Y3549D01*
G01X33641Y3510D01*
G01X33600Y3461D01*
G01X33569Y3401D01*
G01X33549Y3329D01*
G01X33542Y3248D01*
G01X33549Y3168D01*
G01X33569Y3098D01*
G01X33600Y3038D01*
G01X33640Y2990D01*
G01X33688Y2952D01*
G01X33742Y2925D01*
G01X33801Y2908D01*
G01X33862Y2903D01*
G01X33922Y2908D01*
G01X33980Y2925D01*
G01X34035Y2952D01*
G01X34083Y2990D01*
G01X34123Y3038D01*
G01X34155Y3098D01*
G01X34175Y3168D01*
G01X34182Y3248D01*
G01X34175Y3329D01*
G01X34154Y3401D01*
G01X34123Y3461D01*
G01X34082Y3510D01*
G01X34034Y3549D01*
G01X33979Y3576D01*
G01X33922Y3593D01*
G37*

%LPC*%
G36*
G01X33905Y3540D02*
G01X33862Y3545D01*
G01X33819Y3540D01*
G01X33780Y3526D01*
G01X33747Y3502D01*
G01X33720Y3469D01*
G01X33698Y3427D01*
G01X33682Y3376D01*
G01X33672Y3316D01*
G01X33669Y3248D01*
G01X33672Y3180D01*
G01X33682Y3121D01*
G01X33698Y3071D01*
G01X33720Y3030D01*
G01X33747Y2998D01*
G01X33780Y2974D01*
G01X33819Y2961D01*
G01X33862Y2956D01*
G01X33905Y2961D01*
G01X33942Y2974D01*
G01X33975Y2998D01*
G01X34002Y3030D01*
G01X34023Y3071D01*
G01X34039Y3121D01*
G01X34049Y3180D01*
G01X34052Y3248D01*
G01X34049Y3316D01*
G01X34039Y3376D01*
G01X34023Y3427D01*
G01X34002Y3469D01*
G01X33975Y3502D01*
G01X33942Y3526D01*
G01X33905Y3540D01*
G37*

%LPD*%
G36*
G01X33346Y3939D02*
G01X33328Y3949D01*
G01X33115Y3891D01*
G01X33115Y3850D01*
G01X33232Y3837D01*
G01X33232Y3510D01*
G01X33188Y3552D01*
G01X33143Y3580D01*
G01X33096Y3595D01*
G01X33049Y3599D01*
G01X32987Y3592D01*
G01X32930Y3573D01*
G01X32879Y3543D01*
G01X32836Y3502D01*
G01X32800Y3451D01*
G01X32774Y3391D01*
G01X32757Y3322D01*
G01X32752Y3246D01*
G01X32757Y3172D01*
G01X32772Y3105D01*
G01X32797Y3046D01*
G01X32830Y2997D01*
G01X32872Y2957D01*
G01X32920Y2928D01*
G01X32975Y2909D01*
G01X33036Y2903D01*
G01X33097Y2909D01*
G01X33149Y2929D01*
G01X33193Y2960D01*
G01X33232Y3002D01*
G01X33240Y2908D01*
G01X33455Y2921D01*
G01X33455Y2964D01*
G01X33344Y2976D01*
G01X33344Y3741D01*
G01X33346Y3939D01*
G37*

%LPC*%
G36*
G01X33107Y3524D02*
G01X33072Y3528D01*
G01X33033Y3523D01*
G01X32996Y3512D01*
G01X32962Y3491D01*
G01X32933Y3462D01*
G01X32908Y3423D01*
G01X32890Y3375D01*
G01X32878Y3317D01*
G01X32874Y3248D01*
G01X32878Y3181D01*
G01X32889Y3124D01*
G01X32906Y3076D01*
G01X32930Y3038D01*
G01X32959Y3010D01*
G01X32992Y2990D01*
G01X33029Y2978D01*
G01X33069Y2974D01*
G01X33113Y2977D01*
G01X33152Y2990D01*
G01X33190Y3014D01*
G01X33229Y3053D01*
G01X33229Y3456D01*
G01X33184Y3490D01*
G01X33144Y3512D01*
G01X33107Y3524D01*
G37*

%LPD*%
G36*
G01X32384Y3596D02*
G01X32333Y3599D01*
G01X32233Y3586D01*
G01X32152Y3552D01*
G01X32095Y3498D01*
G01X32064Y3426D01*
G01X32069Y3404D01*
G01X32081Y3387D01*
G01X32099Y3376D01*
G01X32124Y3373D01*
G01X32149Y3377D01*
G01X32169Y3389D01*
G01X32184Y3410D01*
G01X32196Y3439D01*
G01X32221Y3533D01*
G01X32243Y3539D01*
G01X32263Y3543D01*
G01X32282Y3545D01*
G01X32300Y3545D01*
G01X32360Y3538D01*
G01X32402Y3510D01*
G01X32427Y3457D01*
G01X32434Y3373D01*
G01X32434Y3329D01*
G01X32392Y3319D01*
G01X32350Y3308D01*
G01X32310Y3295D01*
G01X32274Y3284D01*
G01X32161Y3236D01*
G01X32090Y3186D01*
G01X32053Y3132D01*
G01X32043Y3073D01*
G01X32058Y2999D01*
G01X32098Y2946D01*
G01X32157Y2913D01*
G01X32229Y2903D01*
G01X32286Y2909D01*
G01X32336Y2930D01*
G01X32384Y2965D01*
G01X32437Y3014D01*
G01X32451Y2970D01*
G01X32477Y2935D01*
G01X32515Y2913D01*
G01X32561Y2905D01*
G01X32596Y2909D01*
G01X32627Y2921D01*
G01X32655Y2943D01*
G01X32681Y2976D01*
G01X32655Y3002D01*
G01X32642Y2988D01*
G01X32629Y2977D01*
G01X32615Y2971D01*
G01X32599Y2969D01*
G01X32578Y2973D01*
G01X32562Y2989D01*
G01X32552Y3016D01*
G01X32549Y3058D01*
G01X32549Y3360D01*
G01X32545Y3420D01*
G01X32535Y3470D01*
G01X32519Y3511D01*
G01X32495Y3544D01*
G01X32465Y3569D01*
G01X32428Y3585D01*
G01X32384Y3596D01*
G37*

%LPC*%
G36*
G01X32434Y3065D02*
G01X32434Y3286D01*
G01X32397Y3276D01*
G01X32362Y3265D01*
G01X32331Y3254D01*
G01X32305Y3246D01*
G01X32231Y3208D01*
G01X32188Y3169D01*
G01X32168Y3131D01*
G01X32163Y3093D01*
G01X32171Y3044D01*
G01X32195Y3010D01*
G01X32230Y2990D01*
G01X32274Y2984D01*
G01X32310Y2988D01*
G01X32344Y3002D01*
G01X32383Y3027D01*
G01X32434Y3065D01*
G37*

%LPD*%
G36*
G01X30573Y3596D02*
G01X30522Y3599D01*
G01X30422Y3586D01*
G01X30341Y3552D01*
G01X30284Y3498D01*
G01X30253Y3426D01*
G01X30258Y3404D01*
G01X30270Y3387D01*
G01X30288Y3376D01*
G01X30313Y3373D01*
G01X30338Y3377D01*
G01X30358Y3389D01*
G01X30373Y3410D01*
G01X30385Y3439D01*
G01X30410Y3533D01*
G01X30432Y3539D01*
G01X30452Y3543D01*
G01X30471Y3545D01*
G01X30489Y3545D01*
G01X30549Y3538D01*
G01X30591Y3510D01*
G01X30616Y3457D01*
G01X30623Y3373D01*
G01X30623Y3329D01*
G01X30581Y3319D01*
G01X30539Y3308D01*
G01X30499Y3295D01*
G01X30463Y3284D01*
G01X30350Y3236D01*
G01X30279Y3186D01*
G01X30242Y3132D01*
G01X30232Y3073D01*
G01X30247Y2999D01*
G01X30287Y2946D01*
G01X30346Y2913D01*
G01X30418Y2903D01*
G01X30475Y2909D01*
G01X30525Y2930D01*
G01X30573Y2965D01*
G01X30626Y3014D01*
G01X30640Y2970D01*
G01X30666Y2935D01*
G01X30704Y2913D01*
G01X30750Y2905D01*
G01X30785Y2909D01*
G01X30816Y2921D01*
G01X30844Y2943D01*
G01X30870Y2976D01*
G01X30844Y3002D01*
G01X30831Y2988D01*
G01X30818Y2977D01*
G01X30804Y2971D01*
G01X30788Y2969D01*
G01X30767Y2973D01*
G01X30751Y2989D01*
G01X30741Y3016D01*
G01X30738Y3058D01*
G01X30738Y3360D01*
G01X30734Y3420D01*
G01X30724Y3470D01*
G01X30708Y3511D01*
G01X30684Y3544D01*
G01X30654Y3569D01*
G01X30617Y3585D01*
G01X30573Y3596D01*
G37*

%LPC*%
G36*
G01X30623Y3065D02*
G01X30623Y3286D01*
G01X30586Y3276D01*
G01X30551Y3265D01*
G01X30520Y3254D01*
G01X30494Y3246D01*
G01X30420Y3208D01*
G01X30377Y3169D01*
G01X30357Y3131D01*
G01X30352Y3093D01*
G01X30360Y3044D01*
G01X30384Y3010D01*
G01X30419Y2990D01*
G01X30463Y2984D01*
G01X30499Y2988D01*
G01X30533Y3002D01*
G01X30572Y3027D01*
G01X30623Y3065D01*
G37*

%LPD*%
G36*
G01X28823Y3596D02*
G01X28772Y3599D01*
G01X28673Y3586D01*
G01X28593Y3552D01*
G01X28535Y3498D01*
G01X28502Y3426D01*
G01X28509Y3404D01*
G01X28522Y3387D01*
G01X28541Y3376D01*
G01X28566Y3373D01*
G01X28590Y3377D01*
G01X28610Y3389D01*
G01X28624Y3410D01*
G01X28635Y3439D01*
G01X28662Y3533D01*
G01X28683Y3539D01*
G01X28703Y3543D01*
G01X28722Y3545D01*
G01X28741Y3545D01*
G01X28802Y3538D01*
G01X28842Y3510D01*
G01X28866Y3457D01*
G01X28873Y3373D01*
G01X28873Y3329D01*
G01X28831Y3319D01*
G01X28789Y3308D01*
G01X28750Y3295D01*
G01X28713Y3284D01*
G01X28602Y3236D01*
G01X28531Y3186D01*
G01X28495Y3132D01*
G01X28485Y3073D01*
G01X28499Y2999D01*
G01X28538Y2946D01*
G01X28596Y2913D01*
G01X28668Y2903D01*
G01X28725Y2909D01*
G01X28775Y2930D01*
G01X28823Y2965D01*
G01X28876Y3014D01*
G01X28891Y2970D01*
G01X28917Y2935D01*
G01X28954Y2913D01*
G01X29000Y2905D01*
G01X29035Y2909D01*
G01X29067Y2921D01*
G01X29095Y2943D01*
G01X29120Y2976D01*
G01X29094Y3002D01*
G01X29081Y2988D01*
G01X29068Y2977D01*
G01X29054Y2971D01*
G01X29038Y2969D01*
G01X29018Y2973D01*
G01X29002Y2989D01*
G01X28991Y3016D01*
G01X28988Y3058D01*
G01X28988Y3360D01*
G01X28985Y3420D01*
G01X28974Y3470D01*
G01X28958Y3511D01*
G01X28935Y3544D01*
G01X28905Y3569D01*
G01X28868Y3585D01*
G01X28823Y3596D01*
G37*

%LPC*%
G36*
G01X28873Y3065D02*
G01X28873Y3286D01*
G01X28837Y3276D01*
G01X28803Y3265D01*
G01X28772Y3254D01*
G01X28746Y3246D01*
G01X28672Y3208D01*
G01X28628Y3169D01*
G01X28607Y3131D01*
G01X28602Y3093D01*
G01X28610Y3044D01*
G01X28634Y3010D01*
G01X28670Y2990D01*
G01X28716Y2984D01*
G01X28750Y2988D01*
G01X28784Y3002D01*
G01X28823Y3027D01*
G01X28873Y3065D01*
G37*

%LPD*%
G36*
G01X28161Y3594D02*
G01X28106Y3599D01*
G01X28043Y3592D01*
G01X27983Y3573D01*
G01X27929Y3543D01*
G01X27882Y3502D01*
G01X27842Y3451D01*
G01X27812Y3391D01*
G01X27793Y3322D01*
G01X27786Y3246D01*
G01X27792Y3169D01*
G01X27809Y3101D01*
G01X27836Y3042D01*
G01X27873Y2993D01*
G01X27919Y2955D01*
G01X27973Y2926D01*
G01X28034Y2909D01*
G01X28101Y2903D01*
G01X28186Y2914D01*
G01X28259Y2945D01*
G01X28318Y2995D01*
G01X28363Y3060D01*
G01X28335Y3081D01*
G01X28297Y3039D01*
G01X28253Y3008D01*
G01X28202Y2989D01*
G01X28139Y2981D01*
G01X28090Y2986D01*
G01X28046Y2999D01*
G01X28007Y3020D01*
G01X27973Y3050D01*
G01X27946Y3089D01*
G01X27926Y3136D01*
G01X27913Y3191D01*
G01X27908Y3256D01*
G01X28355Y3256D01*
G01X28360Y3271D01*
G01X28363Y3289D01*
G01X28365Y3310D01*
G01X28365Y3332D01*
G01X28360Y3391D01*
G01X28346Y3443D01*
G01X28323Y3489D01*
G01X28292Y3527D01*
G01X28254Y3558D01*
G01X28210Y3580D01*
G01X28161Y3594D01*
G37*

%LPC*%
G36*
G01X28160Y3532D02*
G01X28099Y3545D01*
G01X28035Y3532D01*
G01X27977Y3489D01*
G01X27933Y3416D01*
G01X27911Y3309D01*
G01X28177Y3307D01*
G01X28214Y3312D01*
G01X28237Y3327D01*
G01X28248Y3352D01*
G01X28251Y3383D01*
G01X28240Y3445D01*
G01X28208Y3497D01*
G01X28160Y3532D01*
G37*

%LPD*%
G36*
G01X27019Y3939D02*
G01X27001Y3949D01*
G01X26788Y3891D01*
G01X26788Y3850D01*
G01X26905Y3837D01*
G01X26905Y3510D01*
G01X26861Y3552D01*
G01X26815Y3580D01*
G01X26769Y3595D01*
G01X26722Y3599D01*
G01X26659Y3592D01*
G01X26603Y3573D01*
G01X26552Y3543D01*
G01X26509Y3502D01*
G01X26473Y3451D01*
G01X26447Y3391D01*
G01X26430Y3322D01*
G01X26425Y3246D01*
G01X26430Y3172D01*
G01X26445Y3105D01*
G01X26470Y3046D01*
G01X26503Y2997D01*
G01X26545Y2957D01*
G01X26593Y2928D01*
G01X26648Y2909D01*
G01X26709Y2903D01*
G01X26770Y2909D01*
G01X26821Y2929D01*
G01X26866Y2960D01*
G01X26905Y3002D01*
G01X26912Y2908D01*
G01X27128Y2921D01*
G01X27128Y2964D01*
G01X27017Y2976D01*
G01X27017Y3741D01*
G01X27019Y3939D01*
G37*

%LPC*%
G36*
G01X26780Y3524D02*
G01X26745Y3528D01*
G01X26706Y3523D01*
G01X26669Y3512D01*
G01X26635Y3491D01*
G01X26606Y3462D01*
G01X26581Y3423D01*
G01X26562Y3375D01*
G01X26551Y3317D01*
G01X26547Y3248D01*
G01X26551Y3181D01*
G01X26561Y3124D01*
G01X26579Y3076D01*
G01X26603Y3038D01*
G01X26631Y3010D01*
G01X26664Y2990D01*
G01X26702Y2978D01*
G01X26742Y2974D01*
G01X26785Y2977D01*
G01X26825Y2990D01*
G01X26863Y3014D01*
G01X26902Y3053D01*
G01X26902Y3456D01*
G01X26857Y3490D01*
G01X26817Y3512D01*
G01X26780Y3524D01*
G37*

%LPD*%
G36*
G01X29908Y3868D02*
G01X29841Y3873D01*
G01X29778Y3868D01*
G01X29719Y3856D01*
G01X29666Y3835D01*
G01X29621Y3805D01*
G01X29583Y3769D01*
G01X29555Y3725D01*
G01X29537Y3674D01*
G01X29531Y3616D01*
G01X29536Y3568D01*
G01X29548Y3523D01*
G01X29569Y3484D01*
G01X29596Y3448D01*
G01X29631Y3417D01*
G01X29671Y3388D01*
G01X29718Y3362D01*
G01X29770Y3340D01*
G01X29823Y3319D01*
G01X29903Y3282D01*
G01X29957Y3242D01*
G01X29989Y3194D01*
G01X29999Y3134D01*
G01X29983Y3060D01*
G01X29937Y3005D01*
G01X29867Y2972D01*
G01X29775Y2961D01*
G01X29734Y2963D01*
G01X29697Y2969D01*
G01X29663Y2980D01*
G01X29630Y2997D01*
G01X29595Y3169D01*
G01X29524Y3169D01*
G01X29513Y2974D01*
G01X29568Y2945D01*
G01X29633Y2922D01*
G01X29706Y2906D01*
G01X29785Y2900D01*
G01X29855Y2905D01*
G01X29918Y2918D01*
G01X29974Y2940D01*
G01X30021Y2970D01*
G01X30060Y3008D01*
G01X30089Y3054D01*
G01X30107Y3105D01*
G01X30113Y3164D01*
G01X30109Y3211D01*
G01X30099Y3253D01*
G01X30081Y3291D01*
G01X30055Y3326D01*
G01X30021Y3359D01*
G01X29977Y3389D01*
G01X29923Y3418D01*
G01X29859Y3446D01*
G01X29803Y3469D01*
G01X29735Y3501D01*
G01X29686Y3540D01*
G01X29656Y3589D01*
G01X29645Y3649D01*
G01X29660Y3720D01*
G01X29700Y3771D01*
G01X29761Y3802D01*
G01X29838Y3812D01*
G01X29869Y3811D01*
G01X29898Y3806D01*
G01X29926Y3797D01*
G01X29953Y3784D01*
G01X29988Y3616D01*
G01X30059Y3616D01*
G01X30070Y3799D01*
G01X30021Y3830D01*
G01X29968Y3853D01*
G01X29908Y3868D01*
G37*

%LPD*%
G36*
G01X31670Y3595D02*
G01X31619Y3599D01*
G01X31566Y3595D01*
G01X31517Y3583D01*
G01X31475Y3565D01*
G01X31438Y3539D01*
G01X31408Y3507D01*
G01X31386Y3468D01*
G01X31372Y3423D01*
G01X31368Y3373D01*
G01X31375Y3307D01*
G01X31396Y3252D01*
G01X31430Y3207D01*
G01X31474Y3175D01*
G01X31429Y3129D01*
G01X31400Y3089D01*
G01X31383Y3054D01*
G01X31378Y3020D01*
G01X31384Y2983D01*
G01X31402Y2953D01*
G01X31430Y2930D01*
G01X31469Y2913D01*
G01X31406Y2877D01*
G01X31365Y2840D01*
G01X31342Y2801D01*
G01X31335Y2758D01*
G01X31339Y2722D01*
G01X31351Y2689D01*
G01X31373Y2660D01*
G01X31403Y2636D01*
G01X31443Y2616D01*
G01X31493Y2600D01*
G01X31553Y2591D01*
G01X31624Y2588D01*
G01X31704Y2593D01*
G01X31773Y2608D01*
G01X31832Y2632D01*
G01X31880Y2662D01*
G01X31918Y2699D01*
G01X31945Y2739D01*
G01X31961Y2782D01*
G01X31967Y2827D01*
G01X31953Y2901D01*
G01X31913Y2956D01*
G01X31843Y2990D01*
G01X31743Y3002D01*
G01X31558Y3002D01*
G01X31515Y3006D01*
G01X31488Y3020D01*
G01X31473Y3040D01*
G01X31469Y3068D01*
G01X31472Y3092D01*
G01X31479Y3115D01*
G01X31490Y3137D01*
G01X31507Y3159D01*
G01X31533Y3151D01*
G01X31560Y3146D01*
G01X31589Y3142D01*
G01X31619Y3141D01*
G01X31671Y3146D01*
G01X31719Y3157D01*
G01X31761Y3176D01*
G01X31798Y3202D01*
G01X31827Y3235D01*
G01X31850Y3275D01*
G01X31863Y3320D01*
G01X31868Y3373D01*
G01X31865Y3411D01*
G01X31859Y3445D01*
G01X31848Y3477D01*
G01X31832Y3505D01*
G01X31972Y3500D01*
G01X31972Y3583D01*
G01X31952Y3596D01*
G01X31794Y3543D01*
G01X31759Y3568D01*
G01X31717Y3585D01*
G01X31670Y3595D01*
G37*

%LPC*%
G36*
G01X31728Y2903D02*
G01X31500Y2903D01*
G01X31473Y2874D01*
G01X31455Y2844D01*
G01X31445Y2813D01*
G01X31441Y2778D01*
G01X31454Y2718D01*
G01X31492Y2676D01*
G01X31549Y2651D01*
G01X31624Y2644D01*
G01X31728Y2655D01*
G01X31804Y2686D01*
G01X31850Y2733D01*
G01X31865Y2791D01*
G01X31858Y2834D01*
G01X31834Y2870D01*
G01X31791Y2894D01*
G01X31728Y2903D01*
G37*
G36*
G01X31678Y3538D02*
G01X31619Y3550D01*
G01X31559Y3537D01*
G01X31514Y3500D01*
G01X31486Y3443D01*
G01X31477Y3370D01*
G01X31486Y3295D01*
G01X31513Y3237D01*
G01X31556Y3200D01*
G01X31614Y3187D01*
G01X31675Y3201D01*
G01X31721Y3240D01*
G01X31749Y3298D01*
G01X31759Y3373D01*
G01X31750Y3445D01*
G01X31722Y3502D01*
G01X31678Y3538D01*
G37*

%LPD*%
G54D22*
G01X44751Y7117D02*
G01X44697Y7221D01*
G01X44593Y7325D01*
G01X44492Y7376D01*
G01X44283Y7376D01*
G01X44179Y7325D01*
G01X44075Y7221D01*
G01X44022Y7117D01*
G01X43971Y6959D01*
G01X43971Y6700D01*
G01X44022Y6545D01*
G01X44075Y6441D01*
G01X44179Y6337D01*
G01X44283Y6286D01*
G01X44492Y6286D01*
G01X44593Y6337D01*
G01X44697Y6441D01*
G01X44751Y6545D01*
G01X44751Y6700D01*
G01X44492Y6700D02*
G01X44751Y6700D01*
G01X45094Y7376D02*
G01X45094Y6286D01*
G01X45094Y7376D02*
G01X45561Y7376D01*
G01X45716Y7325D01*
G01X45769Y7272D01*
G01X45820Y7167D01*
G01X45820Y7012D01*
G01X45769Y6908D01*
G01X45716Y6858D01*
G01X45561Y6804D01*
G01X45094Y6804D01*
G01X46216Y7117D02*
G01X46216Y7167D01*
G01X46267Y7272D01*
G01X46320Y7325D01*
G01X46422Y7376D01*
G01X46630Y7376D01*
G01X46734Y7325D01*
G01X46788Y7272D01*
G01X46839Y7167D01*
G01X46839Y7063D01*
G01X46788Y6959D01*
G01X46684Y6804D01*
G01X46163Y6286D01*
G01X46892Y6286D01*
G01X47235Y7376D02*
G01X47649Y6858D01*
G01X47649Y6286D01*
G01X48065Y7376D02*
G01X47649Y6858D01*
G01X48721Y7376D02*
G01X48563Y7325D01*
G01X48459Y7167D01*
G01X48408Y6908D01*
G01X48408Y6753D01*
G01X48459Y6492D01*
G01X48563Y6337D01*
G01X48721Y6286D01*
G01X48822Y6286D01*
G01X48980Y6337D01*
G01X49084Y6492D01*
G01X49135Y6753D01*
G01X49135Y6908D01*
G01X49084Y7167D01*
G01X48980Y7325D01*
G01X48822Y7376D01*
G01X48721Y7376D01*
G01X49894Y7376D02*
G01X49478Y6286D01*
G01X49894Y7376D02*
G01X50308Y6286D01*
G01X49635Y6649D02*
G01X50153Y6649D01*
G01X51172Y7376D02*
G01X50651Y6649D01*
G01X51431Y6649D01*
G01X51172Y7376D02*
G01X51172Y6286D01*
G01X51774Y7167D02*
G01X51878Y7221D01*
G01X52035Y7376D01*
G01X52035Y6286D01*
G01X53105Y7221D02*
G01X53001Y7325D01*
G01X52846Y7376D01*
G01X52637Y7376D01*
G01X52480Y7325D01*
G01X52378Y7221D01*
G01X52378Y7117D01*
G01X52429Y7012D01*
G01X52480Y6959D01*
G01X52584Y6908D01*
G01X52896Y6804D01*
G01X53001Y6753D01*
G01X53051Y6700D01*
G01X53105Y6596D01*
G01X53105Y6441D01*
G01X53001Y6337D01*
G01X52846Y6286D01*
G01X52637Y6286D01*
G01X52480Y6337D01*
G01X52378Y6441D01*
G01X53448Y7376D02*
G01X53448Y6286D01*
G01X54174Y7376D02*
G01X53448Y6649D01*
G01X53707Y6908D02*
G01X54174Y6286D01*
G01X54829Y7376D02*
G01X54674Y7325D01*
G01X54570Y7167D01*
G01X54517Y6908D01*
G01X54517Y6753D01*
G01X54570Y6492D01*
G01X54674Y6337D01*
G01X54829Y6286D01*
G01X54934Y6286D01*
G01X55088Y6337D01*
G01X55193Y6492D01*
G01X55246Y6753D01*
G01X55246Y6908D01*
G01X55193Y7167D01*
G01X55088Y7325D01*
G01X54934Y7376D01*
G01X54829Y7376D01*
G01X55589Y7376D02*
G01X55589Y6286D01*
G01X55589Y7376D02*
G01X56264Y7376D01*
G01X55589Y6858D02*
G01X56003Y6858D01*
G01X53613Y14096D02*
G01X54702Y14096D01*
G01X54702Y14096D02*
G01X54702Y14719D01*
G01X53976Y15737D02*
G01X54131Y15686D01*
G01X54235Y15582D01*
G01X54288Y15427D01*
G01X54288Y15374D01*
G01X54235Y15219D01*
G01X54131Y15115D01*
G01X53976Y15062D01*
G01X53925Y15062D01*
G01X53768Y15115D01*
G01X53664Y15219D01*
G01X53613Y15374D01*
G01X53613Y15427D01*
G01X53664Y15582D01*
G01X53768Y15686D01*
G01X53976Y15737D01*
G01X54235Y15737D01*
G01X54497Y15686D01*
G01X54652Y15582D01*
G01X54702Y15427D01*
G01X54702Y15323D01*
G01X54652Y15166D01*
G01X54547Y15115D01*
G01X53872Y16134D02*
G01X53821Y16134D01*
G01X53717Y16184D01*
G01X53664Y16238D01*
G01X53613Y16342D01*
G01X53613Y16548D01*
G01X53664Y16652D01*
G01X53717Y16705D01*
G01X53821Y16756D01*
G01X53925Y16756D01*
G01X54029Y16705D01*
G01X54184Y16601D01*
G01X54702Y16080D01*
G01X54702Y16809D01*
G01X53613Y17411D02*
G01X53664Y17256D01*
G01X53768Y17203D01*
G01X53872Y17203D01*
G01X53976Y17256D01*
G01X54029Y17360D01*
G01X54080Y17566D01*
G01X54131Y17724D01*
G01X54235Y17828D01*
G01X54339Y17878D01*
G01X54497Y17878D01*
G01X54601Y17828D01*
G01X54652Y17774D01*
G01X54702Y17619D01*
G01X54702Y17411D01*
G01X54652Y17256D01*
G01X54601Y17203D01*
G01X54497Y17152D01*
G01X54339Y17152D01*
G01X54235Y17203D01*
G01X54131Y17307D01*
G01X54080Y17462D01*
G01X54029Y17670D01*
G01X53976Y17774D01*
G01X53872Y17828D01*
G01X53768Y17828D01*
G01X53664Y17774D01*
G01X53613Y17619D01*
G01X53613Y17411D01*
G01X53613Y18221D02*
G01X54702Y18221D01*
G01X53613Y18221D02*
G01X54702Y18948D01*
G01X53613Y18948D02*
G01X54702Y18948D01*
G01X6115Y33782D02*
G01X7204Y34198D01*
G01X6115Y34612D02*
G01X7204Y34198D01*
G01X6115Y34955D02*
G01X7204Y34955D01*
G01X7204Y34955D02*
G01X7204Y35580D01*
G01X6115Y36545D02*
G01X6115Y36027D01*
G01X6582Y35974D01*
G01X6531Y36027D01*
G01X6478Y36182D01*
G01X6478Y36337D01*
G01X6531Y36494D01*
G01X6633Y36598D01*
G01X6790Y36649D01*
G01X6895Y36649D01*
G01X7049Y36598D01*
G01X7154Y36494D01*
G01X7204Y36337D01*
G01X7204Y36182D01*
G01X7154Y36027D01*
G01X7103Y35974D01*
G01X6999Y35923D01*
G01X6115Y37096D02*
G01X6115Y37668D01*
G01X6531Y37355D01*
G01X6531Y37513D01*
G01X6582Y37617D01*
G01X6633Y37668D01*
G01X6790Y37719D01*
G01X6895Y37719D01*
G01X7049Y37668D01*
G01X7154Y37564D01*
G01X7204Y37409D01*
G01X7204Y37251D01*
G01X7154Y37096D01*
G01X7103Y37045D01*
G01X6999Y36992D01*
G01X6115Y38061D02*
G01X7204Y38061D01*
G01X7204Y38061D02*
G01X7204Y38686D01*
G01X6115Y39342D02*
G01X6166Y39184D01*
G01X6323Y39080D01*
G01X6582Y39029D01*
G01X6737Y39029D01*
G01X6999Y39080D01*
G01X7154Y39184D01*
G01X7204Y39342D01*
G01X7204Y39446D01*
G01X7154Y39601D01*
G01X6999Y39705D01*
G01X6737Y39756D01*
G01X6582Y39756D01*
G01X6323Y39705D01*
G01X6166Y39601D01*
G01X6115Y39446D01*
G01X6115Y39342D01*
G01X6115Y40098D02*
G01X7204Y40827D01*
G01X6115Y40827D02*
G01X7204Y40098D01*
G01X400Y33401D02*
G01X1489Y33817D01*
G01X400Y34231D02*
G01X1489Y33817D01*
G01X400Y34574D02*
G01X1489Y34574D01*
G01X1489Y34574D02*
G01X1489Y35199D01*
G01X400Y36164D02*
G01X400Y35646D01*
G01X867Y35593D01*
G01X816Y35646D01*
G01X763Y35801D01*
G01X763Y35956D01*
G01X816Y36113D01*
G01X918Y36217D01*
G01X1075Y36268D01*
G01X1180Y36268D01*
G01X1334Y36217D01*
G01X1439Y36113D01*
G01X1489Y35956D01*
G01X1489Y35801D01*
G01X1439Y35646D01*
G01X1388Y35593D01*
G01X1284Y35542D01*
G01X400Y36715D02*
G01X400Y37287D01*
G01X816Y36974D01*
G01X816Y37132D01*
G01X867Y37236D01*
G01X918Y37287D01*
G01X1075Y37338D01*
G01X1180Y37338D01*
G01X1334Y37287D01*
G01X1439Y37183D01*
G01X1489Y37028D01*
G01X1489Y36870D01*
G01X1439Y36715D01*
G01X1388Y36664D01*
G01X1284Y36611D01*
G01X400Y37680D02*
G01X1489Y37680D01*
G01X1489Y37680D02*
G01X1489Y38305D01*
G01X400Y38961D02*
G01X451Y38803D01*
G01X608Y38699D01*
G01X867Y38648D01*
G01X1022Y38648D01*
G01X1284Y38699D01*
G01X1439Y38803D01*
G01X1489Y38961D01*
G01X1489Y39065D01*
G01X1439Y39220D01*
G01X1284Y39324D01*
G01X1022Y39375D01*
G01X867Y39375D01*
G01X608Y39324D01*
G01X451Y39220D01*
G01X400Y39065D01*
G01X400Y38961D01*
G01X400Y39717D02*
G01X1489Y40446D01*
G01X400Y40446D02*
G01X1489Y39717D01*
G01X1855Y40789D02*
G01X1855Y41724D01*
G01X608Y42067D02*
G01X555Y42171D01*
G01X400Y42326D01*
G01X1489Y42326D01*
G01X33684Y22108D02*
G01X33684Y21018D01*
G01X33684Y22108D02*
G01X34151Y22108D01*
G01X34306Y22057D01*
G01X34360Y22004D01*
G01X34410Y21899D01*
G01X34410Y21795D01*
G01X34360Y21691D01*
G01X34306Y21640D01*
G01X34151Y21590D01*
G01X33684Y21590D01*
G01X34047Y21590D02*
G01X34410Y21018D01*
G01X34857Y22108D02*
G01X35429Y22108D01*
G01X35119Y21691D01*
G01X35274Y21691D01*
G01X35378Y21640D01*
G01X35429Y21590D01*
G01X35482Y21432D01*
G01X35482Y21328D01*
G01X35429Y21173D01*
G01X35325Y21069D01*
G01X35170Y21018D01*
G01X35015Y21018D01*
G01X34857Y21069D01*
G01X34807Y21120D01*
G01X34753Y21224D01*
G01X33613Y39380D02*
G01X33613Y38290D01*
G01X33613Y39380D02*
G01X34080Y39380D01*
G01X34235Y39329D01*
G01X34289Y39276D01*
G01X34339Y39171D01*
G01X34339Y39067D01*
G01X34289Y38963D01*
G01X34235Y38912D01*
G01X34080Y38862D01*
G01X33613Y38862D01*
G01X33976Y38862D02*
G01X34339Y38290D01*
G01X34682Y39171D02*
G01X34786Y39225D01*
G01X34944Y39380D01*
G01X34944Y38290D01*
G01X33430Y33665D02*
G01X33430Y32575D01*
G01X33430Y33665D02*
G01X33897Y33665D01*
G01X34052Y33614D01*
G01X34106Y33561D01*
G01X34156Y33456D01*
G01X34156Y33352D01*
G01X34106Y33248D01*
G01X34052Y33197D01*
G01X33897Y33147D01*
G01X33430Y33147D01*
G01X33793Y33147D02*
G01X34156Y32575D01*
G01X34553Y33406D02*
G01X34553Y33456D01*
G01X34603Y33561D01*
G01X34657Y33614D01*
G01X34761Y33665D01*
G01X34967Y33665D01*
G01X35071Y33614D01*
G01X35124Y33561D01*
G01X35175Y33456D01*
G01X35175Y33352D01*
G01X35124Y33248D01*
G01X35020Y33093D01*
G01X34499Y32575D01*
G01X35228Y32575D01*
G01X55129Y35595D02*
G01X55233Y35699D01*
G01X55284Y35854D01*
G01X55284Y36062D01*
G01X55233Y36217D01*
G01X55129Y36322D01*
G01X55025Y36322D01*
G01X54921Y36271D01*
G01X54868Y36217D01*
G01X54817Y36113D01*
G01X54713Y35801D01*
G01X54662Y35699D01*
G01X54608Y35646D01*
G01X54504Y35595D01*
G01X54349Y35595D01*
G01X54245Y35699D01*
G01X54194Y35854D01*
G01X54194Y36062D01*
G01X54245Y36217D01*
G01X54349Y36322D01*
G01X55284Y35252D02*
G01X54194Y35252D01*
G01X55284Y35252D02*
G01X55284Y34785D01*
G01X55233Y34627D01*
G01X55180Y34577D01*
G01X55076Y34523D01*
G01X54921Y34523D01*
G01X54817Y34577D01*
G01X54766Y34627D01*
G01X54713Y34785D01*
G01X54713Y35252D01*
G01X55284Y34180D02*
G01X54194Y34180D01*
G01X53829Y33837D02*
G01X53829Y32903D01*
G01X55076Y32560D02*
G01X55129Y32456D01*
G01X55284Y32301D01*
G01X54194Y32301D01*
G01X13481Y28575D02*
G01X14570Y28575D01*
G01X13740Y28968D02*
G01X13689Y28968D01*
G01X13585Y29022D01*
G01X13532Y29072D01*
G01X13481Y29176D01*
G01X13481Y29385D01*
G01X13532Y29489D01*
G01X13585Y29540D01*
G01X13689Y29593D01*
G01X13793Y29593D01*
G01X13897Y29540D01*
G01X14052Y29438D01*
G01X14570Y28917D01*
G01X14570Y29644D01*
G01X13740Y30767D02*
G01X13636Y30716D01*
G01X13532Y30612D01*
G01X13481Y30507D01*
G01X13481Y30299D01*
G01X13532Y30195D01*
G01X13636Y30091D01*
G01X13740Y30040D01*
G01X13897Y29987D01*
G01X14156Y29987D01*
G01X14311Y30040D01*
G01X14415Y30091D01*
G01X14520Y30195D01*
G01X14570Y30299D01*
G01X14570Y30507D01*
G01X14520Y30612D01*
G01X14415Y30716D01*
G01X14311Y30767D01*
G01X14936Y31109D02*
G01X14936Y32044D01*
G01X13689Y32387D02*
G01X13636Y32491D01*
G01X13481Y32649D01*
G01X14570Y32649D01*
G01X18180Y28067D02*
G01X19269Y28067D01*
G01X18439Y28460D02*
G01X18388Y28460D01*
G01X18284Y28514D01*
G01X18231Y28564D01*
G01X18180Y28668D01*
G01X18180Y28877D01*
G01X18231Y28981D01*
G01X18284Y29032D01*
G01X18388Y29085D01*
G01X18492Y29085D01*
G01X18596Y29032D01*
G01X18751Y28930D01*
G01X19269Y28409D01*
G01X19269Y29136D01*
G01X18439Y30259D02*
G01X18335Y30208D01*
G01X18231Y30104D01*
G01X18180Y29999D01*
G01X18180Y29791D01*
G01X18231Y29687D01*
G01X18335Y29583D01*
G01X18439Y29532D01*
G01X18596Y29479D01*
G01X18855Y29479D01*
G01X19010Y29532D01*
G01X19114Y29583D01*
G01X19219Y29687D01*
G01X19269Y29791D01*
G01X19269Y29999D01*
G01X19219Y30104D01*
G01X19114Y30208D01*
G01X19010Y30259D01*
G01X19635Y30601D02*
G01X19635Y31536D01*
G01X18439Y31932D02*
G01X18388Y31932D01*
G01X18284Y31983D01*
G01X18231Y32037D01*
G01X18180Y32141D01*
G01X18180Y32346D01*
G01X18231Y32451D01*
G01X18284Y32504D01*
G01X18388Y32555D01*
G01X18492Y32555D01*
G01X18596Y32504D01*
G01X18751Y32400D01*
G01X19269Y31879D01*
G01X19269Y32608D01*
G01X16793Y6614D02*
G01X16793Y5524D01*
G01X16793Y5524D02*
G01X17415Y5524D01*
G01X17758Y6614D02*
G01X17758Y5524D01*
G01X17758Y6614D02*
G01X18434Y6614D01*
G01X17758Y6096D02*
G01X18175Y6096D01*
G01X17758Y5524D02*
G01X18434Y5524D01*
G01X18777Y6614D02*
G01X18777Y5524D01*
G01X18777Y6614D02*
G01X19142Y6614D01*
G01X19297Y6563D01*
G01X19402Y6459D01*
G01X19452Y6355D01*
G01X19506Y6197D01*
G01X19506Y5938D01*
G01X19452Y5783D01*
G01X19402Y5679D01*
G01X19297Y5575D01*
G01X19142Y5524D01*
G01X18777Y5524D01*
G01X19899Y6355D02*
G01X19899Y6405D01*
G01X19953Y6510D01*
G01X20003Y6563D01*
G01X20108Y6614D01*
G01X20316Y6614D01*
G01X20420Y6563D01*
G01X20471Y6510D01*
G01X20524Y6405D01*
G01X20524Y6301D01*
G01X20471Y6197D01*
G01X20367Y6042D01*
G01X19849Y5524D01*
G01X20575Y5524D01*
G01X8787Y12844D02*
G01X8683Y12791D01*
G01X8579Y12687D01*
G01X8528Y12585D01*
G01X8528Y12377D01*
G01X8579Y12273D01*
G01X8683Y12169D01*
G01X8787Y12115D01*
G01X8944Y12065D01*
G01X9203Y12065D01*
G01X9358Y12115D01*
G01X9462Y12169D01*
G01X9567Y12273D01*
G01X9617Y12377D01*
G01X9617Y12585D01*
G01X9567Y12687D01*
G01X9462Y12791D01*
G01X9358Y12844D01*
G01X8787Y13967D02*
G01X8683Y13914D01*
G01X8579Y13809D01*
G01X8528Y13705D01*
G01X8528Y13500D01*
G01X8579Y13395D01*
G01X8683Y13291D01*
G01X8787Y13238D01*
G01X8944Y13187D01*
G01X9203Y13187D01*
G01X9358Y13238D01*
G01X9462Y13291D01*
G01X9567Y13395D01*
G01X9617Y13500D01*
G01X9617Y13705D01*
G01X9567Y13809D01*
G01X9462Y13914D01*
G01X9358Y13967D01*
G01X8683Y15036D02*
G01X8579Y14932D01*
G01X8528Y14777D01*
G01X8528Y14569D01*
G01X8579Y14414D01*
G01X8683Y14310D01*
G01X8787Y14310D01*
G01X8891Y14361D01*
G01X8944Y14414D01*
G01X8995Y14516D01*
G01X9099Y14828D01*
G01X9150Y14932D01*
G01X9203Y14986D01*
G01X9307Y15036D01*
G01X9462Y15036D01*
G01X9567Y14932D01*
G01X9617Y14777D01*
G01X9617Y14569D01*
G01X9567Y14414D01*
G01X9462Y14310D01*
G01X8528Y15638D02*
G01X8579Y15483D01*
G01X8683Y15430D01*
G01X8787Y15430D01*
G01X8891Y15483D01*
G01X8944Y15587D01*
G01X8995Y15796D01*
G01X9046Y15951D01*
G01X9150Y16055D01*
G01X9254Y16106D01*
G01X9412Y16106D01*
G01X9516Y16055D01*
G01X9567Y16002D01*
G01X9617Y15847D01*
G01X9617Y15638D01*
G01X9567Y15483D01*
G01X9516Y15430D01*
G01X9412Y15379D01*
G01X9254Y15379D01*
G01X9150Y15430D01*
G01X9046Y15534D01*
G01X8995Y15692D01*
G01X8944Y15900D01*
G01X8891Y16002D01*
G01X8787Y16055D01*
G01X8683Y16055D01*
G01X8579Y16002D01*
G01X8528Y15847D01*
G01X8528Y15638D01*
G01X8736Y16449D02*
G01X8683Y16553D01*
G01X8528Y16710D01*
G01X9617Y16710D01*
G01X8736Y17053D02*
G01X8683Y17157D01*
G01X8528Y17312D01*
G01X9617Y17312D01*
G54D19*
G75*
G01X17551Y1494D02*
G03X15016Y1494I-1268J1547D01*
G01*
M00*
M02*
